<?xml version="1.0" encoding="utf-8" standalone="no"?>
<!DOCTYPE svg PUBLIC "-//W3C//DTD SVG 1.1//EN"
  "http://www.w3.org/Graphics/SVG/1.1/DTD/svg11.dtd">
<svg xmlns:xlink="http://www.w3.org/1999/xlink" width="1000.543594pt" height="425.022937pt" viewBox="0 0 1000.543594 425.022937" xmlns="http://www.w3.org/2000/svg" version="1.1">
 <metadata>
  <rdf:RDF xmlns:dc="http://purl.org/dc/elements/1.1/" xmlns:cc="http://creativecommons.org/ns#" xmlns:rdf="http://www.w3.org/1999/02/22-rdf-syntax-ns#">
   <cc:Work>
    <dc:type rdf:resource="http://purl.org/dc/dcmitype/StillImage"/>
    <dc:date>2026-07-07T18:03:46.646408</dc:date>
    <dc:format>image/svg+xml</dc:format>
    <dc:creator>
     <cc:Agent>
      <dc:title>Matplotlib v3.11.0, https://matplotlib.org/</dc:title>
     </cc:Agent>
    </dc:creator>
   </cc:Work>
  </rdf:RDF>
 </metadata>
 <defs>
  <style type="text/css">*{stroke-linejoin: round; stroke-linecap: butt}</style>
 </defs>
 <g id="figure_1">
  <g id="patch_1">
   <path d="M 0 425.022937 
L 1000.543594 425.022937 
L 1000.543594 0 
L 0 0 
z
" style="fill: #ffffff"/>
  </g>
  <g id="axes_1">
   <g id="patch_2">
    <path d="M 53.466641 330.754702 
L 993.343594 330.754702 
L 993.343594 25.3575 
L 53.466641 25.3575 
z
" style="fill: #ffffff"/>
   </g>
   <g id="matplotlib.axis_1">
    <g id="xtick_1">
     <g id="line2d_1">
      <defs>
       <path id="m27e0e701ce" d="M 0 0 
L 0 3.5 
" style="stroke: #000000; stroke-width: 0.8"/>
      </defs>
      <g>
       <use xlink:href="#m27e0e701ce" x="148.653541" y="330.754702" style="stroke: #000000; stroke-width: 0.8"/>
      </g>
     </g>
     <g id="text_1">
      <!-- BanknoteAuth -->
      <g transform="translate(91.495503 398.954352) rotate(-45) scale(0.11 -0.11)">
       <defs>
        <path id="DejaVuSans-25" d="M 1259 2228 
L 1259 519 
L 2272 519 
Q 2781 519 3026 730 
Q 3272 941 3272 1375 
Q 3272 1813 3026 2020 
Q 2781 2228 2272 2228 
L 1259 2228 
z
M 1259 4147 
L 1259 2741 
L 2194 2741 
Q 2656 2741 2882 2914 
Q 3109 3088 3109 3444 
Q 3109 3797 2882 3972 
Q 2656 4147 2194 4147 
L 1259 4147 
z
M 628 4666 
L 2241 4666 
Q 2963 4666 3353 4366 
Q 3744 4066 3744 3513 
Q 3744 3084 3544 2831 
Q 3344 2578 2956 2516 
Q 3422 2416 3680 2098 
Q 3938 1781 3938 1306 
Q 3938 681 3513 340 
Q 3088 0 2303 0 
L 628 0 
L 628 4666 
z
" transform="scale(0.015625)"/>
        <path id="DejaVuSans-44" d="M 2194 1759 
Q 1497 1759 1228 1600 
Q 959 1441 959 1056 
Q 959 750 1161 570 
Q 1363 391 1709 391 
Q 2188 391 2477 730 
Q 2766 1069 2766 1631 
L 2766 1759 
L 2194 1759 
z
M 3341 1997 
L 3341 0 
L 2766 0 
L 2766 531 
Q 2569 213 2275 61 
Q 1981 -91 1556 -91 
Q 1019 -91 701 211 
Q 384 513 384 1019 
Q 384 1609 779 1909 
Q 1175 2209 1959 2209 
L 2766 2209 
L 2766 2266 
Q 2766 2663 2505 2880 
Q 2244 3097 1772 3097 
Q 1472 3097 1187 3025 
Q 903 2953 641 2809 
L 641 3341 
Q 956 3463 1253 3523 
Q 1550 3584 1831 3584 
Q 2591 3584 2966 3190 
Q 3341 2797 3341 1997 
z
" transform="scale(0.015625)"/>
        <path id="DejaVuSans-51" d="M 3513 2113 
L 3513 0 
L 2938 0 
L 2938 2094 
Q 2938 2591 2744 2837 
Q 2550 3084 2163 3084 
Q 1697 3084 1428 2787 
Q 1159 2491 1159 1978 
L 1159 0 
L 581 0 
L 581 3500 
L 1159 3500 
L 1159 2956 
Q 1366 3272 1645 3428 
Q 1925 3584 2291 3584 
Q 2894 3584 3203 3211 
Q 3513 2838 3513 2113 
z
" transform="scale(0.015625)"/>
        <path id="DejaVuSans-4e" d="M 581 4863 
L 1159 4863 
L 1159 1991 
L 2875 3500 
L 3609 3500 
L 1753 1863 
L 3688 0 
L 2938 0 
L 1159 1709 
L 1159 0 
L 581 0 
L 581 4863 
z
" transform="scale(0.015625)"/>
        <path id="DejaVuSans-52" d="M 1959 3097 
Q 1497 3097 1228 2736 
Q 959 2375 959 1747 
Q 959 1119 1226 758 
Q 1494 397 1959 397 
Q 2419 397 2687 759 
Q 2956 1122 2956 1747 
Q 2956 2369 2687 2733 
Q 2419 3097 1959 3097 
z
M 1959 3584 
Q 2709 3584 3137 3096 
Q 3566 2609 3566 1747 
Q 3566 888 3137 398 
Q 2709 -91 1959 -91 
Q 1206 -91 779 398 
Q 353 888 353 1747 
Q 353 2609 779 3096 
Q 1206 3584 1959 3584 
z
" transform="scale(0.015625)"/>
        <path id="DejaVuSans-57" d="M 1172 4494 
L 1172 3500 
L 2356 3500 
L 2356 3053 
L 1172 3053 
L 1172 1153 
Q 1172 725 1289 603 
Q 1406 481 1766 481 
L 2356 481 
L 2356 0 
L 1766 0 
Q 1100 0 847 248 
Q 594 497 594 1153 
L 594 3053 
L 172 3053 
L 172 3500 
L 594 3500 
L 594 4494 
L 1172 4494 
z
" transform="scale(0.015625)"/>
        <path id="DejaVuSans-48" d="M 3597 1894 
L 3597 1613 
L 953 1613 
Q 991 1019 1311 708 
Q 1631 397 2203 397 
Q 2534 397 2845 478 
Q 3156 559 3463 722 
L 3463 178 
Q 3153 47 2828 -22 
Q 2503 -91 2169 -91 
Q 1331 -91 842 396 
Q 353 884 353 1716 
Q 353 2575 817 3079 
Q 1281 3584 2069 3584 
Q 2775 3584 3186 3129 
Q 3597 2675 3597 1894 
z
M 3022 2063 
Q 3016 2534 2758 2815 
Q 2500 3097 2075 3097 
Q 1594 3097 1305 2825 
Q 1016 2553 972 2059 
L 3022 2063 
z
" transform="scale(0.015625)"/>
        <path id="DejaVuSans-24" d="M 2188 4044 
L 1331 1722 
L 3047 1722 
L 2188 4044 
z
M 1831 4666 
L 2547 4666 
L 4325 0 
L 3669 0 
L 3244 1197 
L 1141 1197 
L 716 0 
L 50 0 
L 1831 4666 
z
" transform="scale(0.015625)"/>
        <path id="DejaVuSans-58" d="M 544 1381 
L 544 3500 
L 1119 3500 
L 1119 1403 
Q 1119 906 1312 657 
Q 1506 409 1894 409 
Q 2359 409 2629 706 
Q 2900 1003 2900 1516 
L 2900 3500 
L 3475 3500 
L 3475 0 
L 2900 0 
L 2900 538 
Q 2691 219 2414 64 
Q 2138 -91 1772 -91 
Q 1169 -91 856 284 
Q 544 659 544 1381 
z
M 1991 3584 
L 1991 3584 
z
" transform="scale(0.015625)"/>
        <path id="DejaVuSans-4b" d="M 3513 2113 
L 3513 0 
L 2938 0 
L 2938 2094 
Q 2938 2591 2744 2837 
Q 2550 3084 2163 3084 
Q 1697 3084 1428 2787 
Q 1159 2491 1159 1978 
L 1159 0 
L 581 0 
L 581 4863 
L 1159 4863 
L 1159 2956 
Q 1366 3272 1645 3428 
Q 1925 3584 2291 3584 
Q 2894 3584 3203 3211 
Q 3513 2838 3513 2113 
z
" transform="scale(0.015625)"/>
       </defs>
       <use xlink:href="#DejaVuSans-25"/>
       <use xlink:href="#DejaVuSans-44" transform="translate(68.609375 0)"/>
       <use xlink:href="#DejaVuSans-51" transform="translate(129.890625 0)"/>
       <use xlink:href="#DejaVuSans-4e" transform="translate(193.265625 0)"/>
       <use xlink:href="#DejaVuSans-51" transform="translate(251.171875 0)"/>
       <use xlink:href="#DejaVuSans-52" transform="translate(314.546875 0)"/>
       <use xlink:href="#DejaVuSans-57" transform="translate(375.734375 0)"/>
       <use xlink:href="#DejaVuSans-48" transform="translate(414.9375 0)"/>
       <use xlink:href="#DejaVuSans-24" transform="translate(476.46875 0)"/>
       <use xlink:href="#DejaVuSans-58" transform="translate(544.875 0)"/>
       <use xlink:href="#DejaVuSans-57" transform="translate(608.25 0)"/>
       <use xlink:href="#DejaVuSans-4b" transform="translate(647.453125 0)"/>
      </g>
     </g>
    </g>
    <g id="xtick_2">
     <g id="line2d_2">
      <g>
       <use xlink:href="#m27e0e701ce" x="273.570733" y="330.754702" style="stroke: #000000; stroke-width: 0.8"/>
      </g>
     </g>
     <g id="text_2">
      <!-- BreastCancer -->
      <g transform="translate(219.297912 396.068528) rotate(-45) scale(0.11 -0.11)">
       <defs>
        <path id="DejaVuSans-55" d="M 2631 2963 
Q 2534 3019 2420 3045 
Q 2306 3072 2169 3072 
Q 1681 3072 1420 2755 
Q 1159 2438 1159 1844 
L 1159 0 
L 581 0 
L 581 3500 
L 1159 3500 
L 1159 2956 
Q 1341 3275 1631 3429 
Q 1922 3584 2338 3584 
Q 2397 3584 2469 3576 
Q 2541 3569 2628 3553 
L 2631 2963 
z
" transform="scale(0.015625)"/>
        <path id="DejaVuSans-56" d="M 2834 3397 
L 2834 2853 
Q 2591 2978 2328 3040 
Q 2066 3103 1784 3103 
Q 1356 3103 1142 2972 
Q 928 2841 928 2578 
Q 928 2378 1081 2264 
Q 1234 2150 1697 2047 
L 1894 2003 
Q 2506 1872 2764 1633 
Q 3022 1394 3022 966 
Q 3022 478 2636 193 
Q 2250 -91 1575 -91 
Q 1294 -91 989 -36 
Q 684 19 347 128 
L 347 722 
Q 666 556 975 473 
Q 1284 391 1588 391 
Q 1994 391 2212 530 
Q 2431 669 2431 922 
Q 2431 1156 2273 1281 
Q 2116 1406 1581 1522 
L 1381 1569 
Q 847 1681 609 1914 
Q 372 2147 372 2553 
Q 372 3047 722 3315 
Q 1072 3584 1716 3584 
Q 2034 3584 2315 3537 
Q 2597 3491 2834 3397 
z
" transform="scale(0.015625)"/>
        <path id="DejaVuSans-26" d="M 4122 4306 
L 4122 3641 
Q 3803 3938 3442 4084 
Q 3081 4231 2675 4231 
Q 1875 4231 1450 3742 
Q 1025 3253 1025 2328 
Q 1025 1406 1450 917 
Q 1875 428 2675 428 
Q 3081 428 3442 575 
Q 3803 722 4122 1019 
L 4122 359 
Q 3791 134 3420 21 
Q 3050 -91 2638 -91 
Q 1578 -91 968 557 
Q 359 1206 359 2328 
Q 359 3453 968 4101 
Q 1578 4750 2638 4750 
Q 3056 4750 3426 4639 
Q 3797 4528 4122 4306 
z
" transform="scale(0.015625)"/>
        <path id="DejaVuSans-46" d="M 3122 3366 
L 3122 2828 
Q 2878 2963 2633 3030 
Q 2388 3097 2138 3097 
Q 1578 3097 1268 2742 
Q 959 2388 959 1747 
Q 959 1106 1268 751 
Q 1578 397 2138 397 
Q 2388 397 2633 464 
Q 2878 531 3122 666 
L 3122 134 
Q 2881 22 2623 -34 
Q 2366 -91 2075 -91 
Q 1284 -91 818 406 
Q 353 903 353 1747 
Q 353 2603 823 3093 
Q 1294 3584 2113 3584 
Q 2378 3584 2631 3529 
Q 2884 3475 3122 3366 
z
" transform="scale(0.015625)"/>
       </defs>
       <use xlink:href="#DejaVuSans-25"/>
       <use xlink:href="#DejaVuSans-55" transform="translate(68.609375 0)"/>
       <use xlink:href="#DejaVuSans-48" transform="translate(107.515625 0)"/>
       <use xlink:href="#DejaVuSans-44" transform="translate(169.046875 0)"/>
       <use xlink:href="#DejaVuSans-56" transform="translate(230.328125 0)"/>
       <use xlink:href="#DejaVuSans-57" transform="translate(282.421875 0)"/>
       <use xlink:href="#DejaVuSans-26" transform="translate(321.625 0)"/>
       <use xlink:href="#DejaVuSans-44" transform="translate(391.453125 0)"/>
       <use xlink:href="#DejaVuSans-51" transform="translate(452.734375 0)"/>
       <use xlink:href="#DejaVuSans-46" transform="translate(516.109375 0)"/>
       <use xlink:href="#DejaVuSans-48" transform="translate(571.09375 0)"/>
       <use xlink:href="#DejaVuSans-55" transform="translate(632.625 0)"/>
      </g>
     </g>
    </g>
    <g id="xtick_3">
     <g id="line2d_3">
      <g>
       <use xlink:href="#m27e0e701ce" x="398.487925" y="330.754702" style="stroke: #000000; stroke-width: 0.8"/>
      </g>
     </g>
     <g id="text_3">
      <!-- HeartDisease -->
      <g transform="translate(344.37796 395.90628) rotate(-45) scale(0.11 -0.11)">
       <defs>
        <path id="DejaVuSans-2b" d="M 628 4666 
L 1259 4666 
L 1259 2753 
L 3553 2753 
L 3553 4666 
L 4184 4666 
L 4184 0 
L 3553 0 
L 3553 2222 
L 1259 2222 
L 1259 0 
L 628 0 
L 628 4666 
z
" transform="scale(0.015625)"/>
        <path id="DejaVuSans-27" d="M 1259 4147 
L 1259 519 
L 2022 519 
Q 2988 519 3436 956 
Q 3884 1394 3884 2338 
Q 3884 3275 3436 3711 
Q 2988 4147 2022 4147 
L 1259 4147 
z
M 628 4666 
L 1925 4666 
Q 3281 4666 3915 4102 
Q 4550 3538 4550 2338 
Q 4550 1131 3912 565 
Q 3275 0 1925 0 
L 628 0 
L 628 4666 
z
" transform="scale(0.015625)"/>
        <path id="DejaVuSans-4c" d="M 603 3500 
L 1178 3500 
L 1178 0 
L 603 0 
L 603 3500 
z
M 603 4863 
L 1178 4863 
L 1178 4134 
L 603 4134 
L 603 4863 
z
" transform="scale(0.015625)"/>
       </defs>
       <use xlink:href="#DejaVuSans-2b"/>
       <use xlink:href="#DejaVuSans-48" transform="translate(75.203125 0)"/>
       <use xlink:href="#DejaVuSans-44" transform="translate(136.734375 0)"/>
       <use xlink:href="#DejaVuSans-55" transform="translate(198.015625 0)"/>
       <use xlink:href="#DejaVuSans-57" transform="translate(239.125 0)"/>
       <use xlink:href="#DejaVuSans-27" transform="translate(278.328125 0)"/>
       <use xlink:href="#DejaVuSans-4c" transform="translate(355.328125 0)"/>
       <use xlink:href="#DejaVuSans-56" transform="translate(383.109375 0)"/>
       <use xlink:href="#DejaVuSans-48" transform="translate(435.203125 0)"/>
       <use xlink:href="#DejaVuSans-44" transform="translate(496.734375 0)"/>
       <use xlink:href="#DejaVuSans-56" transform="translate(558.015625 0)"/>
       <use xlink:href="#DejaVuSans-48" transform="translate(610.109375 0)"/>
      </g>
     </g>
    </g>
    <g id="xtick_4">
     <g id="line2d_4">
      <g>
       <use xlink:href="#m27e0e701ce" x="523.405117" y="330.754702" style="stroke: #000000; stroke-width: 0.8"/>
      </g>
     </g>
     <g id="text_4">
      <!-- Ionosphere -->
      <g transform="translate(478.276513 386.924919) rotate(-45) scale(0.11 -0.11)">
       <defs>
        <path id="DejaVuSans-2c" d="M 628 4666 
L 1259 4666 
L 1259 0 
L 628 0 
L 628 4666 
z
" transform="scale(0.015625)"/>
        <path id="DejaVuSans-53" d="M 1159 525 
L 1159 -1331 
L 581 -1331 
L 581 3500 
L 1159 3500 
L 1159 2969 
Q 1341 3281 1617 3432 
Q 1894 3584 2278 3584 
Q 2916 3584 3314 3078 
Q 3713 2572 3713 1747 
Q 3713 922 3314 415 
Q 2916 -91 2278 -91 
Q 1894 -91 1617 61 
Q 1341 213 1159 525 
z
M 3116 1747 
Q 3116 2381 2855 2742 
Q 2594 3103 2138 3103 
Q 1681 3103 1420 2742 
Q 1159 2381 1159 1747 
Q 1159 1113 1420 752 
Q 1681 391 2138 391 
Q 2594 391 2855 752 
Q 3116 1113 3116 1747 
z
" transform="scale(0.015625)"/>
       </defs>
       <use xlink:href="#DejaVuSans-2c"/>
       <use xlink:href="#DejaVuSans-52" transform="translate(29.5 0)"/>
       <use xlink:href="#DejaVuSans-51" transform="translate(90.6875 0)"/>
       <use xlink:href="#DejaVuSans-52" transform="translate(154.0625 0)"/>
       <use xlink:href="#DejaVuSans-56" transform="translate(215.25 0)"/>
       <use xlink:href="#DejaVuSans-53" transform="translate(267.34375 0)"/>
       <use xlink:href="#DejaVuSans-4b" transform="translate(330.828125 0)"/>
       <use xlink:href="#DejaVuSans-48" transform="translate(394.203125 0)"/>
       <use xlink:href="#DejaVuSans-55" transform="translate(455.734375 0)"/>
       <use xlink:href="#DejaVuSans-48" transform="translate(494.640625 0)"/>
      </g>
     </g>
    </g>
    <g id="xtick_5">
     <g id="line2d_5">
      <g>
       <use xlink:href="#m27e0e701ce" x="648.322309" y="330.754702" style="stroke: #000000; stroke-width: 0.8"/>
      </g>
     </g>
     <g id="text_5">
      <!-- KC2 -->
      <g transform="translate(631.398095 358.719921) rotate(-45) scale(0.11 -0.11)">
       <defs>
        <path id="DejaVuSans-2e" d="M 628 4666 
L 1259 4666 
L 1259 2694 
L 3353 4666 
L 4166 4666 
L 1850 2491 
L 4331 0 
L 3500 0 
L 1259 2247 
L 1259 0 
L 628 0 
L 628 4666 
z
" transform="scale(0.015625)"/>
        <path id="DejaVuSans-15" d="M 1228 531 
L 3431 531 
L 3431 0 
L 469 0 
L 469 531 
Q 828 903 1448 1529 
Q 2069 2156 2228 2338 
Q 2531 2678 2651 2914 
Q 2772 3150 2772 3378 
Q 2772 3750 2511 3984 
Q 2250 4219 1831 4219 
Q 1534 4219 1204 4116 
Q 875 4013 500 3803 
L 500 4441 
Q 881 4594 1212 4672 
Q 1544 4750 1819 4750 
Q 2544 4750 2975 4387 
Q 3406 4025 3406 3419 
Q 3406 3131 3298 2873 
Q 3191 2616 2906 2266 
Q 2828 2175 2409 1742 
Q 1991 1309 1228 531 
z
" transform="scale(0.015625)"/>
       </defs>
       <use xlink:href="#DejaVuSans-2e"/>
       <use xlink:href="#DejaVuSans-26" transform="translate(60.109375 0)"/>
       <use xlink:href="#DejaVuSans-15" transform="translate(129.9375 0)"/>
      </g>
     </g>
    </g>
    <g id="xtick_6">
     <g id="line2d_6">
      <g>
       <use xlink:href="#m27e0e701ce" x="773.239501" y="330.754702" style="stroke: #000000; stroke-width: 0.8"/>
      </g>
     </g>
     <g id="text_6">
      <!-- QSARBiodeg -->
      <g transform="translate(722.521549 392.514267) rotate(-45) scale(0.11 -0.11)">
       <defs>
        <path id="DejaVuSans-34" d="M 2522 4238 
Q 1834 4238 1429 3725 
Q 1025 3213 1025 2328 
Q 1025 1447 1429 934 
Q 1834 422 2522 422 
Q 3209 422 3611 934 
Q 4013 1447 4013 2328 
Q 4013 3213 3611 3725 
Q 3209 4238 2522 4238 
z
M 3406 84 
L 4238 -825 
L 3475 -825 
L 2784 -78 
Q 2681 -84 2626 -87 
Q 2572 -91 2522 -91 
Q 1538 -91 948 567 
Q 359 1225 359 2328 
Q 359 3434 948 4092 
Q 1538 4750 2522 4750 
Q 3503 4750 4090 4092 
Q 4678 3434 4678 2328 
Q 4678 1516 4351 937 
Q 4025 359 3406 84 
z
" transform="scale(0.015625)"/>
        <path id="DejaVuSans-36" d="M 3425 4513 
L 3425 3897 
Q 3066 4069 2747 4153 
Q 2428 4238 2131 4238 
Q 1616 4238 1336 4038 
Q 1056 3838 1056 3469 
Q 1056 3159 1242 3001 
Q 1428 2844 1947 2747 
L 2328 2669 
Q 3034 2534 3370 2195 
Q 3706 1856 3706 1288 
Q 3706 609 3251 259 
Q 2797 -91 1919 -91 
Q 1588 -91 1214 -16 
Q 841 59 441 206 
L 441 856 
Q 825 641 1194 531 
Q 1563 422 1919 422 
Q 2459 422 2753 634 
Q 3047 847 3047 1241 
Q 3047 1584 2836 1778 
Q 2625 1972 2144 2069 
L 1759 2144 
Q 1053 2284 737 2584 
Q 422 2884 422 3419 
Q 422 4038 858 4394 
Q 1294 4750 2059 4750 
Q 2388 4750 2728 4690 
Q 3069 4631 3425 4513 
z
" transform="scale(0.015625)"/>
        <path id="DejaVuSans-35" d="M 2841 2188 
Q 3044 2119 3236 1894 
Q 3428 1669 3622 1275 
L 4263 0 
L 3584 0 
L 2988 1197 
Q 2756 1666 2539 1819 
Q 2322 1972 1947 1972 
L 1259 1972 
L 1259 0 
L 628 0 
L 628 4666 
L 2053 4666 
Q 2853 4666 3247 4331 
Q 3641 3997 3641 3322 
Q 3641 2881 3436 2590 
Q 3231 2300 2841 2188 
z
M 1259 4147 
L 1259 2491 
L 2053 2491 
Q 2509 2491 2742 2702 
Q 2975 2913 2975 3322 
Q 2975 3731 2742 3939 
Q 2509 4147 2053 4147 
L 1259 4147 
z
" transform="scale(0.015625)"/>
        <path id="DejaVuSans-47" d="M 2906 2969 
L 2906 4863 
L 3481 4863 
L 3481 0 
L 2906 0 
L 2906 525 
Q 2725 213 2448 61 
Q 2172 -91 1784 -91 
Q 1150 -91 751 415 
Q 353 922 353 1747 
Q 353 2572 751 3078 
Q 1150 3584 1784 3584 
Q 2172 3584 2448 3432 
Q 2725 3281 2906 2969 
z
M 947 1747 
Q 947 1113 1208 752 
Q 1469 391 1925 391 
Q 2381 391 2643 752 
Q 2906 1113 2906 1747 
Q 2906 2381 2643 2742 
Q 2381 3103 1925 3103 
Q 1469 3103 1208 2742 
Q 947 2381 947 1747 
z
" transform="scale(0.015625)"/>
        <path id="DejaVuSans-4a" d="M 2906 1791 
Q 2906 2416 2648 2759 
Q 2391 3103 1925 3103 
Q 1463 3103 1205 2759 
Q 947 2416 947 1791 
Q 947 1169 1205 825 
Q 1463 481 1925 481 
Q 2391 481 2648 825 
Q 2906 1169 2906 1791 
z
M 3481 434 
Q 3481 -459 3084 -895 
Q 2688 -1331 1869 -1331 
Q 1566 -1331 1297 -1286 
Q 1028 -1241 775 -1147 
L 775 -588 
Q 1028 -725 1275 -790 
Q 1522 -856 1778 -856 
Q 2344 -856 2625 -561 
Q 2906 -266 2906 331 
L 2906 616 
Q 2728 306 2450 153 
Q 2172 0 1784 0 
Q 1141 0 747 490 
Q 353 981 353 1791 
Q 353 2603 747 3093 
Q 1141 3584 1784 3584 
Q 2172 3584 2450 3431 
Q 2728 3278 2906 2969 
L 2906 3500 
L 3481 3500 
L 3481 434 
z
" transform="scale(0.015625)"/>
       </defs>
       <use xlink:href="#DejaVuSans-34"/>
       <use xlink:href="#DejaVuSans-36" transform="translate(78.71875 0)"/>
       <use xlink:href="#DejaVuSans-24" transform="translate(144.0625 0)"/>
       <use xlink:href="#DejaVuSans-35" transform="translate(212.46875 0)"/>
       <use xlink:href="#DejaVuSans-25" transform="translate(281.953125 0)"/>
       <use xlink:href="#DejaVuSans-4c" transform="translate(350.5625 0)"/>
       <use xlink:href="#DejaVuSans-52" transform="translate(378.34375 0)"/>
       <use xlink:href="#DejaVuSans-47" transform="translate(439.53125 0)"/>
       <use xlink:href="#DejaVuSans-48" transform="translate(503.015625 0)"/>
       <use xlink:href="#DejaVuSans-4a" transform="translate(564.546875 0)"/>
      </g>
     </g>
    </g>
    <g id="xtick_7">
     <g id="line2d_7">
      <g>
       <use xlink:href="#m27e0e701ce" x="898.156693" y="330.754702" style="stroke: #000000; stroke-width: 0.8"/>
      </g>
     </g>
     <g id="text_7">
      <!-- SpamBase -->
      <g transform="translate(855.128196 384.824204) rotate(-45) scale(0.11 -0.11)">
       <defs>
        <path id="DejaVuSans-50" d="M 3328 2828 
Q 3544 3216 3844 3400 
Q 4144 3584 4550 3584 
Q 5097 3584 5394 3201 
Q 5691 2819 5691 2113 
L 5691 0 
L 5113 0 
L 5113 2094 
Q 5113 2597 4934 2840 
Q 4756 3084 4391 3084 
Q 3944 3084 3684 2787 
Q 3425 2491 3425 1978 
L 3425 0 
L 2847 0 
L 2847 2094 
Q 2847 2600 2669 2842 
Q 2491 3084 2119 3084 
Q 1678 3084 1418 2786 
Q 1159 2488 1159 1978 
L 1159 0 
L 581 0 
L 581 3500 
L 1159 3500 
L 1159 2956 
Q 1356 3278 1631 3431 
Q 1906 3584 2284 3584 
Q 2666 3584 2933 3390 
Q 3200 3197 3328 2828 
z
" transform="scale(0.015625)"/>
       </defs>
       <use xlink:href="#DejaVuSans-36"/>
       <use xlink:href="#DejaVuSans-53" transform="translate(63.484375 0)"/>
       <use xlink:href="#DejaVuSans-44" transform="translate(126.96875 0)"/>
       <use xlink:href="#DejaVuSans-50" transform="translate(188.25 0)"/>
       <use xlink:href="#DejaVuSans-25" transform="translate(285.65625 0)"/>
       <use xlink:href="#DejaVuSans-44" transform="translate(354.265625 0)"/>
       <use xlink:href="#DejaVuSans-56" transform="translate(415.546875 0)"/>
       <use xlink:href="#DejaVuSans-48" transform="translate(467.640625 0)"/>
      </g>
     </g>
    </g>
    <g id="text_8">
     <!-- Dataset -->
     <g transform="translate(497.951523 414.69989) scale(0.13 -0.13)">
      <use xlink:href="#DejaVuSans-27"/>
      <use xlink:href="#DejaVuSans-44" transform="translate(77 0)"/>
      <use xlink:href="#DejaVuSans-57" transform="translate(138.28125 0)"/>
      <use xlink:href="#DejaVuSans-44" transform="translate(177.484375 0)"/>
      <use xlink:href="#DejaVuSans-56" transform="translate(238.765625 0)"/>
      <use xlink:href="#DejaVuSans-48" transform="translate(290.859375 0)"/>
      <use xlink:href="#DejaVuSans-57" transform="translate(352.390625 0)"/>
     </g>
    </g>
   </g>
   <g id="matplotlib.axis_2">
    <g id="ytick_1">
     <g id="line2d_8">
      <path d="M 53.466641 330.754702 
L 993.343594 330.754702 
" clip-path="url(#p07e45be1fb)" style="fill: none; stroke-dasharray: 1.85,0.8; stroke-dashoffset: 0; stroke: #b0b0b0; stroke-opacity: 0.7; stroke-width: 0.5"/>
     </g>
     <g id="line2d_9">
      <defs>
       <path id="m34f2d3f3fa" d="M 0 0 
L -3.5 0 
" style="stroke: #000000; stroke-width: 0.8"/>
      </defs>
      <g>
       <use xlink:href="#m34f2d3f3fa" x="53.466641" y="330.754702" style="stroke: #000000; stroke-width: 0.8"/>
      </g>
     </g>
     <g id="text_9">
      <!-- 0.00 -->
      <g transform="translate(24.201016 334.55353) scale(0.1 -0.1)">
       <defs>
        <path id="DejaVuSans-13" d="M 2034 4250 
Q 1547 4250 1301 3770 
Q 1056 3291 1056 2328 
Q 1056 1369 1301 889 
Q 1547 409 2034 409 
Q 2525 409 2770 889 
Q 3016 1369 3016 2328 
Q 3016 3291 2770 3770 
Q 2525 4250 2034 4250 
z
M 2034 4750 
Q 2819 4750 3233 4129 
Q 3647 3509 3647 2328 
Q 3647 1150 3233 529 
Q 2819 -91 2034 -91 
Q 1250 -91 836 529 
Q 422 1150 422 2328 
Q 422 3509 836 4129 
Q 1250 4750 2034 4750 
z
" transform="scale(0.015625)"/>
        <path id="DejaVuSans-11" d="M 684 794 
L 1344 794 
L 1344 0 
L 684 0 
L 684 794 
z
" transform="scale(0.015625)"/>
       </defs>
       <use xlink:href="#DejaVuSans-13"/>
       <use xlink:href="#DejaVuSans-11" transform="translate(63.625 0)"/>
       <use xlink:href="#DejaVuSans-13" transform="translate(95.40625 0)"/>
       <use xlink:href="#DejaVuSans-13" transform="translate(159.03125 0)"/>
      </g>
     </g>
    </g>
    <g id="ytick_2">
     <g id="line2d_10">
      <path d="M 53.466641 296.288748 
L 993.343594 296.288748 
" clip-path="url(#p07e45be1fb)" style="fill: none; stroke-dasharray: 1.85,0.8; stroke-dashoffset: 0; stroke: #b0b0b0; stroke-opacity: 0.7; stroke-width: 0.5"/>
     </g>
     <g id="line2d_11">
      <g>
       <use xlink:href="#m34f2d3f3fa" x="53.466641" y="296.288748" style="stroke: #000000; stroke-width: 0.8"/>
      </g>
     </g>
     <g id="text_10">
      <!-- 0.25 -->
      <g transform="translate(24.201016 300.087576) scale(0.1 -0.1)">
       <defs>
        <path id="DejaVuSans-18" d="M 691 4666 
L 3169 4666 
L 3169 4134 
L 1269 4134 
L 1269 2991 
Q 1406 3038 1543 3061 
Q 1681 3084 1819 3084 
Q 2600 3084 3056 2656 
Q 3513 2228 3513 1497 
Q 3513 744 3044 326 
Q 2575 -91 1722 -91 
Q 1428 -91 1123 -41 
Q 819 9 494 109 
L 494 744 
Q 775 591 1075 516 
Q 1375 441 1709 441 
Q 2250 441 2565 725 
Q 2881 1009 2881 1497 
Q 2881 1984 2565 2268 
Q 2250 2553 1709 2553 
Q 1456 2553 1204 2497 
Q 953 2441 691 2322 
L 691 4666 
z
" transform="scale(0.015625)"/>
       </defs>
       <use xlink:href="#DejaVuSans-13"/>
       <use xlink:href="#DejaVuSans-11" transform="translate(63.625 0)"/>
       <use xlink:href="#DejaVuSans-15" transform="translate(95.40625 0)"/>
       <use xlink:href="#DejaVuSans-18" transform="translate(159.03125 0)"/>
      </g>
     </g>
    </g>
    <g id="ytick_3">
     <g id="line2d_12">
      <path d="M 53.466641 261.822794 
L 993.343594 261.822794 
" clip-path="url(#p07e45be1fb)" style="fill: none; stroke-dasharray: 1.85,0.8; stroke-dashoffset: 0; stroke: #b0b0b0; stroke-opacity: 0.7; stroke-width: 0.5"/>
     </g>
     <g id="line2d_13">
      <g>
       <use xlink:href="#m34f2d3f3fa" x="53.466641" y="261.822794" style="stroke: #000000; stroke-width: 0.8"/>
      </g>
     </g>
     <g id="text_11">
      <!-- 0.50 -->
      <g transform="translate(24.201016 265.621622) scale(0.1 -0.1)">
       <use xlink:href="#DejaVuSans-13"/>
       <use xlink:href="#DejaVuSans-11" transform="translate(63.625 0)"/>
       <use xlink:href="#DejaVuSans-18" transform="translate(95.40625 0)"/>
       <use xlink:href="#DejaVuSans-13" transform="translate(159.03125 0)"/>
      </g>
     </g>
    </g>
    <g id="ytick_4">
     <g id="line2d_14">
      <path d="M 53.466641 227.35684 
L 993.343594 227.35684 
" clip-path="url(#p07e45be1fb)" style="fill: none; stroke-dasharray: 1.85,0.8; stroke-dashoffset: 0; stroke: #b0b0b0; stroke-opacity: 0.7; stroke-width: 0.5"/>
     </g>
     <g id="line2d_15">
      <g>
       <use xlink:href="#m34f2d3f3fa" x="53.466641" y="227.35684" style="stroke: #000000; stroke-width: 0.8"/>
      </g>
     </g>
     <g id="text_12">
      <!-- 0.75 -->
      <g transform="translate(24.201016 231.155668) scale(0.1 -0.1)">
       <defs>
        <path id="DejaVuSans-1a" d="M 525 4666 
L 3525 4666 
L 3525 4397 
L 1831 0 
L 1172 0 
L 2766 4134 
L 525 4134 
L 525 4666 
z
" transform="scale(0.015625)"/>
       </defs>
       <use xlink:href="#DejaVuSans-13"/>
       <use xlink:href="#DejaVuSans-11" transform="translate(63.625 0)"/>
       <use xlink:href="#DejaVuSans-1a" transform="translate(95.40625 0)"/>
       <use xlink:href="#DejaVuSans-18" transform="translate(159.03125 0)"/>
      </g>
     </g>
    </g>
    <g id="ytick_5">
     <g id="line2d_16">
      <path d="M 53.466641 192.890886 
L 993.343594 192.890886 
" clip-path="url(#p07e45be1fb)" style="fill: none; stroke-dasharray: 1.85,0.8; stroke-dashoffset: 0; stroke: #b0b0b0; stroke-opacity: 0.7; stroke-width: 0.5"/>
     </g>
     <g id="line2d_17">
      <g>
       <use xlink:href="#m34f2d3f3fa" x="53.466641" y="192.890886" style="stroke: #000000; stroke-width: 0.8"/>
      </g>
     </g>
     <g id="text_13">
      <!-- 1.00 -->
      <g transform="translate(24.201016 196.689714) scale(0.1 -0.1)">
       <defs>
        <path id="DejaVuSans-14" d="M 794 531 
L 1825 531 
L 1825 4091 
L 703 3866 
L 703 4441 
L 1819 4666 
L 2450 4666 
L 2450 531 
L 3481 531 
L 3481 0 
L 794 0 
L 794 531 
z
" transform="scale(0.015625)"/>
       </defs>
       <use xlink:href="#DejaVuSans-14"/>
       <use xlink:href="#DejaVuSans-11" transform="translate(63.625 0)"/>
       <use xlink:href="#DejaVuSans-13" transform="translate(95.40625 0)"/>
       <use xlink:href="#DejaVuSans-13" transform="translate(159.03125 0)"/>
      </g>
     </g>
    </g>
    <g id="ytick_6">
     <g id="line2d_18">
      <path d="M 53.466641 158.424932 
L 993.343594 158.424932 
" clip-path="url(#p07e45be1fb)" style="fill: none; stroke-dasharray: 1.85,0.8; stroke-dashoffset: 0; stroke: #b0b0b0; stroke-opacity: 0.7; stroke-width: 0.5"/>
     </g>
     <g id="line2d_19">
      <g>
       <use xlink:href="#m34f2d3f3fa" x="53.466641" y="158.424932" style="stroke: #000000; stroke-width: 0.8"/>
      </g>
     </g>
     <g id="text_14">
      <!-- 1.25 -->
      <g transform="translate(24.201016 162.22376) scale(0.1 -0.1)">
       <use xlink:href="#DejaVuSans-14"/>
       <use xlink:href="#DejaVuSans-11" transform="translate(63.625 0)"/>
       <use xlink:href="#DejaVuSans-15" transform="translate(95.40625 0)"/>
       <use xlink:href="#DejaVuSans-18" transform="translate(159.03125 0)"/>
      </g>
     </g>
    </g>
    <g id="ytick_7">
     <g id="line2d_20">
      <path d="M 53.466641 123.958978 
L 993.343594 123.958978 
" clip-path="url(#p07e45be1fb)" style="fill: none; stroke-dasharray: 1.85,0.8; stroke-dashoffset: 0; stroke: #b0b0b0; stroke-opacity: 0.7; stroke-width: 0.5"/>
     </g>
     <g id="line2d_21">
      <g>
       <use xlink:href="#m34f2d3f3fa" x="53.466641" y="123.958978" style="stroke: #000000; stroke-width: 0.8"/>
      </g>
     </g>
     <g id="text_15">
      <!-- 1.50 -->
      <g transform="translate(24.201016 127.757806) scale(0.1 -0.1)">
       <use xlink:href="#DejaVuSans-14"/>
       <use xlink:href="#DejaVuSans-11" transform="translate(63.625 0)"/>
       <use xlink:href="#DejaVuSans-18" transform="translate(95.40625 0)"/>
       <use xlink:href="#DejaVuSans-13" transform="translate(159.03125 0)"/>
      </g>
     </g>
    </g>
    <g id="ytick_8">
     <g id="line2d_22">
      <path d="M 53.466641 89.493024 
L 993.343594 89.493024 
" clip-path="url(#p07e45be1fb)" style="fill: none; stroke-dasharray: 1.85,0.8; stroke-dashoffset: 0; stroke: #b0b0b0; stroke-opacity: 0.7; stroke-width: 0.5"/>
     </g>
     <g id="line2d_23">
      <g>
       <use xlink:href="#m34f2d3f3fa" x="53.466641" y="89.493024" style="stroke: #000000; stroke-width: 0.8"/>
      </g>
     </g>
     <g id="text_16">
      <!-- 1.75 -->
      <g transform="translate(24.201016 93.291852) scale(0.1 -0.1)">
       <use xlink:href="#DejaVuSans-14"/>
       <use xlink:href="#DejaVuSans-11" transform="translate(63.625 0)"/>
       <use xlink:href="#DejaVuSans-1a" transform="translate(95.40625 0)"/>
       <use xlink:href="#DejaVuSans-18" transform="translate(159.03125 0)"/>
      </g>
     </g>
    </g>
    <g id="ytick_9">
     <g id="line2d_24">
      <path d="M 53.466641 55.02707 
L 993.343594 55.02707 
" clip-path="url(#p07e45be1fb)" style="fill: none; stroke-dasharray: 1.85,0.8; stroke-dashoffset: 0; stroke: #b0b0b0; stroke-opacity: 0.7; stroke-width: 0.5"/>
     </g>
     <g id="line2d_25">
      <g>
       <use xlink:href="#m34f2d3f3fa" x="53.466641" y="55.02707" style="stroke: #000000; stroke-width: 0.8"/>
      </g>
     </g>
     <g id="text_17">
      <!-- 2.00 -->
      <g transform="translate(24.201016 58.825898) scale(0.1 -0.1)">
       <use xlink:href="#DejaVuSans-15"/>
       <use xlink:href="#DejaVuSans-11" transform="translate(63.625 0)"/>
       <use xlink:href="#DejaVuSans-13" transform="translate(95.40625 0)"/>
       <use xlink:href="#DejaVuSans-13" transform="translate(159.03125 0)"/>
      </g>
     </g>
    </g>
    <g id="text_18">
     <!-- Inference Time (ms) -->
     <g transform="translate(17.077969 243.429851) rotate(-90) scale(0.13 -0.13)">
      <defs>
       <path id="DejaVuSans-49" d="M 2375 4863 
L 2375 4384 
L 1825 4384 
Q 1516 4384 1395 4259 
Q 1275 4134 1275 3809 
L 1275 3500 
L 2222 3500 
L 2222 3053 
L 1275 3053 
L 1275 0 
L 697 0 
L 697 3053 
L 147 3053 
L 147 3500 
L 697 3500 
L 697 3744 
Q 697 4328 969 4595 
Q 1241 4863 1831 4863 
L 2375 4863 
z
" transform="scale(0.015625)"/>
       <path id="DejaVuSans-3" transform="scale(0.015625)"/>
       <path id="DejaVuSans-37" d="M -19 4666 
L 3928 4666 
L 3928 4134 
L 2272 4134 
L 2272 0 
L 1638 0 
L 1638 4134 
L -19 4134 
L -19 4666 
z
" transform="scale(0.015625)"/>
       <path id="DejaVuSans-b" d="M 1984 4856 
Q 1566 4138 1362 3434 
Q 1159 2731 1159 2009 
Q 1159 1288 1364 580 
Q 1569 -128 1984 -844 
L 1484 -844 
Q 1016 -109 783 600 
Q 550 1309 550 2009 
Q 550 2706 781 3412 
Q 1013 4119 1484 4856 
L 1984 4856 
z
" transform="scale(0.015625)"/>
       <path id="DejaVuSans-c" d="M 513 4856 
L 1013 4856 
Q 1481 4119 1714 3412 
Q 1947 2706 1947 2009 
Q 1947 1309 1714 600 
Q 1481 -109 1013 -844 
L 513 -844 
Q 928 -128 1133 580 
Q 1338 1288 1338 2009 
Q 1338 2731 1133 3434 
Q 928 4138 513 4856 
z
" transform="scale(0.015625)"/>
      </defs>
      <use xlink:href="#DejaVuSans-2c"/>
      <use xlink:href="#DejaVuSans-51" transform="translate(29.5 0)"/>
      <use xlink:href="#DejaVuSans-49" transform="translate(92.875 0)"/>
      <use xlink:href="#DejaVuSans-48" transform="translate(128.078125 0)"/>
      <use xlink:href="#DejaVuSans-55" transform="translate(189.609375 0)"/>
      <use xlink:href="#DejaVuSans-48" transform="translate(228.515625 0)"/>
      <use xlink:href="#DejaVuSans-51" transform="translate(290.046875 0)"/>
      <use xlink:href="#DejaVuSans-46" transform="translate(353.421875 0)"/>
      <use xlink:href="#DejaVuSans-48" transform="translate(408.40625 0)"/>
      <use xlink:href="#DejaVuSans-3" transform="translate(469.9375 0)"/>
      <use xlink:href="#DejaVuSans-37" transform="translate(501.71875 0)"/>
      <use xlink:href="#DejaVuSans-4c" transform="translate(559.71875 0)"/>
      <use xlink:href="#DejaVuSans-50" transform="translate(587.5 0)"/>
      <use xlink:href="#DejaVuSans-48" transform="translate(684.90625 0)"/>
      <use xlink:href="#DejaVuSans-3" transform="translate(746.4375 0)"/>
      <use xlink:href="#DejaVuSans-b" transform="translate(778.21875 0)"/>
      <use xlink:href="#DejaVuSans-50" transform="translate(817.234375 0)"/>
      <use xlink:href="#DejaVuSans-56" transform="translate(914.640625 0)"/>
      <use xlink:href="#DejaVuSans-c" transform="translate(966.734375 0)"/>
     </g>
    </g>
   </g>
   <g id="patch_3">
    <path d="M 96.18832 330.754702 
L 111.178383 330.754702 
L 111.178383 324.625677 
L 96.18832 324.625677 
z
" clip-path="url(#p07e45be1fb)" style="fill: #2f4f4f; stroke: #000000; stroke-width: 0.5; stroke-linejoin: miter"/>
   </g>
   <g id="patch_4">
    <path d="M 221.105512 330.754702 
L 236.095575 330.754702 
L 236.095575 324.858101 
L 221.105512 324.858101 
z
" clip-path="url(#p07e45be1fb)" style="fill: #2f4f4f; stroke: #000000; stroke-width: 0.5; stroke-linejoin: miter"/>
   </g>
   <g id="patch_5">
    <path d="M 346.022704 330.754702 
L 361.012767 330.754702 
L 361.012767 325.060789 
L 346.022704 325.060789 
z
" clip-path="url(#p07e45be1fb)" style="fill: #2f4f4f; stroke: #000000; stroke-width: 0.5; stroke-linejoin: miter"/>
   </g>
   <g id="patch_6">
    <path d="M 470.939897 330.754702 
L 485.92996 330.754702 
L 485.92996 324.825827 
L 470.939897 324.825827 
z
" clip-path="url(#p07e45be1fb)" style="fill: #2f4f4f; stroke: #000000; stroke-width: 0.5; stroke-linejoin: miter"/>
   </g>
   <g id="patch_7">
    <path d="M 595.857089 330.754702 
L 610.847152 330.754702 
L 610.847152 324.668001 
L 595.857089 324.668001 
z
" clip-path="url(#p07e45be1fb)" style="fill: #2f4f4f; stroke: #000000; stroke-width: 0.5; stroke-linejoin: miter"/>
   </g>
   <g id="patch_8">
    <path d="M 720.774281 330.754702 
L 735.764344 330.754702 
L 735.764344 324.109198 
L 720.774281 324.109198 
z
" clip-path="url(#p07e45be1fb)" style="fill: #2f4f4f; stroke: #000000; stroke-width: 0.5; stroke-linejoin: miter"/>
   </g>
   <g id="patch_9">
    <path d="M 845.691473 330.754702 
L 860.681536 330.754702 
L 860.681536 318.756304 
L 845.691473 318.756304 
z
" clip-path="url(#p07e45be1fb)" style="fill: #2f4f4f; stroke: #000000; stroke-width: 0.5; stroke-linejoin: miter"/>
   </g>
   <g id="patch_10">
    <path d="M 111.178383 330.754702 
L 126.168446 330.754702 
L 126.168446 324.647377 
L 111.178383 324.647377 
z
" clip-path="url(#p07e45be1fb)" style="fill: #007377; stroke: #000000; stroke-width: 0.5; stroke-linejoin: miter"/>
   </g>
   <g id="patch_11">
    <path d="M 236.095575 330.754702 
L 251.085638 330.754702 
L 251.085638 324.888183 
L 236.095575 324.888183 
z
" clip-path="url(#p07e45be1fb)" style="fill: #007377; stroke: #000000; stroke-width: 0.5; stroke-linejoin: miter"/>
   </g>
   <g id="patch_12">
    <path d="M 361.012767 330.754702 
L 376.002831 330.754702 
L 376.002831 325.079483 
L 361.012767 325.079483 
z
" clip-path="url(#p07e45be1fb)" style="fill: #007377; stroke: #000000; stroke-width: 0.5; stroke-linejoin: miter"/>
   </g>
   <g id="patch_13">
    <path d="M 485.92996 330.754702 
L 500.920023 330.754702 
L 500.920023 324.867876 
L 485.92996 324.867876 
z
" clip-path="url(#p07e45be1fb)" style="fill: #007377; stroke: #000000; stroke-width: 0.5; stroke-linejoin: miter"/>
   </g>
   <g id="patch_14">
    <path d="M 610.847152 330.754702 
L 625.837215 330.754702 
L 625.837215 324.804224 
L 610.847152 324.804224 
z
" clip-path="url(#p07e45be1fb)" style="fill: #007377; stroke: #000000; stroke-width: 0.5; stroke-linejoin: miter"/>
   </g>
   <g id="patch_15">
    <path d="M 735.764344 330.754702 
L 750.754407 330.754702 
L 750.754407 324.281403 
L 735.764344 324.281403 
z
" clip-path="url(#p07e45be1fb)" style="fill: #007377; stroke: #000000; stroke-width: 0.5; stroke-linejoin: miter"/>
   </g>
   <g id="patch_16">
    <path d="M 860.681536 330.754702 
L 875.671599 330.754702 
L 875.671599 320.175419 
L 860.681536 320.175419 
z
" clip-path="url(#p07e45be1fb)" style="fill: #007377; stroke: #000000; stroke-width: 0.5; stroke-linejoin: miter"/>
   </g>
   <g id="patch_17">
    <path d="M 126.168446 330.754702 
L 141.158509 330.754702 
L 141.158509 324.606955 
L 126.168446 324.606955 
z
" clip-path="url(#p07e45be1fb)" style="fill: #8b0000; stroke: #000000; stroke-width: 0.5; stroke-linejoin: miter"/>
   </g>
   <g id="patch_18">
    <path d="M 251.085638 330.754702 
L 266.075702 330.754702 
L 266.075702 324.814536 
L 251.085638 324.814536 
z
" clip-path="url(#p07e45be1fb)" style="fill: #8b0000; stroke: #000000; stroke-width: 0.5; stroke-linejoin: miter"/>
   </g>
   <g id="patch_19">
    <path d="M 376.002831 330.754702 
L 390.992894 330.754702 
L 390.992894 324.959748 
L 376.002831 324.959748 
z
" clip-path="url(#p07e45be1fb)" style="fill: #8b0000; stroke: #000000; stroke-width: 0.5; stroke-linejoin: miter"/>
   </g>
   <g id="patch_20">
    <path d="M 500.920023 330.754702 
L 515.910086 330.754702 
L 515.910086 324.711456 
L 500.920023 324.711456 
z
" clip-path="url(#p07e45be1fb)" style="fill: #8b0000; stroke: #000000; stroke-width: 0.5; stroke-linejoin: miter"/>
   </g>
   <g id="patch_21">
    <path d="M 625.837215 330.754702 
L 640.827278 330.754702 
L 640.827278 324.699999 
L 625.837215 324.699999 
z
" clip-path="url(#p07e45be1fb)" style="fill: #8b0000; stroke: #000000; stroke-width: 0.5; stroke-linejoin: miter"/>
   </g>
   <g id="patch_22">
    <path d="M 750.754407 330.754702 
L 765.74447 330.754702 
L 765.74447 324.294293 
L 750.754407 324.294293 
z
" clip-path="url(#p07e45be1fb)" style="fill: #8b0000; stroke: #000000; stroke-width: 0.5; stroke-linejoin: miter"/>
   </g>
   <g id="patch_23">
    <path d="M 875.671599 330.754702 
L 890.661662 330.754702 
L 890.661662 320.791064 
L 875.671599 320.791064 
z
" clip-path="url(#p07e45be1fb)" style="fill: #8b0000; stroke: #000000; stroke-width: 0.5; stroke-linejoin: miter"/>
   </g>
   <g id="patch_24">
    <path d="M 141.158509 330.754702 
L 156.148573 330.754702 
L 156.148573 324.561556 
L 141.158509 324.561556 
z
" clip-path="url(#p07e45be1fb)" style="fill: #b8860b; stroke: #000000; stroke-width: 0.5; stroke-linejoin: miter"/>
   </g>
   <g id="patch_25">
    <path d="M 266.075702 330.754702 
L 281.065765 330.754702 
L 281.065765 324.799523 
L 266.075702 324.799523 
z
" clip-path="url(#p07e45be1fb)" style="fill: #b8860b; stroke: #000000; stroke-width: 0.5; stroke-linejoin: miter"/>
   </g>
   <g id="patch_26">
    <path d="M 390.992894 330.754702 
L 405.982957 330.754702 
L 405.982957 324.956026 
L 390.992894 324.956026 
z
" clip-path="url(#p07e45be1fb)" style="fill: #b8860b; stroke: #000000; stroke-width: 0.5; stroke-linejoin: miter"/>
   </g>
   <g id="patch_27">
    <path d="M 515.910086 330.754702 
L 530.900149 330.754702 
L 530.900149 324.723132 
L 515.910086 324.723132 
z
" clip-path="url(#p07e45be1fb)" style="fill: #b8860b; stroke: #000000; stroke-width: 0.5; stroke-linejoin: miter"/>
   </g>
   <g id="patch_28">
    <path d="M 640.827278 330.754702 
L 655.817341 330.754702 
L 655.817341 324.716667 
L 640.827278 324.716667 
z
" clip-path="url(#p07e45be1fb)" style="fill: #b8860b; stroke: #000000; stroke-width: 0.5; stroke-linejoin: miter"/>
   </g>
   <g id="patch_29">
    <path d="M 765.74447 330.754702 
L 780.734533 330.754702 
L 780.734533 324.197499 
L 765.74447 324.197499 
z
" clip-path="url(#p07e45be1fb)" style="fill: #b8860b; stroke: #000000; stroke-width: 0.5; stroke-linejoin: miter"/>
   </g>
   <g id="patch_30">
    <path d="M 890.661662 330.754702 
L 905.651725 330.754702 
L 905.651725 320.598357 
L 890.661662 320.598357 
z
" clip-path="url(#p07e45be1fb)" style="fill: #b8860b; stroke: #000000; stroke-width: 0.5; stroke-linejoin: miter"/>
   </g>
   <g id="patch_31">
    <path d="M 156.148573 330.754702 
L 171.138636 330.754702 
L 171.138636 324.579575 
L 156.148573 324.579575 
z
" clip-path="url(#p07e45be1fb)" style="fill: #4b6c84; stroke: #000000; stroke-width: 0.5; stroke-linejoin: miter"/>
   </g>
   <g id="patch_32">
    <path d="M 281.065765 330.754702 
L 296.055828 330.754702 
L 296.055828 324.81375 
L 281.065765 324.81375 
z
" clip-path="url(#p07e45be1fb)" style="fill: #4b6c84; stroke: #000000; stroke-width: 0.5; stroke-linejoin: miter"/>
   </g>
   <g id="patch_33">
    <path d="M 405.982957 330.754702 
L 420.97302 330.754702 
L 420.97302 324.932037 
L 405.982957 324.932037 
z
" clip-path="url(#p07e45be1fb)" style="fill: #4b6c84; stroke: #000000; stroke-width: 0.5; stroke-linejoin: miter"/>
   </g>
   <g id="patch_34">
    <path d="M 530.900149 330.754702 
L 545.890212 330.754702 
L 545.890212 324.810676 
L 530.900149 324.810676 
z
" clip-path="url(#p07e45be1fb)" style="fill: #4b6c84; stroke: #000000; stroke-width: 0.5; stroke-linejoin: miter"/>
   </g>
   <g id="patch_35">
    <path d="M 655.817341 330.754702 
L 670.807404 330.754702 
L 670.807404 324.746859 
L 655.817341 324.746859 
z
" clip-path="url(#p07e45be1fb)" style="fill: #4b6c84; stroke: #000000; stroke-width: 0.5; stroke-linejoin: miter"/>
   </g>
   <g id="patch_36">
    <path d="M 780.734533 330.754702 
L 795.724596 330.754702 
L 795.724596 324.20748 
L 780.734533 324.20748 
z
" clip-path="url(#p07e45be1fb)" style="fill: #4b6c84; stroke: #000000; stroke-width: 0.5; stroke-linejoin: miter"/>
   </g>
   <g id="patch_37">
    <path d="M 905.651725 330.754702 
L 920.641788 330.754702 
L 920.641788 320.582407 
L 905.651725 320.582407 
z
" clip-path="url(#p07e45be1fb)" style="fill: #4b6c84; stroke: #000000; stroke-width: 0.5; stroke-linejoin: miter"/>
   </g>
   <g id="patch_38">
    <path d="M 171.138636 330.754702 
L 186.128699 330.754702 
L 186.128699 324.570407 
L 171.138636 324.570407 
z
" clip-path="url(#p07e45be1fb)" style="fill: #a0522d; stroke: #000000; stroke-width: 0.5; stroke-linejoin: miter"/>
   </g>
   <g id="patch_39">
    <path d="M 296.055828 330.754702 
L 311.045891 330.754702 
L 311.045891 324.811793 
L 296.055828 324.811793 
z
" clip-path="url(#p07e45be1fb)" style="fill: #a0522d; stroke: #000000; stroke-width: 0.5; stroke-linejoin: miter"/>
   </g>
   <g id="patch_40">
    <path d="M 420.97302 330.754702 
L 435.963083 330.754702 
L 435.963083 324.938228 
L 420.97302 324.938228 
z
" clip-path="url(#p07e45be1fb)" style="fill: #a0522d; stroke: #000000; stroke-width: 0.5; stroke-linejoin: miter"/>
   </g>
   <g id="patch_41">
    <path d="M 545.890212 330.754702 
L 560.880275 330.754702 
L 560.880275 324.743854 
L 545.890212 324.743854 
z
" clip-path="url(#p07e45be1fb)" style="fill: #a0522d; stroke: #000000; stroke-width: 0.5; stroke-linejoin: miter"/>
   </g>
   <g id="patch_42">
    <path d="M 670.807404 330.754702 
L 685.797467 330.754702 
L 685.797467 324.668608 
L 670.807404 324.668608 
z
" clip-path="url(#p07e45be1fb)" style="fill: #a0522d; stroke: #000000; stroke-width: 0.5; stroke-linejoin: miter"/>
   </g>
   <g id="patch_43">
    <path d="M 795.724596 330.754702 
L 810.714659 330.754702 
L 810.714659 324.217503 
L 795.724596 324.217503 
z
" clip-path="url(#p07e45be1fb)" style="fill: #a0522d; stroke: #000000; stroke-width: 0.5; stroke-linejoin: miter"/>
   </g>
   <g id="patch_44">
    <path d="M 920.641788 330.754702 
L 935.631851 330.754702 
L 935.631851 320.599033 
L 920.641788 320.599033 
z
" clip-path="url(#p07e45be1fb)" style="fill: #a0522d; stroke: #000000; stroke-width: 0.5; stroke-linejoin: miter"/>
   </g>
   <g id="patch_45">
    <path d="M 186.128699 330.754702 
L 201.118762 330.754702 
L 201.118762 285.071721 
L 186.128699 285.071721 
z
" clip-path="url(#p07e45be1fb)" style="fill: #556b2f; stroke: #000000; stroke-width: 0.5; stroke-linejoin: miter"/>
   </g>
   <g id="patch_46">
    <path d="M 311.045891 330.754702 
L 326.035954 330.754702 
L 326.035954 302.408289 
L 311.045891 302.408289 
z
" clip-path="url(#p07e45be1fb)" style="fill: #556b2f; stroke: #000000; stroke-width: 0.5; stroke-linejoin: miter"/>
   </g>
   <g id="patch_47">
    <path d="M 435.963083 330.754702 
L 450.953146 330.754702 
L 450.953146 313.578539 
L 435.963083 313.578539 
z
" clip-path="url(#p07e45be1fb)" style="fill: #556b2f; stroke: #000000; stroke-width: 0.5; stroke-linejoin: miter"/>
   </g>
   <g id="patch_48">
    <path d="M 560.880275 330.754702 
L 575.870338 330.754702 
L 575.870338 309.725907 
L 560.880275 309.725907 
z
" clip-path="url(#p07e45be1fb)" style="fill: #556b2f; stroke: #000000; stroke-width: 0.5; stroke-linejoin: miter"/>
   </g>
   <g id="patch_49">
    <path d="M 685.797467 330.754702 
L 700.78753 330.754702 
L 700.78753 306.055186 
L 685.797467 306.055186 
z
" clip-path="url(#p07e45be1fb)" style="fill: #556b2f; stroke: #000000; stroke-width: 0.5; stroke-linejoin: miter"/>
   </g>
   <g id="patch_50">
    <path d="M 810.714659 330.754702 
L 825.704722 330.754702 
L 825.704722 297.044449 
L 810.714659 297.044449 
z
" clip-path="url(#p07e45be1fb)" style="fill: #556b2f; stroke: #000000; stroke-width: 0.5; stroke-linejoin: miter"/>
   </g>
   <g id="patch_51">
    <path d="M 935.631851 330.754702 
L 950.621914 330.754702 
L 950.621914 74.343666 
L 935.631851 74.343666 
z
" clip-path="url(#p07e45be1fb)" style="fill: #556b2f; stroke: #000000; stroke-width: 0.5; stroke-linejoin: miter"/>
   </g>
   <g id="LineCollection_1">
    <path d="M 103.683352 327.472889 
L 103.683352 321.778465 
" clip-path="url(#p07e45be1fb)" style="fill: none; stroke: #000000; stroke-width: 1.5"/>
    <path d="M 228.600544 327.591889 
L 228.600544 322.124313 
" clip-path="url(#p07e45be1fb)" style="fill: none; stroke: #000000; stroke-width: 1.5"/>
    <path d="M 353.517736 327.92785 
L 353.517736 322.193727 
" clip-path="url(#p07e45be1fb)" style="fill: none; stroke: #000000; stroke-width: 1.5"/>
    <path d="M 478.434928 327.713361 
L 478.434928 321.938294 
" clip-path="url(#p07e45be1fb)" style="fill: none; stroke: #000000; stroke-width: 1.5"/>
    <path d="M 603.35212 327.440858 
L 603.35212 321.895143 
" clip-path="url(#p07e45be1fb)" style="fill: none; stroke: #000000; stroke-width: 1.5"/>
    <path d="M 728.269312 327.124747 
L 728.269312 321.093649 
" clip-path="url(#p07e45be1fb)" style="fill: none; stroke: #000000; stroke-width: 1.5"/>
    <path d="M 853.186504 322.864613 
L 853.186504 314.647995 
" clip-path="url(#p07e45be1fb)" style="fill: none; stroke: #000000; stroke-width: 1.5"/>
   </g>
   <g id="line2d_26">
    <defs>
     <path id="m6e24d4d856" d="M 4 0 
L -4 -0 
" style="stroke: #000000"/>
    </defs>
    <g clip-path="url(#p07e45be1fb)">
     <use xlink:href="#m6e24d4d856" x="103.683352" y="327.472889" style="fill: #1f77b4; stroke: #000000"/>
     <use xlink:href="#m6e24d4d856" x="228.600544" y="327.591889" style="fill: #1f77b4; stroke: #000000"/>
     <use xlink:href="#m6e24d4d856" x="353.517736" y="327.92785" style="fill: #1f77b4; stroke: #000000"/>
     <use xlink:href="#m6e24d4d856" x="478.434928" y="327.713361" style="fill: #1f77b4; stroke: #000000"/>
     <use xlink:href="#m6e24d4d856" x="603.35212" y="327.440858" style="fill: #1f77b4; stroke: #000000"/>
     <use xlink:href="#m6e24d4d856" x="728.269312" y="327.124747" style="fill: #1f77b4; stroke: #000000"/>
     <use xlink:href="#m6e24d4d856" x="853.186504" y="322.864613" style="fill: #1f77b4; stroke: #000000"/>
    </g>
   </g>
   <g id="line2d_27">
    <g clip-path="url(#p07e45be1fb)">
     <use xlink:href="#m6e24d4d856" x="103.683352" y="321.778465" style="fill: #1f77b4; stroke: #000000"/>
     <use xlink:href="#m6e24d4d856" x="228.600544" y="322.124313" style="fill: #1f77b4; stroke: #000000"/>
     <use xlink:href="#m6e24d4d856" x="353.517736" y="322.193727" style="fill: #1f77b4; stroke: #000000"/>
     <use xlink:href="#m6e24d4d856" x="478.434928" y="321.938294" style="fill: #1f77b4; stroke: #000000"/>
     <use xlink:href="#m6e24d4d856" x="603.35212" y="321.895143" style="fill: #1f77b4; stroke: #000000"/>
     <use xlink:href="#m6e24d4d856" x="728.269312" y="321.093649" style="fill: #1f77b4; stroke: #000000"/>
     <use xlink:href="#m6e24d4d856" x="853.186504" y="314.647995" style="fill: #1f77b4; stroke: #000000"/>
    </g>
   </g>
   <g id="LineCollection_2">
    <path d="M 118.673415 327.629634 
L 118.673415 321.665119 
" clip-path="url(#p07e45be1fb)" style="fill: none; stroke: #000000; stroke-width: 1.5"/>
    <path d="M 243.590607 327.832437 
L 243.590607 321.943929 
" clip-path="url(#p07e45be1fb)" style="fill: none; stroke: #000000; stroke-width: 1.5"/>
    <path d="M 368.507799 327.785855 
L 368.507799 322.373111 
" clip-path="url(#p07e45be1fb)" style="fill: none; stroke: #000000; stroke-width: 1.5"/>
    <path d="M 493.424991 327.681843 
L 493.424991 322.053909 
" clip-path="url(#p07e45be1fb)" style="fill: none; stroke: #000000; stroke-width: 1.5"/>
    <path d="M 618.342183 327.663307 
L 618.342183 321.945142 
" clip-path="url(#p07e45be1fb)" style="fill: none; stroke: #000000; stroke-width: 1.5"/>
    <path d="M 743.259375 327.222635 
L 743.259375 321.340171 
" clip-path="url(#p07e45be1fb)" style="fill: none; stroke: #000000; stroke-width: 1.5"/>
    <path d="M 868.176567 324.1071 
L 868.176567 316.243738 
" clip-path="url(#p07e45be1fb)" style="fill: none; stroke: #000000; stroke-width: 1.5"/>
   </g>
   <g id="line2d_28">
    <g clip-path="url(#p07e45be1fb)">
     <use xlink:href="#m6e24d4d856" x="118.673415" y="327.629634" style="fill: #1f77b4; stroke: #000000"/>
     <use xlink:href="#m6e24d4d856" x="243.590607" y="327.832437" style="fill: #1f77b4; stroke: #000000"/>
     <use xlink:href="#m6e24d4d856" x="368.507799" y="327.785855" style="fill: #1f77b4; stroke: #000000"/>
     <use xlink:href="#m6e24d4d856" x="493.424991" y="327.681843" style="fill: #1f77b4; stroke: #000000"/>
     <use xlink:href="#m6e24d4d856" x="618.342183" y="327.663307" style="fill: #1f77b4; stroke: #000000"/>
     <use xlink:href="#m6e24d4d856" x="743.259375" y="327.222635" style="fill: #1f77b4; stroke: #000000"/>
     <use xlink:href="#m6e24d4d856" x="868.176567" y="324.1071" style="fill: #1f77b4; stroke: #000000"/>
    </g>
   </g>
   <g id="line2d_29">
    <g clip-path="url(#p07e45be1fb)">
     <use xlink:href="#m6e24d4d856" x="118.673415" y="321.665119" style="fill: #1f77b4; stroke: #000000"/>
     <use xlink:href="#m6e24d4d856" x="243.590607" y="321.943929" style="fill: #1f77b4; stroke: #000000"/>
     <use xlink:href="#m6e24d4d856" x="368.507799" y="322.373111" style="fill: #1f77b4; stroke: #000000"/>
     <use xlink:href="#m6e24d4d856" x="493.424991" y="322.053909" style="fill: #1f77b4; stroke: #000000"/>
     <use xlink:href="#m6e24d4d856" x="618.342183" y="321.945142" style="fill: #1f77b4; stroke: #000000"/>
     <use xlink:href="#m6e24d4d856" x="743.259375" y="321.340171" style="fill: #1f77b4; stroke: #000000"/>
     <use xlink:href="#m6e24d4d856" x="868.176567" y="316.243738" style="fill: #1f77b4; stroke: #000000"/>
    </g>
   </g>
   <g id="LineCollection_3">
    <path d="M 133.663478 327.296916 
L 133.663478 321.916993 
" clip-path="url(#p07e45be1fb)" style="fill: none; stroke: #000000; stroke-width: 1.5"/>
    <path d="M 258.58067 327.301175 
L 258.58067 322.327898 
" clip-path="url(#p07e45be1fb)" style="fill: none; stroke: #000000; stroke-width: 1.5"/>
    <path d="M 383.497862 327.512622 
L 383.497862 322.406874 
" clip-path="url(#p07e45be1fb)" style="fill: none; stroke: #000000; stroke-width: 1.5"/>
    <path d="M 508.415054 327.32466 
L 508.415054 322.098252 
" clip-path="url(#p07e45be1fb)" style="fill: none; stroke: #000000; stroke-width: 1.5"/>
    <path d="M 633.332246 327.404704 
L 633.332246 321.995294 
" clip-path="url(#p07e45be1fb)" style="fill: none; stroke: #000000; stroke-width: 1.5"/>
    <path d="M 758.249438 327.247937 
L 758.249438 321.34065 
" clip-path="url(#p07e45be1fb)" style="fill: none; stroke: #000000; stroke-width: 1.5"/>
    <path d="M 883.16663 324.231865 
L 883.16663 317.350262 
" clip-path="url(#p07e45be1fb)" style="fill: none; stroke: #000000; stroke-width: 1.5"/>
   </g>
   <g id="line2d_30">
    <g clip-path="url(#p07e45be1fb)">
     <use xlink:href="#m6e24d4d856" x="133.663478" y="327.296916" style="fill: #1f77b4; stroke: #000000"/>
     <use xlink:href="#m6e24d4d856" x="258.58067" y="327.301175" style="fill: #1f77b4; stroke: #000000"/>
     <use xlink:href="#m6e24d4d856" x="383.497862" y="327.512622" style="fill: #1f77b4; stroke: #000000"/>
     <use xlink:href="#m6e24d4d856" x="508.415054" y="327.32466" style="fill: #1f77b4; stroke: #000000"/>
     <use xlink:href="#m6e24d4d856" x="633.332246" y="327.404704" style="fill: #1f77b4; stroke: #000000"/>
     <use xlink:href="#m6e24d4d856" x="758.249438" y="327.247937" style="fill: #1f77b4; stroke: #000000"/>
     <use xlink:href="#m6e24d4d856" x="883.16663" y="324.231865" style="fill: #1f77b4; stroke: #000000"/>
    </g>
   </g>
   <g id="line2d_31">
    <g clip-path="url(#p07e45be1fb)">
     <use xlink:href="#m6e24d4d856" x="133.663478" y="321.916993" style="fill: #1f77b4; stroke: #000000"/>
     <use xlink:href="#m6e24d4d856" x="258.58067" y="322.327898" style="fill: #1f77b4; stroke: #000000"/>
     <use xlink:href="#m6e24d4d856" x="383.497862" y="322.406874" style="fill: #1f77b4; stroke: #000000"/>
     <use xlink:href="#m6e24d4d856" x="508.415054" y="322.098252" style="fill: #1f77b4; stroke: #000000"/>
     <use xlink:href="#m6e24d4d856" x="633.332246" y="321.995294" style="fill: #1f77b4; stroke: #000000"/>
     <use xlink:href="#m6e24d4d856" x="758.249438" y="321.34065" style="fill: #1f77b4; stroke: #000000"/>
     <use xlink:href="#m6e24d4d856" x="883.16663" y="317.350262" style="fill: #1f77b4; stroke: #000000"/>
    </g>
   </g>
   <g id="LineCollection_4">
    <path d="M 148.653541 327.543744 
L 148.653541 321.579368 
" clip-path="url(#p07e45be1fb)" style="fill: none; stroke: #000000; stroke-width: 1.5"/>
    <path d="M 273.570733 327.322961 
L 273.570733 322.276085 
" clip-path="url(#p07e45be1fb)" style="fill: none; stroke: #000000; stroke-width: 1.5"/>
    <path d="M 398.487925 327.649074 
L 398.487925 322.262977 
" clip-path="url(#p07e45be1fb)" style="fill: none; stroke: #000000; stroke-width: 1.5"/>
    <path d="M 523.405117 327.541191 
L 523.405117 321.905074 
" clip-path="url(#p07e45be1fb)" style="fill: none; stroke: #000000; stroke-width: 1.5"/>
    <path d="M 648.322309 327.256503 
L 648.322309 322.17683 
" clip-path="url(#p07e45be1fb)" style="fill: none; stroke: #000000; stroke-width: 1.5"/>
    <path d="M 773.239501 327.122508 
L 773.239501 321.272491 
" clip-path="url(#p07e45be1fb)" style="fill: none; stroke: #000000; stroke-width: 1.5"/>
    <path d="M 898.156693 323.922468 
L 898.156693 317.274246 
" clip-path="url(#p07e45be1fb)" style="fill: none; stroke: #000000; stroke-width: 1.5"/>
   </g>
   <g id="line2d_32">
    <g clip-path="url(#p07e45be1fb)">
     <use xlink:href="#m6e24d4d856" x="148.653541" y="327.543744" style="fill: #1f77b4; stroke: #000000"/>
     <use xlink:href="#m6e24d4d856" x="273.570733" y="327.322961" style="fill: #1f77b4; stroke: #000000"/>
     <use xlink:href="#m6e24d4d856" x="398.487925" y="327.649074" style="fill: #1f77b4; stroke: #000000"/>
     <use xlink:href="#m6e24d4d856" x="523.405117" y="327.541191" style="fill: #1f77b4; stroke: #000000"/>
     <use xlink:href="#m6e24d4d856" x="648.322309" y="327.256503" style="fill: #1f77b4; stroke: #000000"/>
     <use xlink:href="#m6e24d4d856" x="773.239501" y="327.122508" style="fill: #1f77b4; stroke: #000000"/>
     <use xlink:href="#m6e24d4d856" x="898.156693" y="323.922468" style="fill: #1f77b4; stroke: #000000"/>
    </g>
   </g>
   <g id="line2d_33">
    <g clip-path="url(#p07e45be1fb)">
     <use xlink:href="#m6e24d4d856" x="148.653541" y="321.579368" style="fill: #1f77b4; stroke: #000000"/>
     <use xlink:href="#m6e24d4d856" x="273.570733" y="322.276085" style="fill: #1f77b4; stroke: #000000"/>
     <use xlink:href="#m6e24d4d856" x="398.487925" y="322.262977" style="fill: #1f77b4; stroke: #000000"/>
     <use xlink:href="#m6e24d4d856" x="523.405117" y="321.905074" style="fill: #1f77b4; stroke: #000000"/>
     <use xlink:href="#m6e24d4d856" x="648.322309" y="322.17683" style="fill: #1f77b4; stroke: #000000"/>
     <use xlink:href="#m6e24d4d856" x="773.239501" y="321.272491" style="fill: #1f77b4; stroke: #000000"/>
     <use xlink:href="#m6e24d4d856" x="898.156693" y="317.274246" style="fill: #1f77b4; stroke: #000000"/>
    </g>
   </g>
   <g id="LineCollection_5">
    <path d="M 163.643604 327.600435 
L 163.643604 321.558715 
" clip-path="url(#p07e45be1fb)" style="fill: none; stroke: #000000; stroke-width: 1.5"/>
    <path d="M 288.560796 327.458876 
L 288.560796 322.168625 
" clip-path="url(#p07e45be1fb)" style="fill: none; stroke: #000000; stroke-width: 1.5"/>
    <path d="M 413.477988 327.406936 
L 413.477988 322.457139 
" clip-path="url(#p07e45be1fb)" style="fill: none; stroke: #000000; stroke-width: 1.5"/>
    <path d="M 538.39518 327.51364 
L 538.39518 322.107713 
" clip-path="url(#p07e45be1fb)" style="fill: none; stroke: #000000; stroke-width: 1.5"/>
    <path d="M 663.312372 327.457807 
L 663.312372 322.035911 
" clip-path="url(#p07e45be1fb)" style="fill: none; stroke: #000000; stroke-width: 1.5"/>
    <path d="M 788.229564 327.032744 
L 788.229564 321.382216 
" clip-path="url(#p07e45be1fb)" style="fill: none; stroke: #000000; stroke-width: 1.5"/>
    <path d="M 913.146756 324.054957 
L 913.146756 317.109856 
" clip-path="url(#p07e45be1fb)" style="fill: none; stroke: #000000; stroke-width: 1.5"/>
   </g>
   <g id="line2d_34">
    <g clip-path="url(#p07e45be1fb)">
     <use xlink:href="#m6e24d4d856" x="163.643604" y="327.600435" style="fill: #1f77b4; stroke: #000000"/>
     <use xlink:href="#m6e24d4d856" x="288.560796" y="327.458876" style="fill: #1f77b4; stroke: #000000"/>
     <use xlink:href="#m6e24d4d856" x="413.477988" y="327.406936" style="fill: #1f77b4; stroke: #000000"/>
     <use xlink:href="#m6e24d4d856" x="538.39518" y="327.51364" style="fill: #1f77b4; stroke: #000000"/>
     <use xlink:href="#m6e24d4d856" x="663.312372" y="327.457807" style="fill: #1f77b4; stroke: #000000"/>
     <use xlink:href="#m6e24d4d856" x="788.229564" y="327.032744" style="fill: #1f77b4; stroke: #000000"/>
     <use xlink:href="#m6e24d4d856" x="913.146756" y="324.054957" style="fill: #1f77b4; stroke: #000000"/>
    </g>
   </g>
   <g id="line2d_35">
    <g clip-path="url(#p07e45be1fb)">
     <use xlink:href="#m6e24d4d856" x="163.643604" y="321.558715" style="fill: #1f77b4; stroke: #000000"/>
     <use xlink:href="#m6e24d4d856" x="288.560796" y="322.168625" style="fill: #1f77b4; stroke: #000000"/>
     <use xlink:href="#m6e24d4d856" x="413.477988" y="322.457139" style="fill: #1f77b4; stroke: #000000"/>
     <use xlink:href="#m6e24d4d856" x="538.39518" y="322.107713" style="fill: #1f77b4; stroke: #000000"/>
     <use xlink:href="#m6e24d4d856" x="663.312372" y="322.035911" style="fill: #1f77b4; stroke: #000000"/>
     <use xlink:href="#m6e24d4d856" x="788.229564" y="321.382216" style="fill: #1f77b4; stroke: #000000"/>
     <use xlink:href="#m6e24d4d856" x="913.146756" y="317.109856" style="fill: #1f77b4; stroke: #000000"/>
    </g>
   </g>
   <g id="LineCollection_6">
    <path d="M 178.633667 327.425641 
L 178.633667 321.715173 
" clip-path="url(#p07e45be1fb)" style="fill: none; stroke: #000000; stroke-width: 1.5"/>
    <path d="M 303.550859 327.535945 
L 303.550859 322.087641 
" clip-path="url(#p07e45be1fb)" style="fill: none; stroke: #000000; stroke-width: 1.5"/>
    <path d="M 428.468051 327.42881 
L 428.468051 322.447645 
" clip-path="url(#p07e45be1fb)" style="fill: none; stroke: #000000; stroke-width: 1.5"/>
    <path d="M 553.385243 327.517871 
L 553.385243 321.969837 
" clip-path="url(#p07e45be1fb)" style="fill: none; stroke: #000000; stroke-width: 1.5"/>
    <path d="M 678.302435 327.371701 
L 678.302435 321.965514 
" clip-path="url(#p07e45be1fb)" style="fill: none; stroke: #000000; stroke-width: 1.5"/>
    <path d="M 803.219627 327.368622 
L 803.219627 321.066384 
" clip-path="url(#p07e45be1fb)" style="fill: none; stroke: #000000; stroke-width: 1.5"/>
    <path d="M 928.136819 324.44715 
L 928.136819 316.750916 
" clip-path="url(#p07e45be1fb)" style="fill: none; stroke: #000000; stroke-width: 1.5"/>
   </g>
   <g id="line2d_36">
    <g clip-path="url(#p07e45be1fb)">
     <use xlink:href="#m6e24d4d856" x="178.633667" y="327.425641" style="fill: #1f77b4; stroke: #000000"/>
     <use xlink:href="#m6e24d4d856" x="303.550859" y="327.535945" style="fill: #1f77b4; stroke: #000000"/>
     <use xlink:href="#m6e24d4d856" x="428.468051" y="327.42881" style="fill: #1f77b4; stroke: #000000"/>
     <use xlink:href="#m6e24d4d856" x="553.385243" y="327.517871" style="fill: #1f77b4; stroke: #000000"/>
     <use xlink:href="#m6e24d4d856" x="678.302435" y="327.371701" style="fill: #1f77b4; stroke: #000000"/>
     <use xlink:href="#m6e24d4d856" x="803.219627" y="327.368622" style="fill: #1f77b4; stroke: #000000"/>
     <use xlink:href="#m6e24d4d856" x="928.136819" y="324.44715" style="fill: #1f77b4; stroke: #000000"/>
    </g>
   </g>
   <g id="line2d_37">
    <g clip-path="url(#p07e45be1fb)">
     <use xlink:href="#m6e24d4d856" x="178.633667" y="321.715173" style="fill: #1f77b4; stroke: #000000"/>
     <use xlink:href="#m6e24d4d856" x="303.550859" y="322.087641" style="fill: #1f77b4; stroke: #000000"/>
     <use xlink:href="#m6e24d4d856" x="428.468051" y="322.447645" style="fill: #1f77b4; stroke: #000000"/>
     <use xlink:href="#m6e24d4d856" x="553.385243" y="321.969837" style="fill: #1f77b4; stroke: #000000"/>
     <use xlink:href="#m6e24d4d856" x="678.302435" y="321.965514" style="fill: #1f77b4; stroke: #000000"/>
     <use xlink:href="#m6e24d4d856" x="803.219627" y="321.066384" style="fill: #1f77b4; stroke: #000000"/>
     <use xlink:href="#m6e24d4d856" x="928.136819" y="316.750916" style="fill: #1f77b4; stroke: #000000"/>
    </g>
   </g>
   <g id="LineCollection_7">
    <path d="M 193.62373 297.004605 
L 193.62373 273.138837 
" clip-path="url(#p07e45be1fb)" style="fill: none; stroke: #000000; stroke-width: 1.5"/>
    <path d="M 318.540922 311.591946 
L 318.540922 293.224631 
" clip-path="url(#p07e45be1fb)" style="fill: none; stroke: #000000; stroke-width: 1.5"/>
    <path d="M 443.458114 321.331526 
L 443.458114 305.825552 
" clip-path="url(#p07e45be1fb)" style="fill: none; stroke: #000000; stroke-width: 1.5"/>
    <path d="M 568.375306 317.224142 
L 568.375306 302.227671 
" clip-path="url(#p07e45be1fb)" style="fill: none; stroke: #000000; stroke-width: 1.5"/>
    <path d="M 693.292498 314.47909 
L 693.292498 297.631282 
" clip-path="url(#p07e45be1fb)" style="fill: none; stroke: #000000; stroke-width: 1.5"/>
    <path d="M 818.20969 306.640907 
L 818.20969 287.44799 
" clip-path="url(#p07e45be1fb)" style="fill: none; stroke: #000000; stroke-width: 1.5"/>
    <path d="M 943.126883 108.787108 
L 943.126883 39.900224 
" clip-path="url(#p07e45be1fb)" style="fill: none; stroke: #000000; stroke-width: 1.5"/>
   </g>
   <g id="line2d_38">
    <g clip-path="url(#p07e45be1fb)">
     <use xlink:href="#m6e24d4d856" x="193.62373" y="297.004605" style="fill: #1f77b4; stroke: #000000"/>
     <use xlink:href="#m6e24d4d856" x="318.540922" y="311.591946" style="fill: #1f77b4; stroke: #000000"/>
     <use xlink:href="#m6e24d4d856" x="443.458114" y="321.331526" style="fill: #1f77b4; stroke: #000000"/>
     <use xlink:href="#m6e24d4d856" x="568.375306" y="317.224142" style="fill: #1f77b4; stroke: #000000"/>
     <use xlink:href="#m6e24d4d856" x="693.292498" y="314.47909" style="fill: #1f77b4; stroke: #000000"/>
     <use xlink:href="#m6e24d4d856" x="818.20969" y="306.640907" style="fill: #1f77b4; stroke: #000000"/>
     <use xlink:href="#m6e24d4d856" x="943.126883" y="108.787108" style="fill: #1f77b4; stroke: #000000"/>
    </g>
   </g>
   <g id="line2d_39">
    <g clip-path="url(#p07e45be1fb)">
     <use xlink:href="#m6e24d4d856" x="193.62373" y="273.138837" style="fill: #1f77b4; stroke: #000000"/>
     <use xlink:href="#m6e24d4d856" x="318.540922" y="293.224631" style="fill: #1f77b4; stroke: #000000"/>
     <use xlink:href="#m6e24d4d856" x="443.458114" y="305.825552" style="fill: #1f77b4; stroke: #000000"/>
     <use xlink:href="#m6e24d4d856" x="568.375306" y="302.227671" style="fill: #1f77b4; stroke: #000000"/>
     <use xlink:href="#m6e24d4d856" x="693.292498" y="297.631282" style="fill: #1f77b4; stroke: #000000"/>
     <use xlink:href="#m6e24d4d856" x="818.20969" y="287.44799" style="fill: #1f77b4; stroke: #000000"/>
     <use xlink:href="#m6e24d4d856" x="943.126883" y="39.900224" style="fill: #1f77b4; stroke: #000000"/>
    </g>
   </g>
   <g id="patch_52">
    <path d="M 53.466641 330.754702 
L 53.466641 25.3575 
" style="fill: none; stroke: #000000; stroke-width: 0.8; stroke-linejoin: miter; stroke-linecap: square"/>
   </g>
   <g id="patch_53">
    <path d="M 993.343594 330.754702 
L 993.343594 25.3575 
" style="fill: none; stroke: #000000; stroke-width: 0.8; stroke-linejoin: miter; stroke-linecap: square"/>
   </g>
   <g id="patch_54">
    <path d="M 53.466641 330.754702 
L 993.343594 330.754702 
" style="fill: none; stroke: #000000; stroke-width: 0.8; stroke-linejoin: miter; stroke-linecap: square"/>
   </g>
   <g id="patch_55">
    <path d="M 53.466641 25.3575 
L 993.343594 25.3575 
" style="fill: none; stroke: #000000; stroke-width: 0.8; stroke-linejoin: miter; stroke-linecap: square"/>
   </g>
   <g id="text_19">
    <!-- Inference Time per Dataset and Method (Mean ± Std) -->
    <g transform="translate(281.221367 19.3575) scale(0.16 -0.16)">
     <defs>
      <path id="DejaVuSans-Bold-2c" d="M 588 4666 
L 1791 4666 
L 1791 0 
L 588 0 
L 588 4666 
z
" transform="scale(0.015625)"/>
      <path id="DejaVuSans-Bold-51" d="M 4056 2131 
L 4056 0 
L 2931 0 
L 2931 347 
L 2931 1631 
Q 2931 2084 2911 2256 
Q 2891 2428 2841 2509 
Q 2775 2619 2662 2680 
Q 2550 2741 2406 2741 
Q 2056 2741 1856 2470 
Q 1656 2200 1656 1722 
L 1656 0 
L 538 0 
L 538 3500 
L 1656 3500 
L 1656 2988 
Q 1909 3294 2193 3439 
Q 2478 3584 2822 3584 
Q 3428 3584 3742 3212 
Q 4056 2841 4056 2131 
z
" transform="scale(0.015625)"/>
      <path id="DejaVuSans-Bold-49" d="M 2841 4863 
L 2841 4128 
L 2222 4128 
Q 1984 4128 1890 4042 
Q 1797 3956 1797 3744 
L 1797 3500 
L 2753 3500 
L 2753 2700 
L 1797 2700 
L 1797 0 
L 678 0 
L 678 2700 
L 122 2700 
L 122 3500 
L 678 3500 
L 678 3744 
Q 678 4316 997 4589 
Q 1316 4863 1984 4863 
L 2841 4863 
z
" transform="scale(0.015625)"/>
      <path id="DejaVuSans-Bold-48" d="M 4031 1759 
L 4031 1441 
L 1416 1441 
Q 1456 1047 1700 850 
Q 1944 653 2381 653 
Q 2734 653 3104 758 
Q 3475 863 3866 1075 
L 3866 213 
Q 3469 63 3072 -14 
Q 2675 -91 2278 -91 
Q 1328 -91 801 392 
Q 275 875 275 1747 
Q 275 2603 792 3093 
Q 1309 3584 2216 3584 
Q 3041 3584 3536 3087 
Q 4031 2591 4031 1759 
z
M 2881 2131 
Q 2881 2450 2695 2645 
Q 2509 2841 2209 2841 
Q 1884 2841 1681 2658 
Q 1478 2475 1428 2131 
L 2881 2131 
z
" transform="scale(0.015625)"/>
      <path id="DejaVuSans-Bold-55" d="M 3138 2547 
Q 2991 2616 2845 2648 
Q 2700 2681 2553 2681 
Q 2122 2681 1889 2404 
Q 1656 2128 1656 1613 
L 1656 0 
L 538 0 
L 538 3500 
L 1656 3500 
L 1656 2925 
Q 1872 3269 2151 3426 
Q 2431 3584 2822 3584 
Q 2878 3584 2943 3579 
Q 3009 3575 3134 3559 
L 3138 2547 
z
" transform="scale(0.015625)"/>
      <path id="DejaVuSans-Bold-46" d="M 3366 3391 
L 3366 2478 
Q 3138 2634 2908 2709 
Q 2678 2784 2431 2784 
Q 1963 2784 1702 2511 
Q 1441 2238 1441 1747 
Q 1441 1256 1702 982 
Q 1963 709 2431 709 
Q 2694 709 2930 787 
Q 3166 866 3366 1019 
L 3366 103 
Q 3103 6 2833 -42 
Q 2563 -91 2291 -91 
Q 1344 -91 809 395 
Q 275 881 275 1747 
Q 275 2613 809 3098 
Q 1344 3584 2291 3584 
Q 2566 3584 2833 3536 
Q 3100 3488 3366 3391 
z
" transform="scale(0.015625)"/>
      <path id="DejaVuSans-Bold-3" transform="scale(0.015625)"/>
      <path id="DejaVuSans-Bold-37" d="M 31 4666 
L 4331 4666 
L 4331 3756 
L 2784 3756 
L 2784 0 
L 1581 0 
L 1581 3756 
L 31 3756 
L 31 4666 
z
" transform="scale(0.015625)"/>
      <path id="DejaVuSans-Bold-4c" d="M 538 3500 
L 1656 3500 
L 1656 0 
L 538 0 
L 538 3500 
z
M 538 4863 
L 1656 4863 
L 1656 3950 
L 538 3950 
L 538 4863 
z
" transform="scale(0.015625)"/>
      <path id="DejaVuSans-Bold-50" d="M 3781 2919 
Q 3994 3244 4286 3414 
Q 4578 3584 4928 3584 
Q 5531 3584 5847 3212 
Q 6163 2841 6163 2131 
L 6163 0 
L 5038 0 
L 5038 1825 
Q 5041 1866 5042 1909 
Q 5044 1953 5044 2034 
Q 5044 2406 4934 2573 
Q 4825 2741 4581 2741 
Q 4263 2741 4089 2478 
Q 3916 2216 3909 1719 
L 3909 0 
L 2784 0 
L 2784 1825 
Q 2784 2406 2684 2573 
Q 2584 2741 2328 2741 
Q 2006 2741 1831 2477 
Q 1656 2213 1656 1722 
L 1656 0 
L 531 0 
L 531 3500 
L 1656 3500 
L 1656 2988 
Q 1863 3284 2130 3434 
Q 2397 3584 2719 3584 
Q 3081 3584 3359 3409 
Q 3638 3234 3781 2919 
z
" transform="scale(0.015625)"/>
      <path id="DejaVuSans-Bold-53" d="M 1656 506 
L 1656 -1331 
L 538 -1331 
L 538 3500 
L 1656 3500 
L 1656 2988 
Q 1888 3294 2169 3439 
Q 2450 3584 2816 3584 
Q 3463 3584 3878 3070 
Q 4294 2556 4294 1747 
Q 4294 938 3878 423 
Q 3463 -91 2816 -91 
Q 2450 -91 2169 54 
Q 1888 200 1656 506 
z
M 2400 2772 
Q 2041 2772 1848 2508 
Q 1656 2244 1656 1747 
Q 1656 1250 1848 986 
Q 2041 722 2400 722 
Q 2759 722 2948 984 
Q 3138 1247 3138 1747 
Q 3138 2247 2948 2509 
Q 2759 2772 2400 2772 
z
" transform="scale(0.015625)"/>
      <path id="DejaVuSans-Bold-27" d="M 1791 3756 
L 1791 909 
L 2222 909 
Q 2959 909 3348 1275 
Q 3738 1641 3738 2338 
Q 3738 3031 3350 3393 
Q 2963 3756 2222 3756 
L 1791 3756 
z
M 588 4666 
L 1856 4666 
Q 2919 4666 3439 4514 
Q 3959 4363 4331 4000 
Q 4659 3684 4818 3271 
Q 4978 2859 4978 2338 
Q 4978 1809 4818 1395 
Q 4659 981 4331 666 
Q 3956 303 3431 151 
Q 2906 0 1856 0 
L 588 0 
L 588 4666 
z
" transform="scale(0.015625)"/>
      <path id="DejaVuSans-Bold-44" d="M 2106 1575 
Q 1756 1575 1579 1456 
Q 1403 1338 1403 1106 
Q 1403 894 1545 773 
Q 1688 653 1941 653 
Q 2256 653 2472 879 
Q 2688 1106 2688 1447 
L 2688 1575 
L 2106 1575 
z
M 3816 1997 
L 3816 0 
L 2688 0 
L 2688 519 
Q 2463 200 2181 54 
Q 1900 -91 1497 -91 
Q 953 -91 614 226 
Q 275 544 275 1050 
Q 275 1666 698 1953 
Q 1122 2241 2028 2241 
L 2688 2241 
L 2688 2328 
Q 2688 2594 2478 2717 
Q 2269 2841 1825 2841 
Q 1466 2841 1156 2769 
Q 847 2697 581 2553 
L 581 3406 
Q 941 3494 1303 3539 
Q 1666 3584 2028 3584 
Q 2975 3584 3395 3211 
Q 3816 2838 3816 1997 
z
" transform="scale(0.015625)"/>
      <path id="DejaVuSans-Bold-57" d="M 1759 4494 
L 1759 3500 
L 2913 3500 
L 2913 2700 
L 1759 2700 
L 1759 1216 
Q 1759 972 1856 886 
Q 1953 800 2241 800 
L 2816 800 
L 2816 0 
L 1856 0 
Q 1194 0 917 276 
Q 641 553 641 1216 
L 641 2700 
L 84 2700 
L 84 3500 
L 641 3500 
L 641 4494 
L 1759 4494 
z
" transform="scale(0.015625)"/>
      <path id="DejaVuSans-Bold-56" d="M 3272 3391 
L 3272 2541 
Q 2913 2691 2578 2766 
Q 2244 2841 1947 2841 
Q 1628 2841 1473 2761 
Q 1319 2681 1319 2516 
Q 1319 2381 1436 2309 
Q 1553 2238 1856 2203 
L 2053 2175 
Q 2913 2066 3209 1816 
Q 3506 1566 3506 1031 
Q 3506 472 3093 190 
Q 2681 -91 1863 -91 
Q 1516 -91 1145 -36 
Q 775 19 384 128 
L 384 978 
Q 719 816 1070 734 
Q 1422 653 1784 653 
Q 2113 653 2278 743 
Q 2444 834 2444 1013 
Q 2444 1163 2330 1236 
Q 2216 1309 1875 1350 
L 1678 1375 
Q 931 1469 631 1722 
Q 331 1975 331 2491 
Q 331 3047 712 3315 
Q 1094 3584 1881 3584 
Q 2191 3584 2531 3537 
Q 2872 3491 3272 3391 
z
" transform="scale(0.015625)"/>
      <path id="DejaVuSans-Bold-47" d="M 2919 2988 
L 2919 4863 
L 4044 4863 
L 4044 0 
L 2919 0 
L 2919 506 
Q 2688 197 2409 53 
Q 2131 -91 1766 -91 
Q 1119 -91 703 423 
Q 288 938 288 1747 
Q 288 2556 703 3070 
Q 1119 3584 1766 3584 
Q 2128 3584 2408 3439 
Q 2688 3294 2919 2988 
z
M 2181 722 
Q 2541 722 2730 984 
Q 2919 1247 2919 1747 
Q 2919 2247 2730 2509 
Q 2541 2772 2181 2772 
Q 1825 2772 1636 2509 
Q 1447 2247 1447 1747 
Q 1447 1247 1636 984 
Q 1825 722 2181 722 
z
" transform="scale(0.015625)"/>
      <path id="DejaVuSans-Bold-30" d="M 588 4666 
L 2119 4666 
L 3181 2169 
L 4250 4666 
L 5778 4666 
L 5778 0 
L 4641 0 
L 4641 3413 
L 3566 897 
L 2803 897 
L 1728 3413 
L 1728 0 
L 588 0 
L 588 4666 
z
" transform="scale(0.015625)"/>
      <path id="DejaVuSans-Bold-4b" d="M 4056 2131 
L 4056 0 
L 2931 0 
L 2931 347 
L 2931 1625 
Q 2931 2084 2911 2256 
Q 2891 2428 2841 2509 
Q 2775 2619 2662 2680 
Q 2550 2741 2406 2741 
Q 2056 2741 1856 2470 
Q 1656 2200 1656 1722 
L 1656 0 
L 538 0 
L 538 4863 
L 1656 4863 
L 1656 2988 
Q 1909 3294 2193 3439 
Q 2478 3584 2822 3584 
Q 3428 3584 3742 3212 
Q 4056 2841 4056 2131 
z
" transform="scale(0.015625)"/>
      <path id="DejaVuSans-Bold-52" d="M 2203 2784 
Q 1831 2784 1636 2517 
Q 1441 2250 1441 1747 
Q 1441 1244 1636 976 
Q 1831 709 2203 709 
Q 2569 709 2762 976 
Q 2956 1244 2956 1747 
Q 2956 2250 2762 2517 
Q 2569 2784 2203 2784 
z
M 2203 3584 
Q 3106 3584 3614 3096 
Q 4122 2609 4122 1747 
Q 4122 884 3614 396 
Q 3106 -91 2203 -91 
Q 1297 -91 786 396 
Q 275 884 275 1747 
Q 275 2609 786 3096 
Q 1297 3584 2203 3584 
z
" transform="scale(0.015625)"/>
      <path id="DejaVuSans-Bold-b" d="M 2413 -844 
L 1484 -844 
Q 1006 -72 778 623 
Q 550 1319 550 2003 
Q 550 2688 779 3389 
Q 1009 4091 1484 4856 
L 2413 4856 
Q 2013 4116 1813 3408 
Q 1613 2700 1613 2009 
Q 1613 1319 1811 609 
Q 2009 -100 2413 -844 
z
" transform="scale(0.015625)"/>
      <path id="DejaVuSans-Bold-73" d="M 3053 4013 
L 3053 2906 
L 4684 2906 
L 4684 2169 
L 3053 2169 
L 3053 1063 
L 2309 1063 
L 2309 2169 
L 678 2169 
L 678 2906 
L 2309 2906 
L 2309 4013 
L 3053 4013 
z
M 678 744 
L 4684 744 
L 4684 0 
L 678 0 
L 678 744 
z
" transform="scale(0.015625)"/>
      <path id="DejaVuSans-Bold-36" d="M 3834 4519 
L 3834 3531 
Q 3450 3703 3084 3790 
Q 2719 3878 2394 3878 
Q 1963 3878 1756 3759 
Q 1550 3641 1550 3391 
Q 1550 3203 1689 3098 
Q 1828 2994 2194 2919 
L 2706 2816 
Q 3484 2659 3812 2340 
Q 4141 2022 4141 1434 
Q 4141 663 3683 286 
Q 3225 -91 2284 -91 
Q 1841 -91 1394 -6 
Q 947 78 500 244 
L 500 1259 
Q 947 1022 1364 901 
Q 1781 781 2169 781 
Q 2563 781 2772 912 
Q 2981 1044 2981 1288 
Q 2981 1506 2839 1625 
Q 2697 1744 2272 1838 
L 1806 1941 
Q 1106 2091 782 2419 
Q 459 2747 459 3303 
Q 459 4000 909 4375 
Q 1359 4750 2203 4750 
Q 2588 4750 2994 4692 
Q 3400 4634 3834 4519 
z
" transform="scale(0.015625)"/>
      <path id="DejaVuSans-Bold-c" d="M 513 -844 
Q 913 -100 1113 609 
Q 1313 1319 1313 2009 
Q 1313 2700 1113 3408 
Q 913 4116 513 4856 
L 1441 4856 
Q 1916 4091 2145 3389 
Q 2375 2688 2375 2003 
Q 2375 1319 2147 623 
Q 1919 -72 1441 -844 
L 513 -844 
z
" transform="scale(0.015625)"/>
     </defs>
     <use xlink:href="#DejaVuSans-Bold-2c"/>
     <use xlink:href="#DejaVuSans-Bold-51" transform="translate(37.203125 0)"/>
     <use xlink:href="#DejaVuSans-Bold-49" transform="translate(108.390625 0)"/>
     <use xlink:href="#DejaVuSans-Bold-48" transform="translate(151.890625 0)"/>
     <use xlink:href="#DejaVuSans-Bold-55" transform="translate(219.71875 0)"/>
     <use xlink:href="#DejaVuSans-Bold-48" transform="translate(269.03125 0)"/>
     <use xlink:href="#DejaVuSans-Bold-51" transform="translate(336.859375 0)"/>
     <use xlink:href="#DejaVuSans-Bold-46" transform="translate(408.046875 0)"/>
     <use xlink:href="#DejaVuSans-Bold-48" transform="translate(467.328125 0)"/>
     <use xlink:href="#DejaVuSans-Bold-3" transform="translate(535.15625 0)"/>
     <use xlink:href="#DejaVuSans-Bold-37" transform="translate(569.96875 0)"/>
     <use xlink:href="#DejaVuSans-Bold-4c" transform="translate(638.1875 0)"/>
     <use xlink:href="#DejaVuSans-Bold-50" transform="translate(672.46875 0)"/>
     <use xlink:href="#DejaVuSans-Bold-48" transform="translate(776.671875 0)"/>
     <use xlink:href="#DejaVuSans-Bold-3" transform="translate(844.5 0)"/>
     <use xlink:href="#DejaVuSans-Bold-53" transform="translate(879.3125 0)"/>
     <use xlink:href="#DejaVuSans-Bold-48" transform="translate(950.890625 0)"/>
     <use xlink:href="#DejaVuSans-Bold-55" transform="translate(1018.71875 0)"/>
     <use xlink:href="#DejaVuSans-Bold-3" transform="translate(1068.03125 0)"/>
     <use xlink:href="#DejaVuSans-Bold-27" transform="translate(1102.84375 0)"/>
     <use xlink:href="#DejaVuSans-Bold-44" transform="translate(1185.859375 0)"/>
     <use xlink:href="#DejaVuSans-Bold-57" transform="translate(1253.34375 0)"/>
     <use xlink:href="#DejaVuSans-Bold-44" transform="translate(1301.140625 0)"/>
     <use xlink:href="#DejaVuSans-Bold-56" transform="translate(1368.625 0)"/>
     <use xlink:href="#DejaVuSans-Bold-48" transform="translate(1428.140625 0)"/>
     <use xlink:href="#DejaVuSans-Bold-57" transform="translate(1495.96875 0)"/>
     <use xlink:href="#DejaVuSans-Bold-3" transform="translate(1543.765625 0)"/>
     <use xlink:href="#DejaVuSans-Bold-44" transform="translate(1578.578125 0)"/>
     <use xlink:href="#DejaVuSans-Bold-51" transform="translate(1646.0625 0)"/>
     <use xlink:href="#DejaVuSans-Bold-47" transform="translate(1717.25 0)"/>
     <use xlink:href="#DejaVuSans-Bold-3" transform="translate(1788.828125 0)"/>
     <use xlink:href="#DejaVuSans-Bold-30" transform="translate(1823.640625 0)"/>
     <use xlink:href="#DejaVuSans-Bold-48" transform="translate(1923.15625 0)"/>
     <use xlink:href="#DejaVuSans-Bold-57" transform="translate(1990.984375 0)"/>
     <use xlink:href="#DejaVuSans-Bold-4b" transform="translate(2038.78125 0)"/>
     <use xlink:href="#DejaVuSans-Bold-52" transform="translate(2109.96875 0)"/>
     <use xlink:href="#DejaVuSans-Bold-47" transform="translate(2178.671875 0)"/>
     <use xlink:href="#DejaVuSans-Bold-3" transform="translate(2250.25 0)"/>
     <use xlink:href="#DejaVuSans-Bold-b" transform="translate(2285.0625 0)"/>
     <use xlink:href="#DejaVuSans-Bold-30" transform="translate(2330.765625 0)"/>
     <use xlink:href="#DejaVuSans-Bold-48" transform="translate(2430.28125 0)"/>
     <use xlink:href="#DejaVuSans-Bold-44" transform="translate(2498.109375 0)"/>
     <use xlink:href="#DejaVuSans-Bold-51" transform="translate(2565.59375 0)"/>
     <use xlink:href="#DejaVuSans-Bold-3" transform="translate(2636.78125 0)"/>
     <use xlink:href="#DejaVuSans-Bold-73" transform="translate(2671.59375 0)"/>
     <use xlink:href="#DejaVuSans-Bold-3" transform="translate(2755.390625 0)"/>
     <use xlink:href="#DejaVuSans-Bold-36" transform="translate(2790.203125 0)"/>
     <use xlink:href="#DejaVuSans-Bold-57" transform="translate(2862.21875 0)"/>
     <use xlink:href="#DejaVuSans-Bold-47" transform="translate(2910.015625 0)"/>
     <use xlink:href="#DejaVuSans-Bold-c" transform="translate(2981.59375 0)"/>
    </g>
   </g>
   <g id="legend_1">
    <g id="patch_56">
     <path d="M 60.466641 154.363828 
L 135.293203 154.363828 
Q 137.293203 154.363828 137.293203 152.363828 
L 137.293203 32.3575 
Q 137.293203 30.3575 135.293203 30.3575 
L 60.466641 30.3575 
Q 58.466641 30.3575 58.466641 32.3575 
L 58.466641 152.363828 
Q 58.466641 154.363828 60.466641 154.363828 
z
" style="fill: #ffffff; opacity: 0.8; stroke: #cccccc; stroke-linejoin: miter"/>
    </g>
    <g id="text_20">
     <!-- Method -->
     <g transform="translate(77.251484 42.715781) scale(0.11 -0.11)">
      <defs>
       <path id="DejaVuSans-30" d="M 628 4666 
L 1569 4666 
L 2759 1491 
L 3956 4666 
L 4897 4666 
L 4897 0 
L 4281 0 
L 4281 4097 
L 3078 897 
L 2444 897 
L 1241 4097 
L 1241 0 
L 628 0 
L 628 4666 
z
" transform="scale(0.015625)"/>
      </defs>
      <use xlink:href="#DejaVuSans-30"/>
      <use xlink:href="#DejaVuSans-48" transform="translate(86.28125 0)"/>
      <use xlink:href="#DejaVuSans-57" transform="translate(147.8125 0)"/>
      <use xlink:href="#DejaVuSans-4b" transform="translate(187.015625 0)"/>
      <use xlink:href="#DejaVuSans-52" transform="translate(250.390625 0)"/>
      <use xlink:href="#DejaVuSans-47" transform="translate(311.578125 0)"/>
     </g>
    </g>
    <g id="patch_57">
     <path d="M 62.466641 57.956797 
L 82.466641 57.956797 
L 82.466641 50.956797 
L 62.466641 50.956797 
z
" style="fill: #2f4f4f; stroke: #000000; stroke-width: 0.5; stroke-linejoin: miter"/>
    </g>
    <g id="text_21">
     <!-- Base -->
     <g transform="translate(90.466641 57.956797) scale(0.1 -0.1)">
      <use xlink:href="#DejaVuSans-25"/>
      <use xlink:href="#DejaVuSans-44" transform="translate(68.609375 0)"/>
      <use xlink:href="#DejaVuSans-56" transform="translate(129.890625 0)"/>
      <use xlink:href="#DejaVuSans-48" transform="translate(181.984375 0)"/>
     </g>
    </g>
    <g id="patch_58">
     <path d="M 62.466641 72.957578 
L 82.466641 72.957578 
L 82.466641 65.957578 
L 62.466641 65.957578 
z
" style="fill: #007377; stroke: #000000; stroke-width: 0.5; stroke-linejoin: miter"/>
    </g>
    <g id="text_22">
     <!-- CCP -->
     <g transform="translate(90.466641 72.957578) scale(0.1 -0.1)">
      <defs>
       <path id="DejaVuSans-33" d="M 1259 4147 
L 1259 2394 
L 2053 2394 
Q 2494 2394 2734 2622 
Q 2975 2850 2975 3272 
Q 2975 3691 2734 3919 
Q 2494 4147 2053 4147 
L 1259 4147 
z
M 628 4666 
L 2053 4666 
Q 2838 4666 3239 4311 
Q 3641 3956 3641 3272 
Q 3641 2581 3239 2228 
Q 2838 1875 2053 1875 
L 1259 1875 
L 1259 0 
L 628 0 
L 628 4666 
z
" transform="scale(0.015625)"/>
      </defs>
      <use xlink:href="#DejaVuSans-26"/>
      <use xlink:href="#DejaVuSans-26" transform="translate(69.828125 0)"/>
      <use xlink:href="#DejaVuSans-33" transform="translate(139.65625 0)"/>
     </g>
    </g>
    <g id="patch_59">
     <path d="M 62.466641 87.958359 
L 82.466641 87.958359 
L 82.466641 80.958359 
L 62.466641 80.958359 
z
" style="fill: #8b0000; stroke: #000000; stroke-width: 0.5; stroke-linejoin: miter"/>
    </g>
    <g id="text_23">
     <!-- SR-CCP -->
     <g transform="translate(90.466641 87.958359) scale(0.1 -0.1)">
      <defs>
       <path id="DejaVuSans-10" d="M 313 2009 
L 1997 2009 
L 1997 1497 
L 313 1497 
L 313 2009 
z
" transform="scale(0.015625)"/>
      </defs>
      <use xlink:href="#DejaVuSans-36"/>
      <use xlink:href="#DejaVuSans-35" transform="translate(63.484375 0)"/>
      <use xlink:href="#DejaVuSans-10" transform="translate(128.921875 0)"/>
      <use xlink:href="#DejaVuSans-26" transform="translate(165 0)"/>
      <use xlink:href="#DejaVuSans-26" transform="translate(234.828125 0)"/>
      <use xlink:href="#DejaVuSans-33" transform="translate(304.65625 0)"/>
     </g>
    </g>
    <g id="patch_60">
     <path d="M 62.466641 102.959141 
L 82.466641 102.959141 
L 82.466641 95.959141 
L 62.466641 95.959141 
z
" style="fill: #b8860b; stroke: #000000; stroke-width: 0.5; stroke-linejoin: miter"/>
    </g>
    <g id="text_24">
     <!-- REP -->
     <g transform="translate(90.466641 102.959141) scale(0.1 -0.1)">
      <defs>
       <path id="DejaVuSans-28" d="M 628 4666 
L 3578 4666 
L 3578 4134 
L 1259 4134 
L 1259 2753 
L 3481 2753 
L 3481 2222 
L 1259 2222 
L 1259 531 
L 3634 531 
L 3634 0 
L 628 0 
L 628 4666 
z
" transform="scale(0.015625)"/>
      </defs>
      <use xlink:href="#DejaVuSans-35"/>
      <use xlink:href="#DejaVuSans-28" transform="translate(69.484375 0)"/>
      <use xlink:href="#DejaVuSans-33" transform="translate(132.671875 0)"/>
     </g>
    </g>
    <g id="patch_61">
     <path d="M 62.466641 117.959922 
L 82.466641 117.959922 
L 82.466641 110.959922 
L 62.466641 110.959922 
z
" style="fill: #4b6c84; stroke: #000000; stroke-width: 0.5; stroke-linejoin: miter"/>
    </g>
    <g id="text_25">
     <!-- MEP -->
     <g transform="translate(90.466641 117.959922) scale(0.1 -0.1)">
      <use xlink:href="#DejaVuSans-30"/>
      <use xlink:href="#DejaVuSans-28" transform="translate(86.28125 0)"/>
      <use xlink:href="#DejaVuSans-33" transform="translate(149.46875 0)"/>
     </g>
    </g>
    <g id="patch_62">
     <path d="M 62.466641 132.960703 
L 82.466641 132.960703 
L 82.466641 125.960703 
L 62.466641 125.960703 
z
" style="fill: #a0522d; stroke: #000000; stroke-width: 0.5; stroke-linejoin: miter"/>
    </g>
    <g id="text_26">
     <!-- DBP -->
     <g transform="translate(90.466641 132.960703) scale(0.1 -0.1)">
      <use xlink:href="#DejaVuSans-27"/>
      <use xlink:href="#DejaVuSans-25" transform="translate(77 0)"/>
      <use xlink:href="#DejaVuSans-33" transform="translate(145.609375 0)"/>
     </g>
    </g>
    <g id="patch_63">
     <path d="M 62.466641 147.961484 
L 82.466641 147.961484 
L 82.466641 140.961484 
L 62.466641 140.961484 
z
" style="fill: #556b2f; stroke: #000000; stroke-width: 0.5; stroke-linejoin: miter"/>
    </g>
    <g id="text_27">
     <!-- XGBoost -->
     <g transform="translate(90.466641 147.961484) scale(0.1 -0.1)">
      <defs>
       <path id="DejaVuSans-3b" d="M 403 4666 
L 1081 4666 
L 2241 2931 
L 3406 4666 
L 4084 4666 
L 2584 2425 
L 4184 0 
L 3506 0 
L 2194 1984 
L 872 0 
L 191 0 
L 1856 2491 
L 403 4666 
z
" transform="scale(0.015625)"/>
       <path id="DejaVuSans-2a" d="M 3809 666 
L 3809 1919 
L 2778 1919 
L 2778 2438 
L 4434 2438 
L 4434 434 
Q 4069 175 3628 42 
Q 3188 -91 2688 -91 
Q 1594 -91 976 548 
Q 359 1188 359 2328 
Q 359 3472 976 4111 
Q 1594 4750 2688 4750 
Q 3144 4750 3555 4637 
Q 3966 4525 4313 4306 
L 4313 3634 
Q 3963 3931 3569 4081 
Q 3175 4231 2741 4231 
Q 1884 4231 1454 3753 
Q 1025 3275 1025 2328 
Q 1025 1384 1454 906 
Q 1884 428 2741 428 
Q 3075 428 3337 486 
Q 3600 544 3809 666 
z
" transform="scale(0.015625)"/>
      </defs>
      <use xlink:href="#DejaVuSans-3b"/>
      <use xlink:href="#DejaVuSans-2a" transform="translate(68.5 0)"/>
      <use xlink:href="#DejaVuSans-25" transform="translate(145.984375 0)"/>
      <use xlink:href="#DejaVuSans-52" transform="translate(214.59375 0)"/>
      <use xlink:href="#DejaVuSans-52" transform="translate(275.78125 0)"/>
      <use xlink:href="#DejaVuSans-56" transform="translate(336.96875 0)"/>
      <use xlink:href="#DejaVuSans-57" transform="translate(389.0625 0)"/>
     </g>
    </g>
   </g>
  </g>
 </g>
 <defs>
  <clipPath id="p07e45be1fb">
   <rect x="53.466641" y="25.3575" width="939.876953" height="305.397202"/>
  </clipPath>
 </defs>
</svg>
