<?xml version="1.0" encoding="utf-8" standalone="no"?>
<!DOCTYPE svg PUBLIC "-//W3C//DTD SVG 1.1//EN"
  "http://www.w3.org/Graphics/SVG/1.1/DTD/svg11.dtd">
<svg xmlns:xlink="http://www.w3.org/1999/xlink" width="493.383562pt" height="437.866694pt" viewBox="0 0 493.383562 437.866694" xmlns="http://www.w3.org/2000/svg" version="1.1">
 <metadata>
  <rdf:RDF xmlns:dc="http://purl.org/dc/elements/1.1/" xmlns:cc="http://creativecommons.org/ns#" xmlns:rdf="http://www.w3.org/1999/02/22-rdf-syntax-ns#">
   <cc:Work>
    <dc:type rdf:resource="http://purl.org/dc/dcmitype/StillImage"/>
    <dc:date>2026-07-07T18:03:47.402150</dc:date>
    <dc:format>image/svg+xml</dc:format>
    <dc:creator>
     <cc:Agent>
      <dc:title>Matplotlib v3.11.0, https://matplotlib.org/</dc:title>
     </cc:Agent>
    </dc:creator>
   </cc:Work>
  </rdf:RDF>
 </metadata>
 <defs>
  <style type="text/css">*{stroke-linejoin: round; stroke-linecap: butt}</style>
 </defs>
 <g id="figure_1">
  <g id="patch_1">
   <path d="M 0 437.866694 
L 493.383562 437.866694 
L 493.383562 0 
L 0 0 
z
" style="fill: #ffffff"/>
  </g>
  <g id="axes_1">
   <g id="patch_2">
    <path d="M 382.230031 234.481306 
C 382.230031 210.635228 377.532873 187.021024 368.407374 164.99012 
C 359.281876 142.959217 345.905503 122.940061 329.04378 106.078338 
C 312.182057 89.216615 292.162901 75.840242 270.131998 66.714744 
C 248.101095 57.589245 224.48689 52.892087 200.640812 52.892087 
C 176.794735 52.892087 153.18053 57.589245 131.149627 66.714744 
C 109.118724 75.840242 89.099568 89.216615 72.237845 106.078338 
C 55.376121 122.940061 41.999749 142.959217 32.87425 164.99012 
C 23.748751 187.021024 19.051594 210.635228 19.051594 234.481306 
C 19.051594 258.327383 23.748751 281.941588 32.87425 303.972491 
C 41.999749 326.003394 55.376121 346.02255 72.237845 362.884273 
C 89.099568 379.745997 109.118724 393.122369 131.149627 402.247868 
C 153.18053 411.373367 176.794735 416.070524 200.640812 416.070524 
C 224.48689 416.070524 248.101095 411.373367 270.131998 402.247868 
C 292.162901 393.122369 312.182057 379.745997 329.04378 362.884273 
C 345.905503 346.02255 359.281876 326.003394 368.407374 303.972491 
C 377.532873 281.941588 382.230031 258.327383 382.230031 234.481306 
M 200.640812 234.481306 
C 200.640812 234.481306 200.640812 234.481306 200.640812 234.481306 
C 200.640812 234.481306 200.640812 234.481306 200.640812 234.481306 
C 200.640812 234.481306 200.640812 234.481306 200.640812 234.481306 
C 200.640812 234.481306 200.640812 234.481306 200.640812 234.481306 
C 200.640812 234.481306 200.640812 234.481306 200.640812 234.481306 
C 200.640812 234.481306 200.640812 234.481306 200.640812 234.481306 
C 200.640812 234.481306 200.640812 234.481306 200.640812 234.481306 
C 200.640812 234.481306 200.640812 234.481306 200.640812 234.481306 
C 200.640812 234.481306 200.640812 234.481306 200.640812 234.481306 
C 200.640812 234.481306 200.640812 234.481306 200.640812 234.481306 
C 200.640812 234.481306 200.640812 234.481306 200.640812 234.481306 
C 200.640812 234.481306 200.640812 234.481306 200.640812 234.481306 
C 200.640812 234.481306 200.640812 234.481306 200.640812 234.481306 
C 200.640812 234.481306 200.640812 234.481306 200.640812 234.481306 
C 200.640812 234.481306 200.640812 234.481306 200.640812 234.481306 
C 200.640812 234.481306 200.640812 234.481306 200.640812 234.481306 
z
" style="fill: #ffffff"/>
   </g>
   <g id="patch_3">
    <path d="M 347.977657 234.481306 
L 289.944303 122.49827 
L 162.366984 66.792709 
L 45.9351 159.978961 
L 128.248674 269.343522 
L 183.86347 307.987646 
L 307.482825 368.456952 
z
" clip-path="url(#p2cc50699d2)" style="fill: #1f77b4; opacity: 0.25; stroke: #1f77b4; stroke-linejoin: miter"/>
   </g>
   <g id="patch_4">
    <path d="M 351.764351 234.481306 
L 292.545557 119.236401 
L 161.0335 60.950333 
L 40.372275 157.300046 
L 96.396133 284.682897 
L 173.277203 354.369112 
L 307.648073 368.664167 
z
" clip-path="url(#p2cc50699d2)" style="fill: #ff7f0e; opacity: 0.25; stroke: #ff7f0e; stroke-linejoin: miter"/>
   </g>
   <g id="patch_5">
    <path d="M 348.149779 234.481306 
L 290.028127 122.393159 
L 160.409316 58.215605 
L 37.768399 156.046086 
L 64.543592 300.022273 
L 164.3923 393.296413 
L 307.660443 368.679677 
z
" clip-path="url(#p2cc50699d2)" style="fill: #2ca02c; opacity: 0.25; stroke: #2ca02c; stroke-linejoin: miter"/>
   </g>
   <g id="patch_6">
    <path d="M 346.600677 234.481306 
L 287.943529 125.007161 
L 160.443363 58.364772 
L 37.910429 156.114483 
L 80.469863 292.352585 
L 171.197758 363.479757 
L 307.567559 368.563205 
z
" clip-path="url(#p2cc50699d2)" style="fill: #d62728; opacity: 0.25; stroke: #d62728; stroke-linejoin: miter"/>
   </g>
   <g id="patch_7">
    <path d="M 349.010392 234.481306 
L 290.17012 122.215105 
L 160.511455 58.663106 
L 38.194488 156.251279 
L 81.917706 291.655341 
L 173.655284 352.712631 
L 307.577137 368.575215 
z
" clip-path="url(#p2cc50699d2)" style="fill: #9467bd; opacity: 0.25; stroke: #9467bd; stroke-linejoin: miter"/>
   </g>
   <g id="patch_8">
    <path d="M 352.280719 234.481306 
L 292.870052 118.829497 
L 160.885966 60.303943 
L 39.756813 157.003655 
L 73.230649 295.838807 
L 172.710081 356.853833 
L 307.586755 368.587276 
z
" clip-path="url(#p2cc50699d2)" style="fill: #8c564b; opacity: 0.25; stroke: #8c564b; stroke-linejoin: miter"/>
   </g>
   <g id="patch_9">
    <path d="M 356.928026 234.481306 
L 295.816582 115.134665 
L 199.931512 231.373659 
L 197.681863 233.056351 
L 69.617143 297.578979 
L 192.370291 270.716826 
L 281.511545 335.889997 
z
" clip-path="url(#p2cc50699d2)" style="fill: #e377c2; opacity: 0.25; stroke: #e377c2; stroke-linejoin: miter"/>
   </g>
   <g id="matplotlib.axis_1">
    <g id="xtick_1">
     <g id="line2d_1">
      <path d="M 200.640812 234.481306 
L 382.230031 234.481306 
" clip-path="url(#p2cc50699d2)" style="fill: none; stroke: #b0b0b0; stroke-width: 0.8; stroke-linecap: square"/>
     </g>
     <g id="text_1">
      <!-- Accuracy -->
      <g transform="translate(371.119093 237.338728) scale(0.11 -0.11)">
       <defs>
        <path id="DejaVuSans-24" d="M 2188 4044 
L 1331 1722 
L 3047 1722 
L 2188 4044 
z
M 1831 4666 
L 2547 4666 
L 4325 0 
L 3669 0 
L 3244 1197 
L 1141 1197 
L 716 0 
L 50 0 
L 1831 4666 
z
" transform="scale(0.015625)"/>
        <path id="DejaVuSans-46" d="M 3122 3366 
L 3122 2828 
Q 2878 2963 2633 3030 
Q 2388 3097 2138 3097 
Q 1578 3097 1268 2742 
Q 959 2388 959 1747 
Q 959 1106 1268 751 
Q 1578 397 2138 397 
Q 2388 397 2633 464 
Q 2878 531 3122 666 
L 3122 134 
Q 2881 22 2623 -34 
Q 2366 -91 2075 -91 
Q 1284 -91 818 406 
Q 353 903 353 1747 
Q 353 2603 823 3093 
Q 1294 3584 2113 3584 
Q 2378 3584 2631 3529 
Q 2884 3475 3122 3366 
z
" transform="scale(0.015625)"/>
        <path id="DejaVuSans-58" d="M 544 1381 
L 544 3500 
L 1119 3500 
L 1119 1403 
Q 1119 906 1312 657 
Q 1506 409 1894 409 
Q 2359 409 2629 706 
Q 2900 1003 2900 1516 
L 2900 3500 
L 3475 3500 
L 3475 0 
L 2900 0 
L 2900 538 
Q 2691 219 2414 64 
Q 2138 -91 1772 -91 
Q 1169 -91 856 284 
Q 544 659 544 1381 
z
M 1991 3584 
L 1991 3584 
z
" transform="scale(0.015625)"/>
        <path id="DejaVuSans-55" d="M 2631 2963 
Q 2534 3019 2420 3045 
Q 2306 3072 2169 3072 
Q 1681 3072 1420 2755 
Q 1159 2438 1159 1844 
L 1159 0 
L 581 0 
L 581 3500 
L 1159 3500 
L 1159 2956 
Q 1341 3275 1631 3429 
Q 1922 3584 2338 3584 
Q 2397 3584 2469 3576 
Q 2541 3569 2628 3553 
L 2631 2963 
z
" transform="scale(0.015625)"/>
        <path id="DejaVuSans-44" d="M 2194 1759 
Q 1497 1759 1228 1600 
Q 959 1441 959 1056 
Q 959 750 1161 570 
Q 1363 391 1709 391 
Q 2188 391 2477 730 
Q 2766 1069 2766 1631 
L 2766 1759 
L 2194 1759 
z
M 3341 1997 
L 3341 0 
L 2766 0 
L 2766 531 
Q 2569 213 2275 61 
Q 1981 -91 1556 -91 
Q 1019 -91 701 211 
Q 384 513 384 1019 
Q 384 1609 779 1909 
Q 1175 2209 1959 2209 
L 2766 2209 
L 2766 2266 
Q 2766 2663 2505 2880 
Q 2244 3097 1772 3097 
Q 1472 3097 1187 3025 
Q 903 2953 641 2809 
L 641 3341 
Q 956 3463 1253 3523 
Q 1550 3584 1831 3584 
Q 2591 3584 2966 3190 
Q 3341 2797 3341 1997 
z
" transform="scale(0.015625)"/>
        <path id="DejaVuSans-5c" d="M 2059 -325 
Q 1816 -950 1584 -1140 
Q 1353 -1331 966 -1331 
L 506 -1331 
L 506 -850 
L 844 -850 
Q 1081 -850 1212 -737 
Q 1344 -625 1503 -206 
L 1606 56 
L 191 3500 
L 800 3500 
L 1894 763 
L 2988 3500 
L 3597 3500 
L 2059 -325 
z
" transform="scale(0.015625)"/>
       </defs>
       <use xlink:href="#DejaVuSans-24"/>
       <use xlink:href="#DejaVuSans-46" transform="translate(66.65625 0)"/>
       <use xlink:href="#DejaVuSans-46" transform="translate(121.640625 0)"/>
       <use xlink:href="#DejaVuSans-58" transform="translate(176.625 0)"/>
       <use xlink:href="#DejaVuSans-55" transform="translate(240 0)"/>
       <use xlink:href="#DejaVuSans-44" transform="translate(281.109375 0)"/>
       <use xlink:href="#DejaVuSans-46" transform="translate(342.390625 0)"/>
       <use xlink:href="#DejaVuSans-5c" transform="translate(397.375 0)"/>
      </g>
     </g>
    </g>
    <g id="xtick_2">
     <g id="line2d_2">
      <path d="M 200.640812 234.481306 
L 313.859838 92.509138 
" clip-path="url(#p2cc50699d2)" style="fill: none; stroke: #b0b0b0; stroke-width: 0.8; stroke-linecap: square"/>
     </g>
     <g id="text_2">
      <!-- F1_Score -->
      <g transform="translate(297.770805 84.420919) scale(0.11 -0.11)">
       <defs>
        <path id="DejaVuSans-29" d="M 628 4666 
L 3309 4666 
L 3309 4134 
L 1259 4134 
L 1259 2759 
L 3109 2759 
L 3109 2228 
L 1259 2228 
L 1259 0 
L 628 0 
L 628 4666 
z
" transform="scale(0.015625)"/>
        <path id="DejaVuSans-14" d="M 794 531 
L 1825 531 
L 1825 4091 
L 703 3866 
L 703 4441 
L 1819 4666 
L 2450 4666 
L 2450 531 
L 3481 531 
L 3481 0 
L 794 0 
L 794 531 
z
" transform="scale(0.015625)"/>
        <path id="DejaVuSans-42" d="M 3263 -1063 
L 3263 -1509 
L -63 -1509 
L -63 -1063 
L 3263 -1063 
z
" transform="scale(0.015625)"/>
        <path id="DejaVuSans-36" d="M 3425 4513 
L 3425 3897 
Q 3066 4069 2747 4153 
Q 2428 4238 2131 4238 
Q 1616 4238 1336 4038 
Q 1056 3838 1056 3469 
Q 1056 3159 1242 3001 
Q 1428 2844 1947 2747 
L 2328 2669 
Q 3034 2534 3370 2195 
Q 3706 1856 3706 1288 
Q 3706 609 3251 259 
Q 2797 -91 1919 -91 
Q 1588 -91 1214 -16 
Q 841 59 441 206 
L 441 856 
Q 825 641 1194 531 
Q 1563 422 1919 422 
Q 2459 422 2753 634 
Q 3047 847 3047 1241 
Q 3047 1584 2836 1778 
Q 2625 1972 2144 2069 
L 1759 2144 
Q 1053 2284 737 2584 
Q 422 2884 422 3419 
Q 422 4038 858 4394 
Q 1294 4750 2059 4750 
Q 2388 4750 2728 4690 
Q 3069 4631 3425 4513 
z
" transform="scale(0.015625)"/>
        <path id="DejaVuSans-52" d="M 1959 3097 
Q 1497 3097 1228 2736 
Q 959 2375 959 1747 
Q 959 1119 1226 758 
Q 1494 397 1959 397 
Q 2419 397 2687 759 
Q 2956 1122 2956 1747 
Q 2956 2369 2687 2733 
Q 2419 3097 1959 3097 
z
M 1959 3584 
Q 2709 3584 3137 3096 
Q 3566 2609 3566 1747 
Q 3566 888 3137 398 
Q 2709 -91 1959 -91 
Q 1206 -91 779 398 
Q 353 888 353 1747 
Q 353 2609 779 3096 
Q 1206 3584 1959 3584 
z
" transform="scale(0.015625)"/>
        <path id="DejaVuSans-48" d="M 3597 1894 
L 3597 1613 
L 953 1613 
Q 991 1019 1311 708 
Q 1631 397 2203 397 
Q 2534 397 2845 478 
Q 3156 559 3463 722 
L 3463 178 
Q 3153 47 2828 -22 
Q 2503 -91 2169 -91 
Q 1331 -91 842 396 
Q 353 884 353 1716 
Q 353 2575 817 3079 
Q 1281 3584 2069 3584 
Q 2775 3584 3186 3129 
Q 3597 2675 3597 1894 
z
M 3022 2063 
Q 3016 2534 2758 2815 
Q 2500 3097 2075 3097 
Q 1594 3097 1305 2825 
Q 1016 2553 972 2059 
L 3022 2063 
z
" transform="scale(0.015625)"/>
       </defs>
       <use xlink:href="#DejaVuSans-29"/>
       <use xlink:href="#DejaVuSans-14" transform="translate(57.515625 0)"/>
       <use xlink:href="#DejaVuSans-42" transform="translate(121.140625 0)"/>
       <use xlink:href="#DejaVuSans-36" transform="translate(171.140625 0)"/>
       <use xlink:href="#DejaVuSans-46" transform="translate(234.625 0)"/>
       <use xlink:href="#DejaVuSans-52" transform="translate(289.609375 0)"/>
       <use xlink:href="#DejaVuSans-55" transform="translate(350.796875 0)"/>
       <use xlink:href="#DejaVuSans-48" transform="translate(389.703125 0)"/>
      </g>
     </g>
    </g>
    <g id="xtick_3">
     <g id="line2d_3">
      <path d="M 200.640812 234.481306 
L 160.23341 57.444908 
" clip-path="url(#p2cc50699d2)" style="fill: none; stroke: #b0b0b0; stroke-width: 0.8; stroke-linecap: square"/>
     </g>
     <g id="text_3">
      <!-- Leaves -->
      <g transform="translate(137.89046 46.653339) scale(0.11 -0.11)">
       <defs>
        <path id="DejaVuSans-2f" d="M 628 4666 
L 1259 4666 
L 1259 531 
L 3531 531 
L 3531 0 
L 628 0 
L 628 4666 
z
" transform="scale(0.015625)"/>
        <path id="DejaVuSans-59" d="M 191 3500 
L 800 3500 
L 1894 563 
L 2988 3500 
L 3597 3500 
L 2284 0 
L 1503 0 
L 191 3500 
z
" transform="scale(0.015625)"/>
        <path id="DejaVuSans-56" d="M 2834 3397 
L 2834 2853 
Q 2591 2978 2328 3040 
Q 2066 3103 1784 3103 
Q 1356 3103 1142 2972 
Q 928 2841 928 2578 
Q 928 2378 1081 2264 
Q 1234 2150 1697 2047 
L 1894 2003 
Q 2506 1872 2764 1633 
Q 3022 1394 3022 966 
Q 3022 478 2636 193 
Q 2250 -91 1575 -91 
Q 1294 -91 989 -36 
Q 684 19 347 128 
L 347 722 
Q 666 556 975 473 
Q 1284 391 1588 391 
Q 1994 391 2212 530 
Q 2431 669 2431 922 
Q 2431 1156 2273 1281 
Q 2116 1406 1581 1522 
L 1381 1569 
Q 847 1681 609 1914 
Q 372 2147 372 2553 
Q 372 3047 722 3315 
Q 1072 3584 1716 3584 
Q 2034 3584 2315 3537 
Q 2597 3491 2834 3397 
z
" transform="scale(0.015625)"/>
       </defs>
       <use xlink:href="#DejaVuSans-2f"/>
       <use xlink:href="#DejaVuSans-48" transform="translate(53.96875 0)"/>
       <use xlink:href="#DejaVuSans-44" transform="translate(115.5 0)"/>
       <use xlink:href="#DejaVuSans-59" transform="translate(176.78125 0)"/>
       <use xlink:href="#DejaVuSans-48" transform="translate(235.96875 0)"/>
       <use xlink:href="#DejaVuSans-56" transform="translate(297.5 0)"/>
      </g>
     </g>
    </g>
    <g id="xtick_4">
     <g id="line2d_4">
      <path d="M 200.640812 234.481306 
L 37.03458 155.692697 
" clip-path="url(#p2cc50699d2)" style="fill: none; stroke: #b0b0b0; stroke-width: 0.8; stroke-linecap: square"/>
     </g>
     <g id="text_4">
      <!-- Nodes -->
      <g transform="translate(7.2 152.476176) scale(0.11 -0.11)">
       <defs>
        <path id="DejaVuSans-31" d="M 628 4666 
L 1478 4666 
L 3547 763 
L 3547 4666 
L 4159 4666 
L 4159 0 
L 3309 0 
L 1241 3903 
L 1241 0 
L 628 0 
L 628 4666 
z
" transform="scale(0.015625)"/>
        <path id="DejaVuSans-47" d="M 2906 2969 
L 2906 4863 
L 3481 4863 
L 3481 0 
L 2906 0 
L 2906 525 
Q 2725 213 2448 61 
Q 2172 -91 1784 -91 
Q 1150 -91 751 415 
Q 353 922 353 1747 
Q 353 2572 751 3078 
Q 1150 3584 1784 3584 
Q 2172 3584 2448 3432 
Q 2725 3281 2906 2969 
z
M 947 1747 
Q 947 1113 1208 752 
Q 1469 391 1925 391 
Q 2381 391 2643 752 
Q 2906 1113 2906 1747 
Q 2906 2381 2643 2742 
Q 2381 3103 1925 3103 
Q 1469 3103 1208 2742 
Q 947 2381 947 1747 
z
" transform="scale(0.015625)"/>
       </defs>
       <use xlink:href="#DejaVuSans-31"/>
       <use xlink:href="#DejaVuSans-52" transform="translate(74.8125 0)"/>
       <use xlink:href="#DejaVuSans-47" transform="translate(136 0)"/>
       <use xlink:href="#DejaVuSans-48" transform="translate(199.484375 0)"/>
       <use xlink:href="#DejaVuSans-56" transform="translate(261.015625 0)"/>
      </g>
     </g>
    </g>
    <g id="xtick_5">
     <g id="line2d_5">
      <path d="M 200.640812 234.481306 
L 37.03458 313.269915 
" clip-path="url(#p2cc50699d2)" style="fill: none; stroke: #b0b0b0; stroke-width: 0.8; stroke-linecap: square"/>
     </g>
     <g id="text_5">
      <!-- Depth -->
      <g transform="translate(7.668359 322.202139) scale(0.11 -0.11)">
       <defs>
        <path id="DejaVuSans-27" d="M 1259 4147 
L 1259 519 
L 2022 519 
Q 2988 519 3436 956 
Q 3884 1394 3884 2338 
Q 3884 3275 3436 3711 
Q 2988 4147 2022 4147 
L 1259 4147 
z
M 628 4666 
L 1925 4666 
Q 3281 4666 3915 4102 
Q 4550 3538 4550 2338 
Q 4550 1131 3912 565 
Q 3275 0 1925 0 
L 628 0 
L 628 4666 
z
" transform="scale(0.015625)"/>
        <path id="DejaVuSans-53" d="M 1159 525 
L 1159 -1331 
L 581 -1331 
L 581 3500 
L 1159 3500 
L 1159 2969 
Q 1341 3281 1617 3432 
Q 1894 3584 2278 3584 
Q 2916 3584 3314 3078 
Q 3713 2572 3713 1747 
Q 3713 922 3314 415 
Q 2916 -91 2278 -91 
Q 1894 -91 1617 61 
Q 1341 213 1159 525 
z
M 3116 1747 
Q 3116 2381 2855 2742 
Q 2594 3103 2138 3103 
Q 1681 3103 1420 2742 
Q 1159 2381 1159 1747 
Q 1159 1113 1420 752 
Q 1681 391 2138 391 
Q 2594 391 2855 752 
Q 3116 1113 3116 1747 
z
" transform="scale(0.015625)"/>
        <path id="DejaVuSans-57" d="M 1172 4494 
L 1172 3500 
L 2356 3500 
L 2356 3053 
L 1172 3053 
L 1172 1153 
Q 1172 725 1289 603 
Q 1406 481 1766 481 
L 2356 481 
L 2356 0 
L 1766 0 
Q 1100 0 847 248 
Q 594 497 594 1153 
L 594 3053 
L 172 3053 
L 172 3500 
L 594 3500 
L 594 4494 
L 1172 4494 
z
" transform="scale(0.015625)"/>
        <path id="DejaVuSans-4b" d="M 3513 2113 
L 3513 0 
L 2938 0 
L 2938 2094 
Q 2938 2591 2744 2837 
Q 2550 3084 2163 3084 
Q 1697 3084 1428 2787 
Q 1159 2491 1159 1978 
L 1159 0 
L 581 0 
L 581 4863 
L 1159 4863 
L 1159 2956 
Q 1366 3272 1645 3428 
Q 1925 3584 2291 3584 
Q 2894 3584 3203 3211 
Q 3513 2838 3513 2113 
z
" transform="scale(0.015625)"/>
       </defs>
       <use xlink:href="#DejaVuSans-27"/>
       <use xlink:href="#DejaVuSans-48" transform="translate(77 0)"/>
       <use xlink:href="#DejaVuSans-53" transform="translate(138.53125 0)"/>
       <use xlink:href="#DejaVuSans-57" transform="translate(202.015625 0)"/>
       <use xlink:href="#DejaVuSans-4b" transform="translate(241.21875 0)"/>
      </g>
     </g>
    </g>
    <g id="xtick_6">
     <g id="line2d_6">
      <path d="M 200.640812 234.481306 
L 160.23341 411.517703 
" clip-path="url(#p2cc50699d2)" style="fill: none; stroke: #b0b0b0; stroke-width: 0.8; stroke-linecap: square"/>
     </g>
     <g id="text_6">
      <!-- n_Features -->
      <g transform="translate(127.23421 428.024116) scale(0.11 -0.11)">
       <defs>
        <path id="DejaVuSans-51" d="M 3513 2113 
L 3513 0 
L 2938 0 
L 2938 2094 
Q 2938 2591 2744 2837 
Q 2550 3084 2163 3084 
Q 1697 3084 1428 2787 
Q 1159 2491 1159 1978 
L 1159 0 
L 581 0 
L 581 3500 
L 1159 3500 
L 1159 2956 
Q 1366 3272 1645 3428 
Q 1925 3584 2291 3584 
Q 2894 3584 3203 3211 
Q 3513 2838 3513 2113 
z
" transform="scale(0.015625)"/>
       </defs>
       <use xlink:href="#DejaVuSans-51"/>
       <use xlink:href="#DejaVuSans-42" transform="translate(63.375 0)"/>
       <use xlink:href="#DejaVuSans-29" transform="translate(113.375 0)"/>
       <use xlink:href="#DejaVuSans-48" transform="translate(165.421875 0)"/>
       <use xlink:href="#DejaVuSans-44" transform="translate(226.953125 0)"/>
       <use xlink:href="#DejaVuSans-57" transform="translate(288.234375 0)"/>
       <use xlink:href="#DejaVuSans-58" transform="translate(327.4375 0)"/>
       <use xlink:href="#DejaVuSans-55" transform="translate(390.8125 0)"/>
       <use xlink:href="#DejaVuSans-48" transform="translate(429.71875 0)"/>
       <use xlink:href="#DejaVuSans-56" transform="translate(491.25 0)"/>
      </g>
     </g>
    </g>
    <g id="xtick_7">
     <g id="line2d_7">
      <path d="M 200.640812 234.481306 
L 313.859838 376.453474 
" clip-path="url(#p2cc50699d2)" style="fill: none; stroke: #b0b0b0; stroke-width: 0.8; stroke-linecap: square"/>
     </g>
     <g id="text_7">
      <!-- Inference_Time_ms -->
      <g transform="translate(269.560102 390.256966) scale(0.11 -0.11)">
       <defs>
        <path id="DejaVuSans-2c" d="M 628 4666 
L 1259 4666 
L 1259 0 
L 628 0 
L 628 4666 
z
" transform="scale(0.015625)"/>
        <path id="DejaVuSans-49" d="M 2375 4863 
L 2375 4384 
L 1825 4384 
Q 1516 4384 1395 4259 
Q 1275 4134 1275 3809 
L 1275 3500 
L 2222 3500 
L 2222 3053 
L 1275 3053 
L 1275 0 
L 697 0 
L 697 3053 
L 147 3053 
L 147 3500 
L 697 3500 
L 697 3744 
Q 697 4328 969 4595 
Q 1241 4863 1831 4863 
L 2375 4863 
z
" transform="scale(0.015625)"/>
        <path id="DejaVuSans-37" d="M -19 4666 
L 3928 4666 
L 3928 4134 
L 2272 4134 
L 2272 0 
L 1638 0 
L 1638 4134 
L -19 4134 
L -19 4666 
z
" transform="scale(0.015625)"/>
        <path id="DejaVuSans-4c" d="M 603 3500 
L 1178 3500 
L 1178 0 
L 603 0 
L 603 3500 
z
M 603 4863 
L 1178 4863 
L 1178 4134 
L 603 4134 
L 603 4863 
z
" transform="scale(0.015625)"/>
        <path id="DejaVuSans-50" d="M 3328 2828 
Q 3544 3216 3844 3400 
Q 4144 3584 4550 3584 
Q 5097 3584 5394 3201 
Q 5691 2819 5691 2113 
L 5691 0 
L 5113 0 
L 5113 2094 
Q 5113 2597 4934 2840 
Q 4756 3084 4391 3084 
Q 3944 3084 3684 2787 
Q 3425 2491 3425 1978 
L 3425 0 
L 2847 0 
L 2847 2094 
Q 2847 2600 2669 2842 
Q 2491 3084 2119 3084 
Q 1678 3084 1418 2786 
Q 1159 2488 1159 1978 
L 1159 0 
L 581 0 
L 581 3500 
L 1159 3500 
L 1159 2956 
Q 1356 3278 1631 3431 
Q 1906 3584 2284 3584 
Q 2666 3584 2933 3390 
Q 3200 3197 3328 2828 
z
" transform="scale(0.015625)"/>
       </defs>
       <use xlink:href="#DejaVuSans-2c"/>
       <use xlink:href="#DejaVuSans-51" transform="translate(29.5 0)"/>
       <use xlink:href="#DejaVuSans-49" transform="translate(92.875 0)"/>
       <use xlink:href="#DejaVuSans-48" transform="translate(128.078125 0)"/>
       <use xlink:href="#DejaVuSans-55" transform="translate(189.609375 0)"/>
       <use xlink:href="#DejaVuSans-48" transform="translate(228.515625 0)"/>
       <use xlink:href="#DejaVuSans-51" transform="translate(290.046875 0)"/>
       <use xlink:href="#DejaVuSans-46" transform="translate(353.421875 0)"/>
       <use xlink:href="#DejaVuSans-48" transform="translate(408.40625 0)"/>
       <use xlink:href="#DejaVuSans-42" transform="translate(469.9375 0)"/>
       <use xlink:href="#DejaVuSans-37" transform="translate(519.9375 0)"/>
       <use xlink:href="#DejaVuSans-4c" transform="translate(577.9375 0)"/>
       <use xlink:href="#DejaVuSans-50" transform="translate(605.71875 0)"/>
       <use xlink:href="#DejaVuSans-48" transform="translate(703.125 0)"/>
       <use xlink:href="#DejaVuSans-42" transform="translate(764.65625 0)"/>
       <use xlink:href="#DejaVuSans-50" transform="translate(814.65625 0)"/>
       <use xlink:href="#DejaVuSans-56" transform="translate(912.0625 0)"/>
      </g>
     </g>
    </g>
   </g>
   <g id="matplotlib.axis_2">
    <g id="ytick_1">
     <g id="line2d_8">
      <path d="M 236.958656 234.481306 
C 236.958656 229.71209 236.019224 224.989249 234.194125 220.583069 
C 232.369025 216.176888 229.69375 212.173057 226.321406 208.800712 
C 222.949061 205.428368 218.94523 202.753093 214.539049 200.927993 
C 210.132869 199.102894 205.410028 198.163462 200.640812 198.163462 
C 195.871597 198.163462 191.148756 199.102894 186.742575 200.927993 
C 182.336395 202.753093 178.332563 205.428368 174.960219 208.800712 
C 171.587874 212.173057 168.9126 216.176888 167.0875 220.583069 
C 165.2624 224.989249 164.322969 229.71209 164.322969 234.481306 
C 164.322969 239.250521 165.2624 243.973362 167.0875 248.379543 
C 168.9126 252.785723 171.587874 256.789555 174.960219 260.161899 
C 178.332563 263.534244 182.336395 266.209518 186.742575 268.034618 
C 191.148756 269.859718 195.871597 270.799149 200.640812 270.799149 
C 205.410028 270.799149 210.132869 269.859718 214.539049 268.034618 
C 218.94523 266.209518 222.949061 263.534244 226.321406 260.161899 
C 229.69375 256.789555 232.369025 252.785723 234.194125 248.379543 
C 236.019224 243.973362 236.958656 239.250521 236.958656 234.481306 
" clip-path="url(#p2cc50699d2)" style="fill: none; stroke: #b0b0b0; stroke-width: 0.8; stroke-linecap: square"/>
     </g>
     <g id="text_8">
      <!-- 20% -->
      <g transform="translate(234.194125 218.180725) scale(0.1 -0.1)">
       <defs>
        <path id="DejaVuSans-15" d="M 1228 531 
L 3431 531 
L 3431 0 
L 469 0 
L 469 531 
Q 828 903 1448 1529 
Q 2069 2156 2228 2338 
Q 2531 2678 2651 2914 
Q 2772 3150 2772 3378 
Q 2772 3750 2511 3984 
Q 2250 4219 1831 4219 
Q 1534 4219 1204 4116 
Q 875 4013 500 3803 
L 500 4441 
Q 881 4594 1212 4672 
Q 1544 4750 1819 4750 
Q 2544 4750 2975 4387 
Q 3406 4025 3406 3419 
Q 3406 3131 3298 2873 
Q 3191 2616 2906 2266 
Q 2828 2175 2409 1742 
Q 1991 1309 1228 531 
z
" transform="scale(0.015625)"/>
        <path id="DejaVuSans-13" d="M 2034 4250 
Q 1547 4250 1301 3770 
Q 1056 3291 1056 2328 
Q 1056 1369 1301 889 
Q 1547 409 2034 409 
Q 2525 409 2770 889 
Q 3016 1369 3016 2328 
Q 3016 3291 2770 3770 
Q 2525 4250 2034 4250 
z
M 2034 4750 
Q 2819 4750 3233 4129 
Q 3647 3509 3647 2328 
Q 3647 1150 3233 529 
Q 2819 -91 2034 -91 
Q 1250 -91 836 529 
Q 422 1150 422 2328 
Q 422 3509 836 4129 
Q 1250 4750 2034 4750 
z
" transform="scale(0.015625)"/>
        <path id="DejaVuSans-8" d="M 4653 2053 
Q 4381 2053 4226 1822 
Q 4072 1591 4072 1178 
Q 4072 772 4226 539 
Q 4381 306 4653 306 
Q 4919 306 5073 539 
Q 5228 772 5228 1178 
Q 5228 1588 5073 1820 
Q 4919 2053 4653 2053 
z
M 4653 2450 
Q 5147 2450 5437 2106 
Q 5728 1763 5728 1178 
Q 5728 594 5436 251 
Q 5144 -91 4653 -91 
Q 4153 -91 3862 251 
Q 3572 594 3572 1178 
Q 3572 1766 3864 2108 
Q 4156 2450 4653 2450 
z
M 1428 4353 
Q 1159 4353 1004 4120 
Q 850 3888 850 3481 
Q 850 3069 1003 2837 
Q 1156 2606 1428 2606 
Q 1700 2606 1854 2837 
Q 2009 3069 2009 3481 
Q 2009 3884 1853 4118 
Q 1697 4353 1428 4353 
z
M 4250 4750 
L 4750 4750 
L 1831 -91 
L 1331 -91 
L 4250 4750 
z
M 1428 4750 
Q 1922 4750 2215 4408 
Q 2509 4066 2509 3481 
Q 2509 2891 2217 2550 
Q 1925 2209 1428 2209 
Q 931 2209 642 2551 
Q 353 2894 353 3481 
Q 353 4063 643 4406 
Q 934 4750 1428 4750 
z
" transform="scale(0.015625)"/>
       </defs>
       <use xlink:href="#DejaVuSans-15"/>
       <use xlink:href="#DejaVuSans-13" transform="translate(63.625 0)"/>
       <use xlink:href="#DejaVuSans-8" transform="translate(127.25 0)"/>
      </g>
     </g>
    </g>
    <g id="ytick_2">
     <g id="line2d_9">
      <path d="M 273.2765 234.481306 
C 273.2765 224.942875 271.397637 215.497193 267.747437 206.684832 
C 264.097238 197.87247 258.746689 189.864808 252.001999 183.120119 
C 245.25731 176.375429 237.249648 171.02488 228.437286 167.374681 
C 219.624925 163.724481 210.179243 161.845618 200.640812 161.845618 
C 191.102381 161.845618 181.656699 163.724481 172.844338 167.374681 
C 164.031977 171.02488 156.024314 176.375429 149.279625 183.120119 
C 142.534936 189.864808 137.184387 197.87247 133.534187 206.684832 
C 129.883988 215.497193 128.005125 224.942875 128.005125 234.481306 
C 128.005125 244.019737 129.883988 253.465419 133.534187 262.27778 
C 137.184387 271.090141 142.534936 279.097804 149.279625 285.842493 
C 156.024314 292.587182 164.031977 297.937731 172.844338 301.587931 
C 181.656699 305.23813 191.102381 307.116993 200.640812 307.116993 
C 210.179243 307.116993 219.624925 305.23813 228.437286 301.587931 
C 237.249648 297.937731 245.25731 292.587182 252.001999 285.842493 
C 258.746689 279.097804 264.097238 271.090141 267.747437 262.27778 
C 271.397637 253.465419 273.2765 244.019737 273.2765 234.481306 
" clip-path="url(#p2cc50699d2)" style="fill: none; stroke: #b0b0b0; stroke-width: 0.8; stroke-linecap: square"/>
     </g>
     <g id="text_9">
      <!-- 40% -->
      <g transform="translate(267.747437 204.282488) scale(0.1 -0.1)">
       <defs>
        <path id="DejaVuSans-17" d="M 2419 4116 
L 825 1625 
L 2419 1625 
L 2419 4116 
z
M 2253 4666 
L 3047 4666 
L 3047 1625 
L 3713 1625 
L 3713 1100 
L 3047 1100 
L 3047 0 
L 2419 0 
L 2419 1100 
L 313 1100 
L 313 1709 
L 2253 4666 
z
" transform="scale(0.015625)"/>
       </defs>
       <use xlink:href="#DejaVuSans-17"/>
       <use xlink:href="#DejaVuSans-13" transform="translate(63.625 0)"/>
       <use xlink:href="#DejaVuSans-8" transform="translate(127.25 0)"/>
      </g>
     </g>
    </g>
    <g id="ytick_3">
     <g id="line2d_10">
      <path d="M 309.594343 234.481306 
C 309.594343 220.173659 306.776049 206.005136 301.30075 192.786595 
C 295.82545 179.568053 287.799627 167.556559 277.682593 157.439525 
C 267.565559 147.322491 255.554065 139.296668 242.335523 133.821368 
C 229.116982 128.346069 214.948459 125.527775 200.640812 125.527775 
C 186.333166 125.527775 172.164643 128.346069 158.946101 133.821368 
C 145.727559 139.296668 133.716066 147.322491 123.599032 157.439525 
C 113.481998 167.556559 105.456174 179.568053 99.980875 192.786595 
C 94.505576 206.005136 91.687281 220.173659 91.687281 234.481306 
C 91.687281 248.788952 94.505576 262.957475 99.980875 276.176017 
C 105.456174 289.394559 113.481998 301.406052 123.599032 311.523086 
C 133.716066 321.64012 145.727559 329.665944 158.946101 335.141243 
C 172.164643 340.616542 186.333166 343.434837 200.640812 343.434837 
C 214.948459 343.434837 229.116982 340.616542 242.335523 335.141243 
C 255.554065 329.665944 267.565559 321.64012 277.682593 311.523086 
C 287.799627 301.406052 295.82545 289.394559 301.30075 276.176017 
C 306.776049 262.957475 309.594343 248.788952 309.594343 234.481306 
" clip-path="url(#p2cc50699d2)" style="fill: none; stroke: #b0b0b0; stroke-width: 0.8; stroke-linecap: square"/>
     </g>
     <g id="text_10">
      <!-- 60% -->
      <g transform="translate(301.30075 190.384251) scale(0.1 -0.1)">
       <defs>
        <path id="DejaVuSans-19" d="M 2113 2584 
Q 1688 2584 1439 2293 
Q 1191 2003 1191 1497 
Q 1191 994 1439 701 
Q 1688 409 2113 409 
Q 2538 409 2786 701 
Q 3034 994 3034 1497 
Q 3034 2003 2786 2293 
Q 2538 2584 2113 2584 
z
M 3366 4563 
L 3366 3988 
Q 3128 4100 2886 4159 
Q 2644 4219 2406 4219 
Q 1781 4219 1451 3797 
Q 1122 3375 1075 2522 
Q 1259 2794 1537 2939 
Q 1816 3084 2150 3084 
Q 2853 3084 3261 2657 
Q 3669 2231 3669 1497 
Q 3669 778 3244 343 
Q 2819 -91 2113 -91 
Q 1303 -91 875 529 
Q 447 1150 447 2328 
Q 447 3434 972 4092 
Q 1497 4750 2381 4750 
Q 2619 4750 2861 4703 
Q 3103 4656 3366 4563 
z
" transform="scale(0.015625)"/>
       </defs>
       <use xlink:href="#DejaVuSans-19"/>
       <use xlink:href="#DejaVuSans-13" transform="translate(63.625 0)"/>
       <use xlink:href="#DejaVuSans-8" transform="translate(127.25 0)"/>
      </g>
     </g>
    </g>
    <g id="ytick_4">
     <g id="line2d_11">
      <path d="M 345.912187 234.481306 
C 345.912187 215.404444 342.154461 196.51308 334.854062 178.888358 
C 327.553663 161.263635 316.852565 145.24831 303.363186 131.758932 
C 289.873808 118.269553 273.858483 107.568455 256.233761 100.268056 
C 238.609038 92.967657 219.717674 89.209931 200.640812 89.209931 
C 181.56395 89.209931 162.672586 92.967657 145.047864 100.268056 
C 127.423142 107.568455 111.407817 118.269553 97.918438 131.758932 
C 84.42906 145.24831 73.727962 161.263635 66.427563 178.888358 
C 59.127163 196.51308 55.369438 215.404444 55.369438 234.481306 
C 55.369438 253.558168 59.127163 272.449532 66.427563 290.074254 
C 73.727962 307.698977 84.42906 323.714301 97.918438 337.20368 
C 111.407817 350.693059 127.423142 361.394156 145.047864 368.694556 
C 162.672586 375.994955 181.56395 379.75268 200.640812 379.75268 
C 219.717674 379.75268 238.609038 375.994955 256.233761 368.694556 
C 273.858483 361.394156 289.873808 350.693059 303.363186 337.20368 
C 316.852565 323.714301 327.553663 307.698977 334.854062 290.074254 
C 342.154461 272.449532 345.912187 253.558168 345.912187 234.481306 
" clip-path="url(#p2cc50699d2)" style="fill: none; stroke: #b0b0b0; stroke-width: 0.8; stroke-linecap: square"/>
     </g>
     <g id="text_11">
      <!-- 80% -->
      <g transform="translate(334.854062 176.486014) scale(0.1 -0.1)">
       <defs>
        <path id="DejaVuSans-1b" d="M 2034 2216 
Q 1584 2216 1326 1975 
Q 1069 1734 1069 1313 
Q 1069 891 1326 650 
Q 1584 409 2034 409 
Q 2484 409 2743 651 
Q 3003 894 3003 1313 
Q 3003 1734 2745 1975 
Q 2488 2216 2034 2216 
z
M 1403 2484 
Q 997 2584 770 2862 
Q 544 3141 544 3541 
Q 544 4100 942 4425 
Q 1341 4750 2034 4750 
Q 2731 4750 3128 4425 
Q 3525 4100 3525 3541 
Q 3525 3141 3298 2862 
Q 3072 2584 2669 2484 
Q 3125 2378 3379 2068 
Q 3634 1759 3634 1313 
Q 3634 634 3220 271 
Q 2806 -91 2034 -91 
Q 1263 -91 848 271 
Q 434 634 434 1313 
Q 434 1759 690 2068 
Q 947 2378 1403 2484 
z
M 1172 3481 
Q 1172 3119 1398 2916 
Q 1625 2713 2034 2713 
Q 2441 2713 2670 2916 
Q 2900 3119 2900 3481 
Q 2900 3844 2670 4047 
Q 2441 4250 2034 4250 
Q 1625 4250 1398 4047 
Q 1172 3844 1172 3481 
z
" transform="scale(0.015625)"/>
       </defs>
       <use xlink:href="#DejaVuSans-1b"/>
       <use xlink:href="#DejaVuSans-13" transform="translate(63.625 0)"/>
       <use xlink:href="#DejaVuSans-8" transform="translate(127.25 0)"/>
      </g>
     </g>
    </g>
    <g id="ytick_5">
     <g id="line2d_12">
      <path d="M 382.230031 234.481306 
C 382.230031 210.635228 377.532873 187.021024 368.407374 164.99012 
C 359.281876 142.959217 345.905503 122.940061 329.04378 106.078338 
C 312.182057 89.216615 292.162901 75.840242 270.131998 66.714744 
C 248.101095 57.589245 224.48689 52.892087 200.640812 52.892087 
C 176.794735 52.892087 153.18053 57.589245 131.149627 66.714744 
C 109.118724 75.840242 89.099568 89.216615 72.237845 106.078338 
C 55.376121 122.940061 41.999749 142.959217 32.87425 164.99012 
C 23.748751 187.021024 19.051594 210.635228 19.051594 234.481306 
C 19.051594 258.327383 23.748751 281.941588 32.87425 303.972491 
C 41.999749 326.003394 55.376121 346.02255 72.237845 362.884273 
C 89.099568 379.745997 109.118724 393.122369 131.149627 402.247868 
C 153.18053 411.373367 176.794735 416.070524 200.640812 416.070524 
C 224.48689 416.070524 248.101095 411.373367 270.131998 402.247868 
C 292.162901 393.122369 312.182057 379.745997 329.04378 362.884273 
C 345.905503 346.02255 359.281876 326.003394 368.407374 303.972491 
C 377.532873 281.941588 382.230031 258.327383 382.230031 234.481306 
" clip-path="url(#p2cc50699d2)" style="fill: none; stroke: #b0b0b0; stroke-width: 0.8; stroke-linecap: square"/>
     </g>
     <g id="text_12">
      <!-- 100% -->
      <g transform="translate(368.407374 162.587777) scale(0.1 -0.1)">
       <use xlink:href="#DejaVuSans-14"/>
       <use xlink:href="#DejaVuSans-13" transform="translate(63.625 0)"/>
       <use xlink:href="#DejaVuSans-13" transform="translate(127.25 0)"/>
       <use xlink:href="#DejaVuSans-8" transform="translate(190.875 0)"/>
      </g>
     </g>
    </g>
   </g>
   <g id="line2d_13">
    <path d="M 347.977657 234.481306 
L 289.944303 122.49827 
L 162.366984 66.792709 
L 45.9351 159.978961 
L 128.248674 269.343522 
L 183.86347 307.987646 
L 307.482825 368.456952 
L 347.977657 234.481306 
" clip-path="url(#p2cc50699d2)" style="fill: none; stroke: #1f77b4; stroke-width: 2; stroke-linecap: square"/>
   </g>
   <g id="line2d_14">
    <path d="M 351.764351 234.481306 
L 292.545557 119.236401 
L 161.0335 60.950333 
L 40.372275 157.300046 
L 96.396133 284.682897 
L 173.277203 354.369112 
L 307.648073 368.664167 
L 351.764351 234.481306 
" clip-path="url(#p2cc50699d2)" style="fill: none; stroke: #ff7f0e; stroke-width: 2; stroke-linecap: square"/>
   </g>
   <g id="line2d_15">
    <path d="M 348.149779 234.481306 
L 290.028127 122.393159 
L 160.409316 58.215605 
L 37.768399 156.046086 
L 64.543592 300.022273 
L 164.3923 393.296413 
L 307.660443 368.679677 
L 348.149779 234.481306 
" clip-path="url(#p2cc50699d2)" style="fill: none; stroke: #2ca02c; stroke-width: 2; stroke-linecap: square"/>
   </g>
   <g id="line2d_16">
    <path d="M 346.600677 234.481306 
L 287.943529 125.007161 
L 160.443363 58.364772 
L 37.910429 156.114483 
L 80.469863 292.352585 
L 171.197758 363.479757 
L 307.567559 368.563205 
L 346.600677 234.481306 
" clip-path="url(#p2cc50699d2)" style="fill: none; stroke: #d62728; stroke-width: 2; stroke-linecap: square"/>
   </g>
   <g id="line2d_17">
    <path d="M 349.010392 234.481306 
L 290.17012 122.215105 
L 160.511455 58.663106 
L 38.194488 156.251279 
L 81.917706 291.655341 
L 173.655284 352.712631 
L 307.577137 368.575215 
L 349.010392 234.481306 
" clip-path="url(#p2cc50699d2)" style="fill: none; stroke: #9467bd; stroke-width: 2; stroke-linecap: square"/>
   </g>
   <g id="line2d_18">
    <path d="M 352.280719 234.481306 
L 292.870052 118.829497 
L 160.885966 60.303943 
L 39.756813 157.003655 
L 73.230649 295.838807 
L 172.710081 356.853833 
L 307.586755 368.587276 
L 352.280719 234.481306 
" clip-path="url(#p2cc50699d2)" style="fill: none; stroke: #8c564b; stroke-width: 2; stroke-linecap: square"/>
   </g>
   <g id="line2d_19">
    <path d="M 356.928026 234.481306 
L 295.816582 115.134665 
L 199.931512 231.373659 
L 197.681863 233.056351 
L 69.617143 297.578979 
L 192.370291 270.716826 
L 281.511545 335.889997 
L 356.928026 234.481306 
" clip-path="url(#p2cc50699d2)" style="fill: none; stroke: #e377c2; stroke-width: 2; stroke-linecap: square"/>
   </g>
   <g id="patch_10">
    <path d="M 382.230031 234.481306 
C 382.230031 210.635228 377.532873 187.021024 368.407374 164.99012 
C 359.281876 142.959217 345.905503 122.940061 329.04378 106.078338 
C 312.182057 89.216615 292.162901 75.840242 270.131998 66.714744 
C 248.101095 57.589245 224.48689 52.892087 200.640812 52.892087 
C 176.794735 52.892087 153.18053 57.589245 131.149627 66.714744 
C 109.118724 75.840242 89.099568 89.216615 72.237845 106.078338 
C 55.376121 122.940061 41.999749 142.959217 32.87425 164.99012 
C 23.748751 187.021024 19.051594 210.635228 19.051594 234.481306 
C 19.051594 258.327383 23.748751 281.941588 32.87425 303.972491 
C 41.999749 326.003394 55.376121 346.02255 72.237845 362.884273 
C 89.099568 379.745997 109.118724 393.122369 131.149627 402.247868 
C 153.18053 411.373367 176.794735 416.070524 200.640812 416.070524 
C 224.48689 416.070524 248.101095 411.373367 270.131998 402.247868 
C 292.162901 393.122369 312.182057 379.745997 329.04378 362.884273 
C 345.905503 346.02255 359.281876 326.003394 368.407374 303.972491 
C 377.532873 281.941588 382.230031 258.327383 382.230031 234.481306 
" style="fill: none; stroke: #000000; stroke-width: 0.8; stroke-linejoin: miter; stroke-linecap: square"/>
   </g>
   <g id="text_13">
    <!-- Radar Plot – QSARBiodeg -->
    <g transform="translate(112.701125 17.837812) scale(0.14 -0.14)">
     <defs>
      <path id="DejaVuSans-35" d="M 2841 2188 
Q 3044 2119 3236 1894 
Q 3428 1669 3622 1275 
L 4263 0 
L 3584 0 
L 2988 1197 
Q 2756 1666 2539 1819 
Q 2322 1972 1947 1972 
L 1259 1972 
L 1259 0 
L 628 0 
L 628 4666 
L 2053 4666 
Q 2853 4666 3247 4331 
Q 3641 3997 3641 3322 
Q 3641 2881 3436 2590 
Q 3231 2300 2841 2188 
z
M 1259 4147 
L 1259 2491 
L 2053 2491 
Q 2509 2491 2742 2702 
Q 2975 2913 2975 3322 
Q 2975 3731 2742 3939 
Q 2509 4147 2053 4147 
L 1259 4147 
z
" transform="scale(0.015625)"/>
      <path id="DejaVuSans-3" transform="scale(0.015625)"/>
      <path id="DejaVuSans-33" d="M 1259 4147 
L 1259 2394 
L 2053 2394 
Q 2494 2394 2734 2622 
Q 2975 2850 2975 3272 
Q 2975 3691 2734 3919 
Q 2494 4147 2053 4147 
L 1259 4147 
z
M 628 4666 
L 2053 4666 
Q 2838 4666 3239 4311 
Q 3641 3956 3641 3272 
Q 3641 2581 3239 2228 
Q 2838 1875 2053 1875 
L 1259 1875 
L 1259 0 
L 628 0 
L 628 4666 
z
" transform="scale(0.015625)"/>
      <path id="DejaVuSans-4f" d="M 603 4863 
L 1178 4863 
L 1178 0 
L 603 0 
L 603 4863 
z
" transform="scale(0.015625)"/>
      <path id="DejaVuSans-af5" d="M 313 1978 
L 2888 1978 
L 2888 1528 
L 313 1528 
L 313 1978 
z
" transform="scale(0.015625)"/>
      <path id="DejaVuSans-34" d="M 2522 4238 
Q 1834 4238 1429 3725 
Q 1025 3213 1025 2328 
Q 1025 1447 1429 934 
Q 1834 422 2522 422 
Q 3209 422 3611 934 
Q 4013 1447 4013 2328 
Q 4013 3213 3611 3725 
Q 3209 4238 2522 4238 
z
M 3406 84 
L 4238 -825 
L 3475 -825 
L 2784 -78 
Q 2681 -84 2626 -87 
Q 2572 -91 2522 -91 
Q 1538 -91 948 567 
Q 359 1225 359 2328 
Q 359 3434 948 4092 
Q 1538 4750 2522 4750 
Q 3503 4750 4090 4092 
Q 4678 3434 4678 2328 
Q 4678 1516 4351 937 
Q 4025 359 3406 84 
z
" transform="scale(0.015625)"/>
      <path id="DejaVuSans-25" d="M 1259 2228 
L 1259 519 
L 2272 519 
Q 2781 519 3026 730 
Q 3272 941 3272 1375 
Q 3272 1813 3026 2020 
Q 2781 2228 2272 2228 
L 1259 2228 
z
M 1259 4147 
L 1259 2741 
L 2194 2741 
Q 2656 2741 2882 2914 
Q 3109 3088 3109 3444 
Q 3109 3797 2882 3972 
Q 2656 4147 2194 4147 
L 1259 4147 
z
M 628 4666 
L 2241 4666 
Q 2963 4666 3353 4366 
Q 3744 4066 3744 3513 
Q 3744 3084 3544 2831 
Q 3344 2578 2956 2516 
Q 3422 2416 3680 2098 
Q 3938 1781 3938 1306 
Q 3938 681 3513 340 
Q 3088 0 2303 0 
L 628 0 
L 628 4666 
z
" transform="scale(0.015625)"/>
      <path id="DejaVuSans-4a" d="M 2906 1791 
Q 2906 2416 2648 2759 
Q 2391 3103 1925 3103 
Q 1463 3103 1205 2759 
Q 947 2416 947 1791 
Q 947 1169 1205 825 
Q 1463 481 1925 481 
Q 2391 481 2648 825 
Q 2906 1169 2906 1791 
z
M 3481 434 
Q 3481 -459 3084 -895 
Q 2688 -1331 1869 -1331 
Q 1566 -1331 1297 -1286 
Q 1028 -1241 775 -1147 
L 775 -588 
Q 1028 -725 1275 -790 
Q 1522 -856 1778 -856 
Q 2344 -856 2625 -561 
Q 2906 -266 2906 331 
L 2906 616 
Q 2728 306 2450 153 
Q 2172 0 1784 0 
Q 1141 0 747 490 
Q 353 981 353 1791 
Q 353 2603 747 3093 
Q 1141 3584 1784 3584 
Q 2172 3584 2450 3431 
Q 2728 3278 2906 2969 
L 2906 3500 
L 3481 3500 
L 3481 434 
z
" transform="scale(0.015625)"/>
     </defs>
     <use xlink:href="#DejaVuSans-35"/>
     <use xlink:href="#DejaVuSans-44" transform="translate(67.28125 0)"/>
     <use xlink:href="#DejaVuSans-47" transform="translate(128.5625 0)"/>
     <use xlink:href="#DejaVuSans-44" transform="translate(192.046875 0)"/>
     <use xlink:href="#DejaVuSans-55" transform="translate(253.328125 0)"/>
     <use xlink:href="#DejaVuSans-3" transform="translate(294.4375 0)"/>
     <use xlink:href="#DejaVuSans-33" transform="translate(326.21875 0)"/>
     <use xlink:href="#DejaVuSans-4f" transform="translate(386.515625 0)"/>
     <use xlink:href="#DejaVuSans-52" transform="translate(414.296875 0)"/>
     <use xlink:href="#DejaVuSans-57" transform="translate(475.484375 0)"/>
     <use xlink:href="#DejaVuSans-3" transform="translate(514.6875 0)"/>
     <use xlink:href="#DejaVuSans-af5" transform="translate(546.46875 0)"/>
     <use xlink:href="#DejaVuSans-3" transform="translate(596.46875 0)"/>
     <use xlink:href="#DejaVuSans-34" transform="translate(628.25 0)"/>
     <use xlink:href="#DejaVuSans-36" transform="translate(706.96875 0)"/>
     <use xlink:href="#DejaVuSans-24" transform="translate(772.3125 0)"/>
     <use xlink:href="#DejaVuSans-35" transform="translate(840.71875 0)"/>
     <use xlink:href="#DejaVuSans-25" transform="translate(910.203125 0)"/>
     <use xlink:href="#DejaVuSans-4c" transform="translate(978.8125 0)"/>
     <use xlink:href="#DejaVuSans-52" transform="translate(1006.59375 0)"/>
     <use xlink:href="#DejaVuSans-47" transform="translate(1067.78125 0)"/>
     <use xlink:href="#DejaVuSans-48" transform="translate(1131.265625 0)"/>
     <use xlink:href="#DejaVuSans-4a" transform="translate(1192.796875 0)"/>
    </g>
   </g>
   <g id="legend_1">
    <g id="patch_11">
     <path d="M 409.356999 129.579713 
L 484.183562 129.579713 
Q 486.183562 129.579713 486.183562 127.579713 
L 486.183562 23.574244 
Q 486.183562 21.574244 484.183562 21.574244 
L 409.356999 21.574244 
Q 407.356999 21.574244 407.356999 23.574244 
L 407.356999 127.579713 
Q 407.356999 129.579713 409.356999 129.579713 
z
" style="fill: #ffffff; opacity: 0.8; stroke: #cccccc; stroke-linejoin: miter"/>
    </g>
    <g id="line2d_20">
     <path d="M 411.356999 29.672681 
L 421.356999 29.672681 
L 431.356999 29.672681 
" style="fill: none; stroke: #1f77b4; stroke-width: 2; stroke-linecap: square"/>
    </g>
    <g id="text_14">
     <!-- Base -->
     <g transform="translate(439.356999 33.172681) scale(0.1 -0.1)">
      <use xlink:href="#DejaVuSans-25"/>
      <use xlink:href="#DejaVuSans-44" transform="translate(68.609375 0)"/>
      <use xlink:href="#DejaVuSans-56" transform="translate(129.890625 0)"/>
      <use xlink:href="#DejaVuSans-48" transform="translate(181.984375 0)"/>
     </g>
    </g>
    <g id="line2d_21">
     <path d="M 411.356999 44.673463 
L 421.356999 44.673463 
L 431.356999 44.673463 
" style="fill: none; stroke: #ff7f0e; stroke-width: 2; stroke-linecap: square"/>
    </g>
    <g id="text_15">
     <!-- CCP -->
     <g transform="translate(439.356999 48.173463) scale(0.1 -0.1)">
      <defs>
       <path id="DejaVuSans-26" d="M 4122 4306 
L 4122 3641 
Q 3803 3938 3442 4084 
Q 3081 4231 2675 4231 
Q 1875 4231 1450 3742 
Q 1025 3253 1025 2328 
Q 1025 1406 1450 917 
Q 1875 428 2675 428 
Q 3081 428 3442 575 
Q 3803 722 4122 1019 
L 4122 359 
Q 3791 134 3420 21 
Q 3050 -91 2638 -91 
Q 1578 -91 968 557 
Q 359 1206 359 2328 
Q 359 3453 968 4101 
Q 1578 4750 2638 4750 
Q 3056 4750 3426 4639 
Q 3797 4528 4122 4306 
z
" transform="scale(0.015625)"/>
      </defs>
      <use xlink:href="#DejaVuSans-26"/>
      <use xlink:href="#DejaVuSans-26" transform="translate(69.828125 0)"/>
      <use xlink:href="#DejaVuSans-33" transform="translate(139.65625 0)"/>
     </g>
    </g>
    <g id="line2d_22">
     <path d="M 411.356999 59.674244 
L 421.356999 59.674244 
L 431.356999 59.674244 
" style="fill: none; stroke: #2ca02c; stroke-width: 2; stroke-linecap: square"/>
    </g>
    <g id="text_16">
     <!-- SR-CCP -->
     <g transform="translate(439.356999 63.174244) scale(0.1 -0.1)">
      <defs>
       <path id="DejaVuSans-10" d="M 313 2009 
L 1997 2009 
L 1997 1497 
L 313 1497 
L 313 2009 
z
" transform="scale(0.015625)"/>
      </defs>
      <use xlink:href="#DejaVuSans-36"/>
      <use xlink:href="#DejaVuSans-35" transform="translate(63.484375 0)"/>
      <use xlink:href="#DejaVuSans-10" transform="translate(128.921875 0)"/>
      <use xlink:href="#DejaVuSans-26" transform="translate(165 0)"/>
      <use xlink:href="#DejaVuSans-26" transform="translate(234.828125 0)"/>
      <use xlink:href="#DejaVuSans-33" transform="translate(304.65625 0)"/>
     </g>
    </g>
    <g id="line2d_23">
     <path d="M 411.356999 74.675025 
L 421.356999 74.675025 
L 431.356999 74.675025 
" style="fill: none; stroke: #d62728; stroke-width: 2; stroke-linecap: square"/>
    </g>
    <g id="text_17">
     <!-- REP -->
     <g transform="translate(439.356999 78.175025) scale(0.1 -0.1)">
      <defs>
       <path id="DejaVuSans-28" d="M 628 4666 
L 3578 4666 
L 3578 4134 
L 1259 4134 
L 1259 2753 
L 3481 2753 
L 3481 2222 
L 1259 2222 
L 1259 531 
L 3634 531 
L 3634 0 
L 628 0 
L 628 4666 
z
" transform="scale(0.015625)"/>
      </defs>
      <use xlink:href="#DejaVuSans-35"/>
      <use xlink:href="#DejaVuSans-28" transform="translate(69.484375 0)"/>
      <use xlink:href="#DejaVuSans-33" transform="translate(132.671875 0)"/>
     </g>
    </g>
    <g id="line2d_24">
     <path d="M 411.356999 89.675806 
L 421.356999 89.675806 
L 431.356999 89.675806 
" style="fill: none; stroke: #9467bd; stroke-width: 2; stroke-linecap: square"/>
    </g>
    <g id="text_18">
     <!-- MEP -->
     <g transform="translate(439.356999 93.175806) scale(0.1 -0.1)">
      <defs>
       <path id="DejaVuSans-30" d="M 628 4666 
L 1569 4666 
L 2759 1491 
L 3956 4666 
L 4897 4666 
L 4897 0 
L 4281 0 
L 4281 4097 
L 3078 897 
L 2444 897 
L 1241 4097 
L 1241 0 
L 628 0 
L 628 4666 
z
" transform="scale(0.015625)"/>
      </defs>
      <use xlink:href="#DejaVuSans-30"/>
      <use xlink:href="#DejaVuSans-28" transform="translate(86.28125 0)"/>
      <use xlink:href="#DejaVuSans-33" transform="translate(149.46875 0)"/>
     </g>
    </g>
    <g id="line2d_25">
     <path d="M 411.356999 104.676588 
L 421.356999 104.676588 
L 431.356999 104.676588 
" style="fill: none; stroke: #8c564b; stroke-width: 2; stroke-linecap: square"/>
    </g>
    <g id="text_19">
     <!-- DBP -->
     <g transform="translate(439.356999 108.176588) scale(0.1 -0.1)">
      <use xlink:href="#DejaVuSans-27"/>
      <use xlink:href="#DejaVuSans-25" transform="translate(77 0)"/>
      <use xlink:href="#DejaVuSans-33" transform="translate(145.609375 0)"/>
     </g>
    </g>
    <g id="line2d_26">
     <path d="M 411.356999 119.677369 
L 421.356999 119.677369 
L 431.356999 119.677369 
" style="fill: none; stroke: #e377c2; stroke-width: 2; stroke-linecap: square"/>
    </g>
    <g id="text_20">
     <!-- XGBoost -->
     <g transform="translate(439.356999 123.177369) scale(0.1 -0.1)">
      <defs>
       <path id="DejaVuSans-3b" d="M 403 4666 
L 1081 4666 
L 2241 2931 
L 3406 4666 
L 4084 4666 
L 2584 2425 
L 4184 0 
L 3506 0 
L 2194 1984 
L 872 0 
L 191 0 
L 1856 2491 
L 403 4666 
z
" transform="scale(0.015625)"/>
       <path id="DejaVuSans-2a" d="M 3809 666 
L 3809 1919 
L 2778 1919 
L 2778 2438 
L 4434 2438 
L 4434 434 
Q 4069 175 3628 42 
Q 3188 -91 2688 -91 
Q 1594 -91 976 548 
Q 359 1188 359 2328 
Q 359 3472 976 4111 
Q 1594 4750 2688 4750 
Q 3144 4750 3555 4637 
Q 3966 4525 4313 4306 
L 4313 3634 
Q 3963 3931 3569 4081 
Q 3175 4231 2741 4231 
Q 1884 4231 1454 3753 
Q 1025 3275 1025 2328 
Q 1025 1384 1454 906 
Q 1884 428 2741 428 
Q 3075 428 3337 486 
Q 3600 544 3809 666 
z
" transform="scale(0.015625)"/>
      </defs>
      <use xlink:href="#DejaVuSans-3b"/>
      <use xlink:href="#DejaVuSans-2a" transform="translate(68.5 0)"/>
      <use xlink:href="#DejaVuSans-25" transform="translate(145.984375 0)"/>
      <use xlink:href="#DejaVuSans-52" transform="translate(214.59375 0)"/>
      <use xlink:href="#DejaVuSans-52" transform="translate(275.78125 0)"/>
      <use xlink:href="#DejaVuSans-56" transform="translate(336.96875 0)"/>
      <use xlink:href="#DejaVuSans-57" transform="translate(389.0625 0)"/>
     </g>
    </g>
   </g>
  </g>
 </g>
 <defs>
  <clipPath id="p2cc50699d2">
   <path d="M 382.230031 234.481306 
C 382.230031 210.635228 377.532873 187.021024 368.407374 164.99012 
C 359.281876 142.959217 345.905503 122.940061 329.04378 106.078338 
C 312.182057 89.216615 292.162901 75.840242 270.131998 66.714744 
C 248.101095 57.589245 224.48689 52.892087 200.640812 52.892087 
C 176.794735 52.892087 153.18053 57.589245 131.149627 66.714744 
C 109.118724 75.840242 89.099568 89.216615 72.237845 106.078338 
C 55.376121 122.940061 41.999749 142.959217 32.87425 164.99012 
C 23.748751 187.021024 19.051594 210.635228 19.051594 234.481306 
C 19.051594 258.327383 23.748751 281.941588 32.87425 303.972491 
C 41.999749 326.003394 55.376121 346.02255 72.237845 362.884273 
C 89.099568 379.745997 109.118724 393.122369 131.149627 402.247868 
C 153.18053 411.373367 176.794735 416.070524 200.640812 416.070524 
C 224.48689 416.070524 248.101095 411.373367 270.131998 402.247868 
C 292.162901 393.122369 312.182057 379.745997 329.04378 362.884273 
C 345.905503 346.02255 359.281876 326.003394 368.407374 303.972491 
C 377.532873 281.941588 382.230031 258.327383 382.230031 234.481306 
M 200.640812 234.481306 
C 200.640812 234.481306 200.640812 234.481306 200.640812 234.481306 
C 200.640812 234.481306 200.640812 234.481306 200.640812 234.481306 
C 200.640812 234.481306 200.640812 234.481306 200.640812 234.481306 
C 200.640812 234.481306 200.640812 234.481306 200.640812 234.481306 
C 200.640812 234.481306 200.640812 234.481306 200.640812 234.481306 
C 200.640812 234.481306 200.640812 234.481306 200.640812 234.481306 
C 200.640812 234.481306 200.640812 234.481306 200.640812 234.481306 
C 200.640812 234.481306 200.640812 234.481306 200.640812 234.481306 
C 200.640812 234.481306 200.640812 234.481306 200.640812 234.481306 
C 200.640812 234.481306 200.640812 234.481306 200.640812 234.481306 
C 200.640812 234.481306 200.640812 234.481306 200.640812 234.481306 
C 200.640812 234.481306 200.640812 234.481306 200.640812 234.481306 
C 200.640812 234.481306 200.640812 234.481306 200.640812 234.481306 
C 200.640812 234.481306 200.640812 234.481306 200.640812 234.481306 
C 200.640812 234.481306 200.640812 234.481306 200.640812 234.481306 
C 200.640812 234.481306 200.640812 234.481306 200.640812 234.481306 
z
"/>
  </clipPath>
 </defs>
</svg>
