<?xml version="1.0" encoding="utf-8" standalone="no"?>
<!DOCTYPE svg PUBLIC "-//W3C//DTD SVG 1.1//EN"
  "http://www.w3.org/Graphics/SVG/1.1/DTD/svg11.dtd">
<svg xmlns:xlink="http://www.w3.org/1999/xlink" width="993.290616pt" height="417.006136pt" viewBox="0 0 993.290616 417.006136" xmlns="http://www.w3.org/2000/svg" version="1.1">
 <metadata>
  <rdf:RDF xmlns:dc="http://purl.org/dc/elements/1.1/" xmlns:cc="http://creativecommons.org/ns#" xmlns:rdf="http://www.w3.org/1999/02/22-rdf-syntax-ns#">
   <cc:Work>
    <dc:type rdf:resource="http://purl.org/dc/dcmitype/StillImage"/>
    <dc:date>2026-07-07T18:03:44.296386</dc:date>
    <dc:format>image/svg+xml</dc:format>
    <dc:creator>
     <cc:Agent>
      <dc:title>Matplotlib v3.11.0, https://matplotlib.org/</dc:title>
     </cc:Agent>
    </dc:creator>
   </cc:Work>
  </rdf:RDF>
 </metadata>
 <defs>
  <style type="text/css">*{stroke-linejoin: round; stroke-linecap: butt}</style>
 </defs>
 <g id="figure_1">
  <g id="patch_1">
   <path d="M 0 417.006136 
L 993.290616 417.006136 
L 993.290616 0 
L 0 0 
z
" style="fill: #ffffff"/>
  </g>
  <g id="axes_1">
   <g id="patch_2">
    <path d="M 51.861016 320.466844 
L 986.090616 320.466844 
L 986.090616 25.3575 
L 51.861016 25.3575 
z
" style="fill: #ffffff"/>
   </g>
   <g id="matplotlib.axis_1">
    <g id="xtick_1">
     <g id="line2d_1">
      <path d="M 94.325997 320.466844 
L 94.325997 25.3575 
" clip-path="url(#p4def36a24c)" style="fill: none; stroke-dasharray: 1.85,0.8; stroke-dashoffset: 0; stroke: #cccccc; stroke-width: 0.5"/>
     </g>
     <g id="text_1">
      <!-- BanknoteAuth -->
      <g style="fill: #262626" transform="translate(36.196903 390.937551) rotate(-45) scale(0.11 -0.11)">
       <defs>
        <path id="DejaVuSerif-25" d="M 1581 331 
L 2516 331 
Q 3078 331 3337 575 
Q 3597 819 3597 1350 
Q 3597 1878 3339 2120 
Q 3081 2363 2516 2363 
L 1581 2363 
L 1581 331 
z
M 1581 2694 
L 2375 2694 
Q 2888 2694 3123 2891 
Q 3359 3088 3359 3513 
Q 3359 3941 3123 4136 
Q 2888 4331 2375 4331 
L 1581 4331 
L 1581 2694 
z
M 353 0 
L 353 331 
L 947 331 
L 947 4331 
L 353 4331 
L 353 4666 
L 2656 4666 
Q 3363 4666 3720 4377 
Q 4078 4088 4078 3513 
Q 4078 3097 3829 2850 
Q 3581 2603 3103 2547 
Q 3697 2472 4005 2167 
Q 4313 1863 4313 1350 
Q 4313 656 3875 328 
Q 3438 0 2509 0 
L 353 0 
z
" transform="scale(0.015625)"/>
        <path id="DejaVuSerif-44" d="M 2547 1044 
L 2547 1747 
L 1806 1747 
Q 1378 1747 1168 1562 
Q 959 1378 959 997 
Q 959 650 1171 447 
Q 1384 244 1747 244 
Q 2106 244 2326 466 
Q 2547 688 2547 1044 
z
M 3122 2075 
L 3122 331 
L 3634 331 
L 3634 0 
L 2547 0 
L 2547 359 
Q 2356 128 2106 18 
Q 1856 -91 1522 -91 
Q 969 -91 644 203 
Q 319 497 319 997 
Q 319 1513 691 1797 
Q 1063 2081 1741 2081 
L 2547 2081 
L 2547 2309 
Q 2547 2688 2317 2895 
Q 2088 3103 1672 3103 
Q 1328 3103 1125 2947 
Q 922 2791 872 2484 
L 575 2484 
L 575 3156 
Q 875 3284 1158 3348 
Q 1441 3413 1709 3413 
Q 2400 3413 2761 3070 
Q 3122 2728 3122 2075 
z
" transform="scale(0.015625)"/>
        <path id="DejaVuSerif-51" d="M 263 0 
L 263 331 
L 781 331 
L 781 2988 
L 231 2988 
L 231 3322 
L 1356 3322 
L 1356 2731 
Q 1516 3069 1770 3241 
Q 2025 3413 2363 3413 
Q 2913 3413 3172 3097 
Q 3431 2781 3431 2113 
L 3431 331 
L 3944 331 
L 3944 0 
L 2356 0 
L 2356 331 
L 2853 331 
L 2853 1931 
Q 2853 2541 2703 2767 
Q 2553 2994 2175 2994 
Q 1775 2994 1565 2701 
Q 1356 2409 1356 1850 
L 1356 331 
L 1856 331 
L 1856 0 
L 263 0 
z
" transform="scale(0.015625)"/>
        <path id="DejaVuSerif-4e" d="M 1831 0 
L 219 0 
L 219 331 
L 738 331 
L 738 4531 
L 184 4531 
L 184 4863 
L 1313 4863 
L 1313 1697 
L 2713 2988 
L 2234 2988 
L 2234 3322 
L 3738 3322 
L 3738 2988 
L 3169 2988 
L 2181 2075 
L 3444 331 
L 3922 331 
L 3922 0 
L 2284 0 
L 2284 331 
L 2759 331 
L 1766 1697 
L 1313 1275 
L 1313 331 
L 1831 331 
L 1831 0 
z
" transform="scale(0.015625)"/>
        <path id="DejaVuSerif-52" d="M 1925 219 
Q 2388 219 2623 584 
Q 2859 950 2859 1663 
Q 2859 2375 2623 2739 
Q 2388 3103 1925 3103 
Q 1463 3103 1227 2739 
Q 991 2375 991 1663 
Q 991 950 1228 584 
Q 1466 219 1925 219 
z
M 1925 -91 
Q 1200 -91 759 389 
Q 319 869 319 1663 
Q 319 2456 758 2934 
Q 1197 3413 1925 3413 
Q 2653 3413 3092 2934 
Q 3531 2456 3531 1663 
Q 3531 869 3092 389 
Q 2653 -91 1925 -91 
z
" transform="scale(0.015625)"/>
        <path id="DejaVuSerif-57" d="M 691 2988 
L 184 2988 
L 184 3322 
L 691 3322 
L 691 4353 
L 1269 4353 
L 1269 3322 
L 2350 3322 
L 2350 2988 
L 1269 2988 
L 1269 878 
Q 1269 456 1350 337 
Q 1431 219 1650 219 
Q 1875 219 1978 351 
Q 2081 484 2088 781 
L 2522 781 
Q 2497 328 2275 118 
Q 2053 -91 1600 -91 
Q 1103 -91 897 129 
Q 691 350 691 878 
L 691 2988 
z
" transform="scale(0.015625)"/>
        <path id="DejaVuSerif-48" d="M 3469 1600 
L 991 1600 
L 991 1575 
Q 991 903 1244 561 
Q 1497 219 1991 219 
Q 2369 219 2611 417 
Q 2853 616 2950 1006 
L 3413 1006 
Q 3275 459 2904 184 
Q 2534 -91 1931 -91 
Q 1203 -91 761 389 
Q 319 869 319 1663 
Q 319 2450 753 2931 
Q 1188 3413 1894 3413 
Q 2647 3413 3050 2948 
Q 3453 2484 3469 1600 
z
M 2791 1931 
Q 2772 2513 2545 2808 
Q 2319 3103 1894 3103 
Q 1497 3103 1269 2806 
Q 1041 2509 991 1931 
L 2791 1931 
z
" transform="scale(0.015625)"/>
        <path id="DejaVuSerif-24" d="M 1281 1691 
L 2994 1691 
L 2138 3909 
L 1281 1691 
z
M -38 0 
L -38 331 
L 372 331 
L 2034 4666 
L 2559 4666 
L 4225 331 
L 4684 331 
L 4684 0 
L 2988 0 
L 2988 331 
L 3506 331 
L 3116 1356 
L 1153 1356 
L 763 331 
L 1275 331 
L 1275 0 
L -38 0 
z
" transform="scale(0.015625)"/>
        <path id="DejaVuSerif-58" d="M 2266 3322 
L 3341 3322 
L 3341 331 
L 3884 331 
L 3884 0 
L 2766 0 
L 2766 588 
Q 2606 256 2353 82 
Q 2100 -91 1766 -91 
Q 1213 -91 952 223 
Q 691 538 691 1209 
L 691 2988 
L 172 2988 
L 172 3322 
L 1269 3322 
L 1269 1388 
Q 1269 781 1417 556 
Q 1566 331 1947 331 
Q 2347 331 2556 625 
Q 2766 919 2766 1478 
L 2766 2988 
L 2266 2988 
L 2266 3322 
z
" transform="scale(0.015625)"/>
        <path id="DejaVuSerif-4b" d="M 263 0 
L 263 331 
L 781 331 
L 781 4531 
L 231 4531 
L 231 4863 
L 1356 4863 
L 1356 2731 
Q 1516 3069 1770 3241 
Q 2025 3413 2363 3413 
Q 2913 3413 3172 3097 
Q 3431 2781 3431 2113 
L 3431 331 
L 3944 331 
L 3944 0 
L 2356 0 
L 2356 331 
L 2853 331 
L 2853 1931 
Q 2853 2541 2704 2764 
Q 2556 2988 2175 2988 
Q 1775 2988 1565 2697 
Q 1356 2406 1356 1850 
L 1356 331 
L 1856 331 
L 1856 0 
L 263 0 
z
" transform="scale(0.015625)"/>
       </defs>
       <use xlink:href="#DejaVuSerif-25"/>
       <use xlink:href="#DejaVuSerif-44" transform="translate(73.484375 0)"/>
       <use xlink:href="#DejaVuSerif-51" transform="translate(133.109375 0)"/>
       <use xlink:href="#DejaVuSerif-4e" transform="translate(197.515625 0)"/>
       <use xlink:href="#DejaVuSerif-51" transform="translate(258.109375 0)"/>
       <use xlink:href="#DejaVuSerif-52" transform="translate(322.515625 0)"/>
       <use xlink:href="#DejaVuSerif-57" transform="translate(382.71875 0)"/>
       <use xlink:href="#DejaVuSerif-48" transform="translate(422.90625 0)"/>
       <use xlink:href="#DejaVuSerif-24" transform="translate(482.09375 0)"/>
       <use xlink:href="#DejaVuSerif-58" transform="translate(554.3125 0)"/>
       <use xlink:href="#DejaVuSerif-57" transform="translate(618.71875 0)"/>
       <use xlink:href="#DejaVuSerif-4b" transform="translate(658.90625 0)"/>
      </g>
     </g>
    </g>
    <g id="xtick_2">
     <g id="line2d_2">
      <path d="M 235.875937 320.466844 
L 235.875937 25.3575 
" clip-path="url(#p4def36a24c)" style="fill: none; stroke-dasharray: 1.85,0.8; stroke-dashoffset: 0; stroke: #cccccc; stroke-width: 0.5"/>
     </g>
     <g id="text_2">
      <!-- BreastCancer -->
      <g style="fill: #262626" transform="translate(179.939316 388.74447) rotate(-45) scale(0.11 -0.11)">
       <defs>
        <path id="DejaVuSerif-55" d="M 3059 3328 
L 3059 2497 
L 2728 2497 
Q 2713 2744 2591 2866 
Q 2469 2988 2234 2988 
Q 1809 2988 1582 2694 
Q 1356 2400 1356 1850 
L 1356 331 
L 2022 331 
L 2022 0 
L 263 0 
L 263 331 
L 781 331 
L 781 2994 
L 231 2994 
L 231 3322 
L 1356 3322 
L 1356 2731 
Q 1525 3078 1790 3245 
Q 2056 3413 2438 3413 
Q 2578 3413 2733 3391 
Q 2888 3369 3059 3328 
z
" transform="scale(0.015625)"/>
        <path id="DejaVuSerif-56" d="M 359 184 
L 359 959 
L 691 959 
Q 703 588 923 403 
Q 1144 219 1575 219 
Q 1963 219 2166 364 
Q 2369 509 2369 788 
Q 2369 1006 2220 1140 
Q 2072 1275 1594 1428 
L 1178 1569 
Q 750 1706 558 1912 
Q 366 2119 366 2438 
Q 366 2894 700 3153 
Q 1034 3413 1625 3413 
Q 1888 3413 2178 3344 
Q 2469 3275 2778 3144 
L 2778 2419 
L 2447 2419 
Q 2434 2741 2221 2922 
Q 2009 3103 1644 3103 
Q 1281 3103 1095 2975 
Q 909 2847 909 2591 
Q 909 2381 1050 2254 
Q 1191 2128 1613 1997 
L 2069 1856 
Q 2541 1709 2748 1489 
Q 2956 1269 2956 922 
Q 2956 450 2595 179 
Q 2234 -91 1600 -91 
Q 1278 -91 972 -22 
Q 666 47 359 184 
z
" transform="scale(0.015625)"/>
        <path id="DejaVuSerif-26" d="M 4513 1234 
Q 4306 581 3820 245 
Q 3334 -91 2591 -91 
Q 2134 -91 1743 65 
Q 1353 222 1050 525 
Q 700 875 529 1320 
Q 359 1766 359 2328 
Q 359 3416 987 4083 
Q 1616 4750 2644 4750 
Q 3025 4750 3456 4650 
Q 3888 4550 4384 4347 
L 4384 3272 
L 4031 3272 
Q 3916 3859 3567 4137 
Q 3219 4416 2591 4416 
Q 1844 4416 1459 3886 
Q 1075 3356 1075 2328 
Q 1075 1303 1459 773 
Q 1844 244 2591 244 
Q 3113 244 3450 492 
Q 3788 741 3938 1234 
L 4513 1234 
z
" transform="scale(0.015625)"/>
        <path id="DejaVuSerif-46" d="M 3291 997 
Q 3169 466 2822 187 
Q 2475 -91 1925 -91 
Q 1200 -91 759 389 
Q 319 869 319 1663 
Q 319 2459 759 2936 
Q 1200 3413 1925 3413 
Q 2241 3413 2553 3339 
Q 2866 3266 3181 3116 
L 3181 2266 
L 2847 2266 
Q 2781 2703 2561 2903 
Q 2341 3103 1931 3103 
Q 1466 3103 1228 2742 
Q 991 2381 991 1663 
Q 991 944 1227 581 
Q 1463 219 1931 219 
Q 2303 219 2525 412 
Q 2747 606 2828 997 
L 3291 997 
z
" transform="scale(0.015625)"/>
       </defs>
       <use xlink:href="#DejaVuSerif-25"/>
       <use xlink:href="#DejaVuSerif-55" transform="translate(73.484375 0)"/>
       <use xlink:href="#DejaVuSerif-48" transform="translate(121.28125 0)"/>
       <use xlink:href="#DejaVuSerif-44" transform="translate(180.46875 0)"/>
       <use xlink:href="#DejaVuSerif-56" transform="translate(240.09375 0)"/>
       <use xlink:href="#DejaVuSerif-57" transform="translate(291.40625 0)"/>
       <use xlink:href="#DejaVuSerif-26" transform="translate(331.59375 0)"/>
       <use xlink:href="#DejaVuSerif-44" transform="translate(408.109375 0)"/>
       <use xlink:href="#DejaVuSerif-51" transform="translate(467.734375 0)"/>
       <use xlink:href="#DejaVuSerif-46" transform="translate(532.140625 0)"/>
       <use xlink:href="#DejaVuSerif-48" transform="translate(588.140625 0)"/>
       <use xlink:href="#DejaVuSerif-55" transform="translate(647.328125 0)"/>
      </g>
     </g>
    </g>
    <g id="xtick_3">
     <g id="line2d_3">
      <path d="M 377.425876 320.466844 
L 377.425876 25.3575 
" clip-path="url(#p4def36a24c)" style="fill: none; stroke-dasharray: 1.85,0.8; stroke-dashoffset: 0; stroke: #cccccc; stroke-width: 0.5"/>
     </g>
     <g id="text_3">
      <!-- HeartDisease -->
      <g style="fill: #262626" transform="translate(322.138247 388.095479) rotate(-45) scale(0.11 -0.11)">
       <defs>
        <path id="DejaVuSerif-2b" d="M 353 0 
L 353 331 
L 947 331 
L 947 4331 
L 353 4331 
L 353 4666 
L 2175 4666 
L 2175 4331 
L 1581 4331 
L 1581 2719 
L 4000 2719 
L 4000 4331 
L 3406 4331 
L 3406 4666 
L 5228 4666 
L 5228 4331 
L 4634 4331 
L 4634 331 
L 5228 331 
L 5228 0 
L 3406 0 
L 3406 331 
L 4000 331 
L 4000 2338 
L 1581 2338 
L 1581 331 
L 2175 331 
L 2175 0 
L 353 0 
z
" transform="scale(0.015625)"/>
        <path id="DejaVuSerif-27" d="M 1581 331 
L 2163 331 
Q 3072 331 3558 850 
Q 4044 1369 4044 2338 
Q 4044 3306 3559 3818 
Q 3075 4331 2163 4331 
L 1581 4331 
L 1581 331 
z
M 353 0 
L 353 331 
L 947 331 
L 947 4331 
L 353 4331 
L 353 4666 
L 2209 4666 
Q 3416 4666 4089 4050 
Q 4763 3434 4763 2338 
Q 4763 1238 4088 619 
Q 3413 0 2209 0 
L 353 0 
z
" transform="scale(0.015625)"/>
        <path id="DejaVuSerif-4c" d="M 622 4353 
Q 622 4497 726 4603 
Q 831 4709 978 4709 
Q 1122 4709 1226 4603 
Q 1331 4497 1331 4353 
Q 1331 4206 1228 4103 
Q 1125 4000 978 4000 
Q 831 4000 726 4103 
Q 622 4206 622 4353 
z
M 1356 331 
L 1900 331 
L 1900 0 
L 231 0 
L 231 331 
L 781 331 
L 781 2988 
L 231 2988 
L 231 3322 
L 1356 3322 
L 1356 331 
z
" transform="scale(0.015625)"/>
       </defs>
       <use xlink:href="#DejaVuSerif-2b"/>
       <use xlink:href="#DejaVuSerif-48" transform="translate(87.203125 0)"/>
       <use xlink:href="#DejaVuSerif-44" transform="translate(146.390625 0)"/>
       <use xlink:href="#DejaVuSerif-55" transform="translate(206.015625 0)"/>
       <use xlink:href="#DejaVuSerif-57" transform="translate(253.8125 0)"/>
       <use xlink:href="#DejaVuSerif-27" transform="translate(294 0)"/>
       <use xlink:href="#DejaVuSerif-4c" transform="translate(374.171875 0)"/>
       <use xlink:href="#DejaVuSerif-56" transform="translate(406.15625 0)"/>
       <use xlink:href="#DejaVuSerif-48" transform="translate(457.46875 0)"/>
       <use xlink:href="#DejaVuSerif-44" transform="translate(516.65625 0)"/>
       <use xlink:href="#DejaVuSerif-56" transform="translate(576.28125 0)"/>
       <use xlink:href="#DejaVuSerif-48" transform="translate(627.59375 0)"/>
      </g>
     </g>
    </g>
    <g id="xtick_4">
     <g id="line2d_4">
      <path d="M 518.975816 320.466844 
L 518.975816 25.3575 
" clip-path="url(#p4def36a24c)" style="fill: none; stroke-dasharray: 1.85,0.8; stroke-dashoffset: 0; stroke: #cccccc; stroke-width: 0.5"/>
     </g>
     <g id="text_4">
      <!-- Ionosphere -->
      <g style="fill: #262626" transform="translate(472.754621 379.029651) rotate(-45) scale(0.11 -0.11)">
       <defs>
        <path id="DejaVuSerif-2c" d="M 1581 331 
L 2175 331 
L 2175 0 
L 353 0 
L 353 331 
L 947 331 
L 947 4331 
L 353 4331 
L 353 4666 
L 2175 4666 
L 2175 4331 
L 1581 4331 
L 1581 331 
z
" transform="scale(0.015625)"/>
        <path id="DejaVuSerif-53" d="M 1313 1825 
L 1313 1497 
Q 1313 897 1542 583 
Q 1772 269 2209 269 
Q 2650 269 2876 622 
Q 3103 975 3103 1663 
Q 3103 2353 2876 2703 
Q 2650 3053 2209 3053 
Q 1772 3053 1542 2737 
Q 1313 2422 1313 1825 
z
M 738 2988 
L 184 2988 
L 184 3322 
L 1313 3322 
L 1313 2803 
Q 1481 3116 1742 3264 
Q 2003 3413 2388 3413 
Q 3000 3413 3387 2928 
Q 3775 2444 3775 1663 
Q 3775 881 3387 395 
Q 3000 -91 2388 -91 
Q 2003 -91 1742 57 
Q 1481 206 1313 519 
L 1313 -997 
L 1856 -997 
L 1856 -1331 
L 184 -1331 
L 184 -997 
L 738 -997 
L 738 2988 
z
" transform="scale(0.015625)"/>
       </defs>
       <use xlink:href="#DejaVuSerif-2c"/>
       <use xlink:href="#DejaVuSerif-52" transform="translate(39.5 0)"/>
       <use xlink:href="#DejaVuSerif-51" transform="translate(99.703125 0)"/>
       <use xlink:href="#DejaVuSerif-52" transform="translate(164.109375 0)"/>
       <use xlink:href="#DejaVuSerif-56" transform="translate(224.3125 0)"/>
       <use xlink:href="#DejaVuSerif-53" transform="translate(275.625 0)"/>
       <use xlink:href="#DejaVuSerif-4b" transform="translate(339.640625 0)"/>
       <use xlink:href="#DejaVuSerif-48" transform="translate(404.046875 0)"/>
       <use xlink:href="#DejaVuSerif-55" transform="translate(463.234375 0)"/>
       <use xlink:href="#DejaVuSerif-48" transform="translate(511.03125 0)"/>
      </g>
     </g>
    </g>
    <g id="xtick_5">
     <g id="line2d_5">
      <path d="M 660.525755 320.466844 
L 660.525755 25.3575 
" clip-path="url(#p4def36a24c)" style="fill: none; stroke-dasharray: 1.85,0.8; stroke-dashoffset: 0; stroke: #cccccc; stroke-width: 0.5"/>
     </g>
     <g id="text_5">
      <!-- KC2 -->
      <g style="fill: #262626" transform="translate(642.155287 351.178317) rotate(-45) scale(0.11 -0.11)">
       <defs>
        <path id="DejaVuSerif-2e" d="M 353 0 
L 353 331 
L 947 331 
L 947 4331 
L 353 4331 
L 353 4666 
L 2175 4666 
L 2175 4331 
L 1581 4331 
L 1581 2566 
L 3591 4331 
L 3084 4331 
L 3084 4666 
L 4634 4666 
L 4634 4331 
L 4109 4331 
L 2106 2572 
L 4347 331 
L 4878 331 
L 4878 0 
L 3794 0 
L 1581 2216 
L 1581 331 
L 2175 331 
L 2175 0 
L 353 0 
z
" transform="scale(0.015625)"/>
        <path id="DejaVuSerif-15" d="M 819 3553 
L 469 3553 
L 469 4384 
Q 803 4563 1142 4656 
Q 1481 4750 1806 4750 
Q 2534 4750 2956 4397 
Q 3378 4044 3378 3438 
Q 3378 2753 2422 1800 
Q 2347 1728 2309 1691 
L 1131 513 
L 3078 513 
L 3078 1088 
L 3444 1088 
L 3444 0 
L 434 0 
L 434 341 
L 1850 1753 
Q 2319 2222 2519 2614 
Q 2719 3006 2719 3438 
Q 2719 3909 2473 4175 
Q 2228 4441 1797 4441 
Q 1350 4441 1106 4219 
Q 863 3997 819 3553 
z
" transform="scale(0.015625)"/>
       </defs>
       <use xlink:href="#DejaVuSerif-2e"/>
       <use xlink:href="#DejaVuSerif-26" transform="translate(72.015625 0)"/>
       <use xlink:href="#DejaVuSerif-15" transform="translate(148.53125 0)"/>
      </g>
     </g>
    </g>
    <g id="xtick_6">
     <g id="line2d_6">
      <path d="M 802.075694 320.466844 
L 802.075694 25.3575 
" clip-path="url(#p4def36a24c)" style="fill: none; stroke-dasharray: 1.85,0.8; stroke-dashoffset: 0; stroke: #cccccc; stroke-width: 0.5"/>
     </g>
     <g id="text_6">
      <!-- QSARBiodeg -->
      <g style="fill: #262626" transform="translate(749.5797 385.304451) rotate(-45) scale(0.11 -0.11)">
       <defs>
        <path id="DejaVuSerif-34" d="M 2700 -91 
Q 1628 -91 993 567 
Q 359 1225 359 2328 
Q 359 2894 529 3339 
Q 700 3784 1050 4134 
Q 1356 4441 1750 4595 
Q 2144 4750 2625 4750 
Q 3641 4750 4266 4084 
Q 4891 3419 4891 2328 
Q 4891 1403 4422 773 
Q 3953 144 3128 -38 
Q 3297 -247 3539 -347 
Q 3781 -447 4122 -447 
L 4219 -447 
L 4219 -1025 
Q 3691 -1000 3314 -767 
Q 2938 -534 2700 -91 
z
M 2625 244 
Q 3391 244 3781 770 
Q 4172 1297 4172 2328 
Q 4172 3363 3781 3889 
Q 3391 4416 2625 4416 
Q 1856 4416 1465 3889 
Q 1075 3363 1075 2328 
Q 1075 1297 1465 770 
Q 1856 244 2625 244 
z
" transform="scale(0.015625)"/>
        <path id="DejaVuSerif-36" d="M 594 225 
L 594 1288 
L 953 1284 
Q 969 753 1261 498 
Q 1553 244 2150 244 
Q 2706 244 2998 464 
Q 3291 684 3291 1106 
Q 3291 1444 3114 1625 
Q 2938 1806 2369 1978 
L 1753 2163 
Q 1084 2366 811 2669 
Q 538 2972 538 3500 
Q 538 4094 959 4422 
Q 1381 4750 2144 4750 
Q 2469 4750 2856 4679 
Q 3244 4609 3681 4475 
L 3681 3481 
L 3328 3481 
Q 3275 3975 2998 4195 
Q 2722 4416 2156 4416 
Q 1663 4416 1405 4214 
Q 1147 4013 1147 3628 
Q 1147 3294 1340 3103 
Q 1534 2913 2163 2725 
L 2741 2553 
Q 3375 2363 3645 2067 
Q 3916 1772 3916 1275 
Q 3916 597 3481 253 
Q 3047 -91 2188 -91 
Q 1803 -91 1404 -12 
Q 1006 66 594 225 
z
" transform="scale(0.015625)"/>
        <path id="DejaVuSerif-35" d="M 3066 2316 
Q 3284 2256 3442 2114 
Q 3600 1972 3725 1716 
L 4403 331 
L 4972 331 
L 4972 0 
L 3872 0 
L 3144 1484 
Q 2934 1916 2759 2042 
Q 2584 2169 2278 2169 
L 1581 2169 
L 1581 331 
L 2241 331 
L 2241 0 
L 353 0 
L 353 331 
L 947 331 
L 947 4331 
L 353 4331 
L 353 4666 
L 2719 4666 
Q 3400 4666 3770 4341 
Q 4141 4016 4141 3419 
Q 4141 2938 3870 2661 
Q 3600 2384 3066 2316 
z
M 1581 2503 
L 2503 2503 
Q 2975 2503 3200 2726 
Q 3425 2950 3425 3419 
Q 3425 3888 3200 4109 
Q 2975 4331 2503 4331 
L 1581 4331 
L 1581 2503 
z
" transform="scale(0.015625)"/>
        <path id="DejaVuSerif-47" d="M 3359 331 
L 3909 331 
L 3909 0 
L 2784 0 
L 2784 519 
Q 2616 206 2355 57 
Q 2094 -91 1709 -91 
Q 1097 -91 708 395 
Q 319 881 319 1663 
Q 319 2444 706 2928 
Q 1094 3413 1709 3413 
Q 2094 3413 2355 3264 
Q 2616 3116 2784 2803 
L 2784 4531 
L 2241 4531 
L 2241 4863 
L 3359 4863 
L 3359 331 
z
M 2784 1497 
L 2784 1825 
Q 2784 2422 2554 2737 
Q 2325 3053 1888 3053 
Q 1444 3053 1217 2703 
Q 991 2353 991 1663 
Q 991 975 1217 622 
Q 1444 269 1888 269 
Q 2325 269 2554 583 
Q 2784 897 2784 1497 
z
" transform="scale(0.015625)"/>
        <path id="DejaVuSerif-4a" d="M 3359 2988 
L 3359 72 
Q 3359 -644 2965 -1033 
Q 2572 -1422 1844 -1422 
Q 1516 -1422 1216 -1362 
Q 916 -1303 641 -1184 
L 641 -488 
L 941 -488 
Q 997 -813 1206 -963 
Q 1416 -1113 1806 -1113 
Q 2313 -1113 2548 -827 
Q 2784 -541 2784 72 
L 2784 519 
Q 2616 206 2355 57 
Q 2094 -91 1709 -91 
Q 1097 -91 708 395 
Q 319 881 319 1663 
Q 319 2444 706 2928 
Q 1094 3413 1709 3413 
Q 2094 3413 2355 3264 
Q 2616 3116 2784 2803 
L 2784 3322 
L 3909 3322 
L 3909 2988 
L 3359 2988 
z
M 2784 1825 
Q 2784 2422 2554 2737 
Q 2325 3053 1888 3053 
Q 1444 3053 1217 2703 
Q 991 2353 991 1663 
Q 991 975 1217 622 
Q 1444 269 1888 269 
Q 2325 269 2554 583 
Q 2784 897 2784 1497 
L 2784 1825 
z
" transform="scale(0.015625)"/>
       </defs>
       <use xlink:href="#DejaVuSerif-34"/>
       <use xlink:href="#DejaVuSerif-36" transform="translate(81.984375 0)"/>
       <use xlink:href="#DejaVuSerif-24" transform="translate(150.484375 0)"/>
       <use xlink:href="#DejaVuSerif-35" transform="translate(222.703125 0)"/>
       <use xlink:href="#DejaVuSerif-25" transform="translate(298 0)"/>
       <use xlink:href="#DejaVuSerif-4c" transform="translate(371.484375 0)"/>
       <use xlink:href="#DejaVuSerif-52" transform="translate(403.46875 0)"/>
       <use xlink:href="#DejaVuSerif-47" transform="translate(463.671875 0)"/>
       <use xlink:href="#DejaVuSerif-48" transform="translate(527.6875 0)"/>
       <use xlink:href="#DejaVuSerif-4a" transform="translate(586.875 0)"/>
      </g>
     </g>
    </g>
    <g id="xtick_7">
     <g id="line2d_7">
      <path d="M 943.625634 320.466844 
L 943.625634 25.3575 
" clip-path="url(#p4def36a24c)" style="fill: none; stroke-dasharray: 1.85,0.8; stroke-dashoffset: 0; stroke: #cccccc; stroke-width: 0.5"/>
     </g>
     <g id="text_7">
      <!-- SpamBase -->
      <g style="fill: #262626" transform="translate(900.487756 375.945727) rotate(-45) scale(0.11 -0.11)">
       <defs>
        <path id="DejaVuSerif-50" d="M 3316 2675 
Q 3481 3041 3739 3227 
Q 3997 3413 4341 3413 
Q 4863 3413 5119 3089 
Q 5375 2766 5375 2113 
L 5375 331 
L 5894 331 
L 5894 0 
L 4300 0 
L 4300 331 
L 4800 331 
L 4800 2047 
Q 4800 2556 4650 2772 
Q 4500 2988 4153 2988 
Q 3769 2988 3567 2697 
Q 3366 2406 3366 1850 
L 3366 331 
L 3866 331 
L 3866 0 
L 2291 0 
L 2291 331 
L 2791 331 
L 2791 2069 
Q 2791 2566 2641 2777 
Q 2491 2988 2144 2988 
Q 1759 2988 1557 2697 
Q 1356 2406 1356 1850 
L 1356 331 
L 1856 331 
L 1856 0 
L 263 0 
L 263 331 
L 781 331 
L 781 2994 
L 231 2994 
L 231 3322 
L 1356 3322 
L 1356 2731 
Q 1516 3063 1762 3238 
Q 2009 3413 2322 3413 
Q 2709 3413 2968 3220 
Q 3228 3028 3316 2675 
z
" transform="scale(0.015625)"/>
       </defs>
       <use xlink:href="#DejaVuSerif-36"/>
       <use xlink:href="#DejaVuSerif-53" transform="translate(68.5 0)"/>
       <use xlink:href="#DejaVuSerif-44" transform="translate(132.515625 0)"/>
       <use xlink:href="#DejaVuSerif-50" transform="translate(192.140625 0)"/>
       <use xlink:href="#DejaVuSerif-25" transform="translate(286.96875 0)"/>
       <use xlink:href="#DejaVuSerif-44" transform="translate(360.453125 0)"/>
       <use xlink:href="#DejaVuSerif-56" transform="translate(420.078125 0)"/>
       <use xlink:href="#DejaVuSerif-48" transform="translate(471.390625 0)"/>
      </g>
     </g>
    </g>
    <g id="text_8">
     <!-- Dataset -->
     <g style="fill: #262626" transform="translate(493.606519 406.683089) scale(0.13 -0.13)">
      <use xlink:href="#DejaVuSerif-27"/>
      <use xlink:href="#DejaVuSerif-44" transform="translate(80.171875 0)"/>
      <use xlink:href="#DejaVuSerif-57" transform="translate(139.796875 0)"/>
      <use xlink:href="#DejaVuSerif-44" transform="translate(179.984375 0)"/>
      <use xlink:href="#DejaVuSerif-56" transform="translate(239.609375 0)"/>
      <use xlink:href="#DejaVuSerif-48" transform="translate(290.921875 0)"/>
      <use xlink:href="#DejaVuSerif-57" transform="translate(350.109375 0)"/>
     </g>
    </g>
   </g>
   <g id="matplotlib.axis_2">
    <g id="ytick_1">
     <g id="line2d_8">
      <path d="M 51.861016 249.37627 
L 986.090616 249.37627 
" clip-path="url(#p4def36a24c)" style="fill: none; stroke-dasharray: 1.85,0.8; stroke-dashoffset: 0; stroke: #cccccc; stroke-width: 0.5"/>
     </g>
     <g id="text_9">
      <!-- $\mathdefault{10^{1}}$ -->
      <g style="fill: #262626" transform="translate(24.201016 254.54627) scale(0.11 -0.11)">
       <defs>
        <path id="DejaVuSerif-14" d="M 909 0 
L 909 331 
L 1722 331 
L 1722 4213 
L 781 3603 
L 781 4013 
L 1919 4750 
L 2350 4750 
L 2350 331 
L 3163 331 
L 3163 0 
L 909 0 
z
" transform="scale(0.015625)"/>
        <path id="DejaVuSerif-13" d="M 2034 219 
Q 2513 219 2750 744 
Q 2988 1269 2988 2328 
Q 2988 3391 2750 3916 
Q 2513 4441 2034 4441 
Q 1556 4441 1318 3916 
Q 1081 3391 1081 2328 
Q 1081 1269 1318 744 
Q 1556 219 2034 219 
z
M 2034 -91 
Q 1275 -91 848 546 
Q 422 1184 422 2328 
Q 422 3475 848 4112 
Q 1275 4750 2034 4750 
Q 2797 4750 3222 4112 
Q 3647 3475 3647 2328 
Q 3647 1184 3222 546 
Q 2797 -91 2034 -91 
z
" transform="scale(0.015625)"/>
       </defs>
       <use xlink:href="#DejaVuSerif-14" transform="translate(0 0.746875)"/>
       <use xlink:href="#DejaVuSerif-13" transform="translate(63.623047 0.746875)"/>
       <use xlink:href="#DejaVuSerif-14" transform="translate(128.203125 42.046875) scale(0.7)"/>
      </g>
     </g>
    </g>
    <g id="ytick_2">
     <g id="line2d_9">
      <path d="M 51.861016 176.907416 
L 986.090616 176.907416 
" clip-path="url(#p4def36a24c)" style="fill: none; stroke-dasharray: 1.85,0.8; stroke-dashoffset: 0; stroke: #cccccc; stroke-width: 0.5"/>
     </g>
     <g id="text_10">
      <!-- $\mathdefault{10^{2}}$ -->
      <g style="fill: #262626" transform="translate(24.201016 182.077416) scale(0.11 -0.11)">
       <use xlink:href="#DejaVuSerif-14" transform="translate(0 0.746875)"/>
       <use xlink:href="#DejaVuSerif-13" transform="translate(63.623047 0.746875)"/>
       <use xlink:href="#DejaVuSerif-15" transform="translate(128.203125 42.046875) scale(0.7)"/>
      </g>
     </g>
    </g>
    <g id="ytick_3">
     <g id="line2d_10">
      <path d="M 51.861016 104.438562 
L 986.090616 104.438562 
" clip-path="url(#p4def36a24c)" style="fill: none; stroke-dasharray: 1.85,0.8; stroke-dashoffset: 0; stroke: #cccccc; stroke-width: 0.5"/>
     </g>
     <g id="text_11">
      <!-- $\mathdefault{10^{3}}$ -->
      <g style="fill: #262626" transform="translate(24.201016 109.608562) scale(0.11 -0.11)">
       <defs>
        <path id="DejaVuSerif-16" d="M 622 4469 
Q 988 4606 1323 4678 
Q 1659 4750 1953 4750 
Q 2638 4750 3022 4454 
Q 3406 4159 3406 3634 
Q 3406 3213 3140 2930 
Q 2875 2647 2388 2547 
Q 2963 2466 3280 2130 
Q 3597 1794 3597 1259 
Q 3597 606 3158 257 
Q 2719 -91 1894 -91 
Q 1528 -91 1179 -12 
Q 831 66 488 225 
L 488 1131 
L 838 1131 
Q 869 681 1141 450 
Q 1413 219 1906 219 
Q 2384 219 2661 495 
Q 2938 772 2938 1253 
Q 2938 1803 2653 2086 
Q 2369 2369 1819 2369 
L 1522 2369 
L 1522 2688 
L 1678 2688 
Q 2225 2688 2498 2914 
Q 2772 3141 2772 3597 
Q 2772 4006 2547 4223 
Q 2322 4441 1900 4441 
Q 1478 4441 1245 4241 
Q 1013 4041 972 3647 
L 622 3647 
L 622 4469 
z
" transform="scale(0.015625)"/>
       </defs>
       <use xlink:href="#DejaVuSerif-14" transform="translate(0 0.746875)"/>
       <use xlink:href="#DejaVuSerif-13" transform="translate(63.623047 0.746875)"/>
       <use xlink:href="#DejaVuSerif-16" transform="translate(128.203125 42.046875) scale(0.7)"/>
      </g>
     </g>
    </g>
    <g id="ytick_4">
     <g id="line2d_11">
      <path d="M 51.861016 31.969708 
L 986.090616 31.969708 
" clip-path="url(#p4def36a24c)" style="fill: none; stroke-dasharray: 1.85,0.8; stroke-dashoffset: 0; stroke: #cccccc; stroke-width: 0.5"/>
     </g>
     <g id="text_12">
      <!-- $\mathdefault{10^{4}}$ -->
      <g style="fill: #262626" transform="translate(24.201016 37.139708) scale(0.11 -0.11)">
       <defs>
        <path id="DejaVuSerif-17" d="M 2234 1581 
L 2234 4063 
L 641 1581 
L 2234 1581 
z
M 3609 0 
L 1484 0 
L 1484 331 
L 2234 331 
L 2234 1247 
L 197 1247 
L 197 1588 
L 2241 4750 
L 2859 4750 
L 2859 1581 
L 3750 1581 
L 3750 1247 
L 2859 1247 
L 2859 331 
L 3609 331 
L 3609 0 
z
" transform="scale(0.015625)"/>
       </defs>
       <use xlink:href="#DejaVuSerif-14" transform="translate(0 0.746875)"/>
       <use xlink:href="#DejaVuSerif-13" transform="translate(63.623047 0.746875)"/>
       <use xlink:href="#DejaVuSerif-17" transform="translate(128.203125 42.046875) scale(0.7)"/>
      </g>
     </g>
    </g>
    <g id="ytick_5"/>
    <g id="ytick_6"/>
    <g id="ytick_7"/>
    <g id="ytick_8"/>
    <g id="ytick_9"/>
    <g id="ytick_10"/>
    <g id="ytick_11"/>
    <g id="ytick_12"/>
    <g id="ytick_13"/>
    <g id="ytick_14"/>
    <g id="ytick_15"/>
    <g id="ytick_16"/>
    <g id="ytick_17"/>
    <g id="ytick_18"/>
    <g id="ytick_19"/>
    <g id="ytick_20"/>
    <g id="ytick_21"/>
    <g id="ytick_22"/>
    <g id="ytick_23"/>
    <g id="ytick_24"/>
    <g id="ytick_25"/>
    <g id="ytick_26"/>
    <g id="ytick_27"/>
    <g id="ytick_28"/>
    <g id="ytick_29"/>
    <g id="ytick_30"/>
    <g id="ytick_31"/>
    <g id="ytick_32"/>
    <g id="ytick_33"/>
    <g id="ytick_34"/>
    <g id="ytick_35"/>
    <g id="ytick_36"/>
    <g id="text_13">
     <!-- Count (log scale) -->
     <g style="fill: #262626" transform="translate(17.077969 228.917797) rotate(-90) scale(0.13 -0.13)">
      <defs>
       <path id="DejaVuSerif-3" transform="scale(0.015625)"/>
       <path id="DejaVuSerif-b" d="M 2041 -997 
Q 1281 -656 893 83 
Q 506 822 506 1931 
Q 506 3044 893 3783 
Q 1281 4522 2041 4863 
L 2041 4556 
Q 1559 4225 1350 3623 
Q 1141 3022 1141 1931 
Q 1141 844 1350 242 
Q 1559 -359 2041 -691 
L 2041 -997 
z
" transform="scale(0.015625)"/>
       <path id="DejaVuSerif-4f" d="M 1313 331 
L 1856 331 
L 1856 0 
L 184 0 
L 184 331 
L 738 331 
L 738 4531 
L 184 4531 
L 184 4863 
L 1313 4863 
L 1313 331 
z
" transform="scale(0.015625)"/>
       <path id="DejaVuSerif-c" d="M 453 -997 
L 453 -691 
Q 934 -359 1145 242 
Q 1356 844 1356 1931 
Q 1356 3022 1145 3623 
Q 934 4225 453 4556 
L 453 4863 
Q 1216 4522 1603 3783 
Q 1991 3044 1991 1931 
Q 1991 822 1603 83 
Q 1216 -656 453 -997 
z
" transform="scale(0.015625)"/>
      </defs>
      <use xlink:href="#DejaVuSerif-26"/>
      <use xlink:href="#DejaVuSerif-52" transform="translate(76.515625 0)"/>
      <use xlink:href="#DejaVuSerif-58" transform="translate(136.71875 0)"/>
      <use xlink:href="#DejaVuSerif-51" transform="translate(201.125 0)"/>
      <use xlink:href="#DejaVuSerif-57" transform="translate(265.53125 0)"/>
      <use xlink:href="#DejaVuSerif-3" transform="translate(305.71875 0)"/>
      <use xlink:href="#DejaVuSerif-b" transform="translate(337.5 0)"/>
      <use xlink:href="#DejaVuSerif-4f" transform="translate(376.515625 0)"/>
      <use xlink:href="#DejaVuSerif-52" transform="translate(408.5 0)"/>
      <use xlink:href="#DejaVuSerif-4a" transform="translate(468.703125 0)"/>
      <use xlink:href="#DejaVuSerif-3" transform="translate(532.71875 0)"/>
      <use xlink:href="#DejaVuSerif-56" transform="translate(564.5 0)"/>
      <use xlink:href="#DejaVuSerif-46" transform="translate(615.8125 0)"/>
      <use xlink:href="#DejaVuSerif-44" transform="translate(671.8125 0)"/>
      <use xlink:href="#DejaVuSerif-4f" transform="translate(731.4375 0)"/>
      <use xlink:href="#DejaVuSerif-48" transform="translate(763.421875 0)"/>
      <use xlink:href="#DejaVuSerif-c" transform="translate(822.609375 0)"/>
     </g>
    </g>
   </g>
   <g id="line2d_12">
    <path d="M 94.325997 199.876634 
L 235.875937 213.767851 
L 377.425876 192.879806 
L 518.975816 209.590633 
L 660.525755 177.866054 
L 802.075694 163.853901 
L 943.625634 131.786248 
" clip-path="url(#p4def36a24c)" style="fill: none; stroke: #2f4f4f; stroke-width: 2; stroke-linecap: round"/>
    <defs>
     <path id="mf6ee46ae69" d="M 0 3 
C 0.795609 3 1.55874 2.683901 2.12132 2.12132 
C 2.683901 1.55874 3 0.795609 3 0 
C 3 -0.795609 2.683901 -1.55874 2.12132 -2.12132 
C 1.55874 -2.683901 0.795609 -3 0 -3 
C -0.795609 -3 -1.55874 -2.683901 -2.12132 -2.12132 
C -2.683901 -1.55874 -3 -0.795609 -3 0 
C -3 0.795609 -2.683901 1.55874 -2.12132 2.12132 
C -1.55874 2.683901 -0.795609 3 0 3 
z
" style="stroke: #2f4f4f"/>
    </defs>
    <g clip-path="url(#p4def36a24c)">
     <use xlink:href="#mf6ee46ae69" x="94.325997" y="199.876634" style="fill: #2f4f4f; stroke: #2f4f4f"/>
     <use xlink:href="#mf6ee46ae69" x="235.875937" y="213.767851" style="fill: #2f4f4f; stroke: #2f4f4f"/>
     <use xlink:href="#mf6ee46ae69" x="377.425876" y="192.879806" style="fill: #2f4f4f; stroke: #2f4f4f"/>
     <use xlink:href="#mf6ee46ae69" x="518.975816" y="209.590633" style="fill: #2f4f4f; stroke: #2f4f4f"/>
     <use xlink:href="#mf6ee46ae69" x="660.525755" y="177.866054" style="fill: #2f4f4f; stroke: #2f4f4f"/>
     <use xlink:href="#mf6ee46ae69" x="802.075694" y="163.853901" style="fill: #2f4f4f; stroke: #2f4f4f"/>
     <use xlink:href="#mf6ee46ae69" x="943.625634" y="131.786248" style="fill: #2f4f4f; stroke: #2f4f4f"/>
    </g>
   </g>
   <g id="line2d_13">
    <path d="M 94.325997 221.045651 
L 235.875937 234.583929 
L 377.425876 214.176595 
L 518.975816 230.529195 
L 660.525755 199.358551 
L 802.075694 185.462004 
L 943.625634 153.526593 
" clip-path="url(#p4def36a24c)" style="fill: none; stroke-dasharray: 7.4,3.2; stroke-dashoffset: 0; stroke: #2f4f4f; stroke-opacity: 0.8; stroke-width: 2"/>
    <defs>
     <path id="m3396e940a4" d="M -2.5 2.5 
L 2.5 2.5 
L 2.5 -2.5 
L -2.5 -2.5 
z
" style="stroke: #2f4f4f; stroke-opacity: 0.8; stroke-linejoin: miter"/>
    </defs>
    <g clip-path="url(#p4def36a24c)">
     <use xlink:href="#m3396e940a4" x="94.325997" y="221.045651" style="fill: #2f4f4f; fill-opacity: 0.8; stroke: #2f4f4f; stroke-opacity: 0.8; stroke-linejoin: miter"/>
     <use xlink:href="#m3396e940a4" x="235.875937" y="234.583929" style="fill: #2f4f4f; fill-opacity: 0.8; stroke: #2f4f4f; stroke-opacity: 0.8; stroke-linejoin: miter"/>
     <use xlink:href="#m3396e940a4" x="377.425876" y="214.176595" style="fill: #2f4f4f; fill-opacity: 0.8; stroke: #2f4f4f; stroke-opacity: 0.8; stroke-linejoin: miter"/>
     <use xlink:href="#m3396e940a4" x="518.975816" y="230.529195" style="fill: #2f4f4f; fill-opacity: 0.8; stroke: #2f4f4f; stroke-opacity: 0.8; stroke-linejoin: miter"/>
     <use xlink:href="#m3396e940a4" x="660.525755" y="199.358551" style="fill: #2f4f4f; fill-opacity: 0.8; stroke: #2f4f4f; stroke-opacity: 0.8; stroke-linejoin: miter"/>
     <use xlink:href="#m3396e940a4" x="802.075694" y="185.462004" style="fill: #2f4f4f; fill-opacity: 0.8; stroke: #2f4f4f; stroke-opacity: 0.8; stroke-linejoin: miter"/>
     <use xlink:href="#m3396e940a4" x="943.625634" y="153.526593" style="fill: #2f4f4f; fill-opacity: 0.8; stroke: #2f4f4f; stroke-opacity: 0.8; stroke-linejoin: miter"/>
    </g>
   </g>
   <g id="line2d_14">
    <path d="M 94.325997 201.210428 
L 235.875937 228.519609 
L 377.425876 221.045651 
L 518.975816 229.844976 
L 660.525755 255.622082 
L 802.075694 194.378795 
L 943.625634 173.060882 
" clip-path="url(#p4def36a24c)" style="fill: none; stroke: #007377; stroke-width: 2; stroke-linecap: round"/>
    <defs>
     <path id="md617a3355e" d="M 0 3 
C 0.795609 3 1.55874 2.683901 2.12132 2.12132 
C 2.683901 1.55874 3 0.795609 3 0 
C 3 -0.795609 2.683901 -1.55874 2.12132 -2.12132 
C 1.55874 -2.683901 0.795609 -3 0 -3 
C -0.795609 -3 -1.55874 -2.683901 -2.12132 -2.12132 
C -2.683901 -1.55874 -3 -0.795609 -3 0 
C -3 0.795609 -2.683901 1.55874 -2.12132 2.12132 
C -1.55874 2.683901 -0.795609 3 0 3 
z
" style="stroke: #007377"/>
    </defs>
    <g clip-path="url(#p4def36a24c)">
     <use xlink:href="#md617a3355e" x="94.325997" y="201.210428" style="fill: #007377; stroke: #007377"/>
     <use xlink:href="#md617a3355e" x="235.875937" y="228.519609" style="fill: #007377; stroke: #007377"/>
     <use xlink:href="#md617a3355e" x="377.425876" y="221.045651" style="fill: #007377; stroke: #007377"/>
     <use xlink:href="#md617a3355e" x="518.975816" y="229.844976" style="fill: #007377; stroke: #007377"/>
     <use xlink:href="#md617a3355e" x="660.525755" y="255.622082" style="fill: #007377; stroke: #007377"/>
     <use xlink:href="#md617a3355e" x="802.075694" y="194.378795" style="fill: #007377; stroke: #007377"/>
     <use xlink:href="#md617a3355e" x="943.625634" y="173.060882" style="fill: #007377; stroke: #007377"/>
    </g>
   </g>
   <g id="line2d_15">
    <path d="M 94.325997 222.351765 
L 235.875937 248.753026 
L 377.425876 241.606887 
L 518.975816 250.012107 
L 660.525755 273.815824 
L 802.075694 215.650508 
L 943.625634 194.598886 
" clip-path="url(#p4def36a24c)" style="fill: none; stroke-dasharray: 7.4,3.2; stroke-dashoffset: 0; stroke: #007377; stroke-opacity: 0.8; stroke-width: 2"/>
    <defs>
     <path id="m37a2dff2d1" d="M -2.5 2.5 
L 2.5 2.5 
L 2.5 -2.5 
L -2.5 -2.5 
z
" style="stroke: #007377; stroke-opacity: 0.8; stroke-linejoin: miter"/>
    </defs>
    <g clip-path="url(#p4def36a24c)">
     <use xlink:href="#m37a2dff2d1" x="94.325997" y="222.351765" style="fill: #007377; fill-opacity: 0.8; stroke: #007377; stroke-opacity: 0.8; stroke-linejoin: miter"/>
     <use xlink:href="#m37a2dff2d1" x="235.875937" y="248.753026" style="fill: #007377; fill-opacity: 0.8; stroke: #007377; stroke-opacity: 0.8; stroke-linejoin: miter"/>
     <use xlink:href="#m37a2dff2d1" x="377.425876" y="241.606887" style="fill: #007377; fill-opacity: 0.8; stroke: #007377; stroke-opacity: 0.8; stroke-linejoin: miter"/>
     <use xlink:href="#m37a2dff2d1" x="518.975816" y="250.012107" style="fill: #007377; fill-opacity: 0.8; stroke: #007377; stroke-opacity: 0.8; stroke-linejoin: miter"/>
     <use xlink:href="#m37a2dff2d1" x="660.525755" y="273.815824" style="fill: #007377; fill-opacity: 0.8; stroke: #007377; stroke-opacity: 0.8; stroke-linejoin: miter"/>
     <use xlink:href="#m37a2dff2d1" x="802.075694" y="215.650508" style="fill: #007377; fill-opacity: 0.8; stroke: #007377; stroke-opacity: 0.8; stroke-linejoin: miter"/>
     <use xlink:href="#m37a2dff2d1" x="943.625634" y="194.598886" style="fill: #007377; fill-opacity: 0.8; stroke: #007377; stroke-opacity: 0.8; stroke-linejoin: miter"/>
    </g>
   </g>
   <g id="line2d_16">
    <path d="M 94.325997 240.165131 
L 235.875937 262.453715 
L 377.425876 260.601838 
L 518.975816 260.601838 
L 660.525755 279.828871 
L 802.075694 240.165131 
L 943.625634 248.753026 
" clip-path="url(#p4def36a24c)" style="fill: none; stroke: #8b0000; stroke-width: 2; stroke-linecap: round"/>
    <defs>
     <path id="m50032a07f6" d="M 0 3 
C 0.795609 3 1.55874 2.683901 2.12132 2.12132 
C 2.683901 1.55874 3 0.795609 3 0 
C 3 -0.795609 2.683901 -1.55874 2.12132 -2.12132 
C 1.55874 -2.683901 0.795609 -3 0 -3 
C -0.795609 -3 -1.55874 -2.683901 -2.12132 -2.12132 
C -2.683901 -1.55874 -3 -0.795609 -3 0 
C -3 0.795609 -2.683901 1.55874 -2.12132 2.12132 
C -1.55874 2.683901 -0.795609 3 0 3 
z
" style="stroke: #8b0000"/>
    </defs>
    <g clip-path="url(#p4def36a24c)">
     <use xlink:href="#m50032a07f6" x="94.325997" y="240.165131" style="fill: #8b0000; stroke: #8b0000"/>
     <use xlink:href="#m50032a07f6" x="235.875937" y="262.453715" style="fill: #8b0000; stroke: #8b0000"/>
     <use xlink:href="#m50032a07f6" x="377.425876" y="260.601838" style="fill: #8b0000; stroke: #8b0000"/>
     <use xlink:href="#m50032a07f6" x="518.975816" y="260.601838" style="fill: #8b0000; stroke: #8b0000"/>
     <use xlink:href="#m50032a07f6" x="660.525755" y="279.828871" style="fill: #8b0000; stroke: #8b0000"/>
     <use xlink:href="#m50032a07f6" x="802.075694" y="240.165131" style="fill: #8b0000; stroke: #8b0000"/>
     <use xlink:href="#m50032a07f6" x="943.625634" y="248.753026" style="fill: #8b0000; stroke: #8b0000"/>
    </g>
   </g>
   <g id="line2d_17">
    <path d="M 94.325997 259.715221 
L 235.875937 279.828871 
L 377.425876 278.214527 
L 518.975816 278.214527 
L 660.525755 294.291651 
L 802.075694 259.715221 
L 943.625634 267.624795 
" clip-path="url(#p4def36a24c)" style="fill: none; stroke-dasharray: 7.4,3.2; stroke-dashoffset: 0; stroke: #8b0000; stroke-opacity: 0.8; stroke-width: 2"/>
    <defs>
     <path id="m7579dcb025" d="M -2.5 2.5 
L 2.5 2.5 
L 2.5 -2.5 
L -2.5 -2.5 
z
" style="stroke: #8b0000; stroke-opacity: 0.8; stroke-linejoin: miter"/>
    </defs>
    <g clip-path="url(#p4def36a24c)">
     <use xlink:href="#m7579dcb025" x="94.325997" y="259.715221" style="fill: #8b0000; fill-opacity: 0.8; stroke: #8b0000; stroke-opacity: 0.8; stroke-linejoin: miter"/>
     <use xlink:href="#m7579dcb025" x="235.875937" y="279.828871" style="fill: #8b0000; fill-opacity: 0.8; stroke: #8b0000; stroke-opacity: 0.8; stroke-linejoin: miter"/>
     <use xlink:href="#m7579dcb025" x="377.425876" y="278.214527" style="fill: #8b0000; fill-opacity: 0.8; stroke: #8b0000; stroke-opacity: 0.8; stroke-linejoin: miter"/>
     <use xlink:href="#m7579dcb025" x="518.975816" y="278.214527" style="fill: #8b0000; fill-opacity: 0.8; stroke: #8b0000; stroke-opacity: 0.8; stroke-linejoin: miter"/>
     <use xlink:href="#m7579dcb025" x="660.525755" y="294.291651" style="fill: #8b0000; fill-opacity: 0.8; stroke: #8b0000; stroke-opacity: 0.8; stroke-linejoin: miter"/>
     <use xlink:href="#m7579dcb025" x="802.075694" y="259.715221" style="fill: #8b0000; fill-opacity: 0.8; stroke: #8b0000; stroke-opacity: 0.8; stroke-linejoin: miter"/>
     <use xlink:href="#m7579dcb025" x="943.625634" y="267.624795" style="fill: #8b0000; fill-opacity: 0.8; stroke: #8b0000; stroke-opacity: 0.8; stroke-linejoin: miter"/>
    </g>
   </g>
   <g id="line2d_18">
    <path d="M 94.325997 218.115833 
L 235.875937 252.692263 
L 377.425876 273.815824 
L 518.975816 271.191569 
L 660.525755 297.030145 
L 802.075694 234.979819 
L 943.625634 218.115833 
" clip-path="url(#p4def36a24c)" style="fill: none; stroke: #b8860b; stroke-width: 2; stroke-linecap: round"/>
    <defs>
     <path id="m09566debb2" d="M 0 3 
C 0.795609 3 1.55874 2.683901 2.12132 2.12132 
C 2.683901 1.55874 3 0.795609 3 0 
C 3 -0.795609 2.683901 -1.55874 2.12132 -2.12132 
C 1.55874 -2.683901 0.795609 -3 0 -3 
C -0.795609 -3 -1.55874 -2.683901 -2.12132 -2.12132 
C -2.683901 -1.55874 -3 -0.795609 -3 0 
C -3 0.795609 -2.683901 1.55874 -2.12132 2.12132 
C -1.55874 2.683901 -0.795609 3 0 3 
z
" style="stroke: #b8860b"/>
    </defs>
    <g clip-path="url(#p4def36a24c)">
     <use xlink:href="#m09566debb2" x="94.325997" y="218.115833" style="fill: #b8860b; stroke: #b8860b"/>
     <use xlink:href="#m09566debb2" x="235.875937" y="252.692263" style="fill: #b8860b; stroke: #b8860b"/>
     <use xlink:href="#m09566debb2" x="377.425876" y="273.815824" style="fill: #b8860b; stroke: #b8860b"/>
     <use xlink:href="#m09566debb2" x="518.975816" y="271.191569" style="fill: #b8860b; stroke: #b8860b"/>
     <use xlink:href="#m09566debb2" x="660.525755" y="297.030145" style="fill: #b8860b; stroke: #b8860b"/>
     <use xlink:href="#m09566debb2" x="802.075694" y="234.979819" style="fill: #b8860b; stroke: #b8860b"/>
     <use xlink:href="#m09566debb2" x="943.625634" y="218.115833" style="fill: #b8860b; stroke: #b8860b"/>
    </g>
   </g>
   <g id="line2d_19">
    <path d="M 94.325997 238.786539 
L 235.875937 271.191569 
L 377.425876 289.440094 
L 518.975816 287.268694 
L 660.525755 307.052783 
L 802.075694 254.863664 
L 943.625634 238.786539 
" clip-path="url(#p4def36a24c)" style="fill: none; stroke-dasharray: 7.4,3.2; stroke-dashoffset: 0; stroke: #b8860b; stroke-opacity: 0.8; stroke-width: 2"/>
    <defs>
     <path id="m81fb885f0b" d="M -2.5 2.5 
L 2.5 2.5 
L 2.5 -2.5 
L -2.5 -2.5 
z
" style="stroke: #b8860b; stroke-opacity: 0.8; stroke-linejoin: miter"/>
    </defs>
    <g clip-path="url(#p4def36a24c)">
     <use xlink:href="#m81fb885f0b" x="94.325997" y="238.786539" style="fill: #b8860b; fill-opacity: 0.8; stroke: #b8860b; stroke-opacity: 0.8; stroke-linejoin: miter"/>
     <use xlink:href="#m81fb885f0b" x="235.875937" y="271.191569" style="fill: #b8860b; fill-opacity: 0.8; stroke: #b8860b; stroke-opacity: 0.8; stroke-linejoin: miter"/>
     <use xlink:href="#m81fb885f0b" x="377.425876" y="289.440094" style="fill: #b8860b; fill-opacity: 0.8; stroke: #b8860b; stroke-opacity: 0.8; stroke-linejoin: miter"/>
     <use xlink:href="#m81fb885f0b" x="518.975816" y="287.268694" style="fill: #b8860b; fill-opacity: 0.8; stroke: #b8860b; stroke-opacity: 0.8; stroke-linejoin: miter"/>
     <use xlink:href="#m81fb885f0b" x="660.525755" y="307.052783" style="fill: #b8860b; fill-opacity: 0.8; stroke: #b8860b; stroke-opacity: 0.8; stroke-linejoin: miter"/>
     <use xlink:href="#m81fb885f0b" x="802.075694" y="254.863664" style="fill: #b8860b; fill-opacity: 0.8; stroke: #b8860b; stroke-opacity: 0.8; stroke-linejoin: miter"/>
     <use xlink:href="#m81fb885f0b" x="943.625634" y="238.786539" style="fill: #b8860b; fill-opacity: 0.8; stroke: #b8860b; stroke-opacity: 0.8; stroke-linejoin: miter"/>
    </g>
   </g>
   <g id="line2d_20">
    <path d="M 94.325997 218.115833 
L 235.875937 250.012107 
L 377.425876 266.520373 
L 518.975816 264.421407 
L 660.525755 283.329456 
L 802.075694 226.630673 
L 943.625634 204.060594 
" clip-path="url(#p4def36a24c)" style="fill: none; stroke: #4b6c84; stroke-width: 2; stroke-linecap: round"/>
    <defs>
     <path id="m2997d0353a" d="M 0 3 
C 0.795609 3 1.55874 2.683901 2.12132 2.12132 
C 2.683901 1.55874 3 0.795609 3 0 
C 3 -0.795609 2.683901 -1.55874 2.12132 -2.12132 
C 1.55874 -2.683901 0.795609 -3 0 -3 
C -0.795609 -3 -1.55874 -2.683901 -2.12132 -2.12132 
C -2.683901 -1.55874 -3 -0.795609 -3 0 
C -3 0.795609 -2.683901 1.55874 -2.12132 2.12132 
C -1.55874 2.683901 -0.795609 3 0 3 
z
" style="stroke: #4b6c84"/>
    </defs>
    <g clip-path="url(#p4def36a24c)">
     <use xlink:href="#m2997d0353a" x="94.325997" y="218.115833" style="fill: #4b6c84; stroke: #4b6c84"/>
     <use xlink:href="#m2997d0353a" x="235.875937" y="250.012107" style="fill: #4b6c84; stroke: #4b6c84"/>
     <use xlink:href="#m2997d0353a" x="377.425876" y="266.520373" style="fill: #4b6c84; stroke: #4b6c84"/>
     <use xlink:href="#m2997d0353a" x="518.975816" y="264.421407" style="fill: #4b6c84; stroke: #4b6c84"/>
     <use xlink:href="#m2997d0353a" x="660.525755" y="283.329456" style="fill: #4b6c84; stroke: #4b6c84"/>
     <use xlink:href="#m2997d0353a" x="802.075694" y="226.630673" style="fill: #4b6c84; stroke: #4b6c84"/>
     <use xlink:href="#m2997d0353a" x="943.625634" y="204.060594" style="fill: #4b6c84; stroke: #4b6c84"/>
    </g>
   </g>
   <g id="line2d_21">
    <path d="M 94.325997 238.786539 
L 235.875937 268.769388 
L 377.425876 283.329456 
L 518.975816 281.53052 
L 660.525755 297.030145 
L 802.075694 246.954089 
L 943.625634 225.13879 
" clip-path="url(#p4def36a24c)" style="fill: none; stroke-dasharray: 7.4,3.2; stroke-dashoffset: 0; stroke: #4b6c84; stroke-opacity: 0.8; stroke-width: 2"/>
    <defs>
     <path id="mb837454b33" d="M -2.5 2.5 
L 2.5 2.5 
L 2.5 -2.5 
L -2.5 -2.5 
z
" style="stroke: #4b6c84; stroke-opacity: 0.8; stroke-linejoin: miter"/>
    </defs>
    <g clip-path="url(#p4def36a24c)">
     <use xlink:href="#mb837454b33" x="94.325997" y="238.786539" style="fill: #4b6c84; fill-opacity: 0.8; stroke: #4b6c84; stroke-opacity: 0.8; stroke-linejoin: miter"/>
     <use xlink:href="#mb837454b33" x="235.875937" y="268.769388" style="fill: #4b6c84; fill-opacity: 0.8; stroke: #4b6c84; stroke-opacity: 0.8; stroke-linejoin: miter"/>
     <use xlink:href="#mb837454b33" x="377.425876" y="283.329456" style="fill: #4b6c84; fill-opacity: 0.8; stroke: #4b6c84; stroke-opacity: 0.8; stroke-linejoin: miter"/>
     <use xlink:href="#mb837454b33" x="518.975816" y="281.53052" style="fill: #4b6c84; fill-opacity: 0.8; stroke: #4b6c84; stroke-opacity: 0.8; stroke-linejoin: miter"/>
     <use xlink:href="#mb837454b33" x="660.525755" y="297.030145" style="fill: #4b6c84; fill-opacity: 0.8; stroke: #4b6c84; stroke-opacity: 0.8; stroke-linejoin: miter"/>
     <use xlink:href="#mb837454b33" x="802.075694" y="246.954089" style="fill: #4b6c84; fill-opacity: 0.8; stroke: #4b6c84; stroke-opacity: 0.8; stroke-linejoin: miter"/>
     <use xlink:href="#mb837454b33" x="943.625634" y="225.13879" style="fill: #4b6c84; fill-opacity: 0.8; stroke: #4b6c84; stroke-opacity: 0.8; stroke-linejoin: miter"/>
    </g>
   </g>
   <g id="line2d_22">
    <path d="M 94.325997 210.310043 
L 235.875937 219.546662 
L 377.425876 205.588701 
L 518.975816 229.844976 
L 660.525755 208.887301 
L 802.075694 200.670109 
L 943.625634 201.760186 
" clip-path="url(#p4def36a24c)" style="fill: none; stroke: #a0522d; stroke-width: 2; stroke-linecap: round"/>
    <defs>
     <path id="mbfa9ef389d" d="M 0 3 
C 0.795609 3 1.55874 2.683901 2.12132 2.12132 
C 2.683901 1.55874 3 0.795609 3 0 
C 3 -0.795609 2.683901 -1.55874 2.12132 -2.12132 
C 1.55874 -2.683901 0.795609 -3 0 -3 
C -0.795609 -3 -1.55874 -2.683901 -2.12132 -2.12132 
C -2.683901 -1.55874 -3 -0.795609 -3 0 
C -3 0.795609 -2.683901 1.55874 -2.12132 2.12132 
C -1.55874 2.683901 -0.795609 3 0 3 
z
" style="stroke: #a0522d"/>
    </defs>
    <g clip-path="url(#p4def36a24c)">
     <use xlink:href="#mbfa9ef389d" x="94.325997" y="210.310043" style="fill: #a0522d; stroke: #a0522d"/>
     <use xlink:href="#mbfa9ef389d" x="235.875937" y="219.546662" style="fill: #a0522d; stroke: #a0522d"/>
     <use xlink:href="#mbfa9ef389d" x="377.425876" y="205.588701" style="fill: #a0522d; stroke: #a0522d"/>
     <use xlink:href="#mbfa9ef389d" x="518.975816" y="229.844976" style="fill: #a0522d; stroke: #a0522d"/>
     <use xlink:href="#mbfa9ef389d" x="660.525755" y="208.887301" style="fill: #a0522d; stroke: #a0522d"/>
     <use xlink:href="#mbfa9ef389d" x="802.075694" y="200.670109" style="fill: #a0522d; stroke: #a0522d"/>
     <use xlink:href="#mbfa9ef389d" x="943.625634" y="201.760186" style="fill: #a0522d; stroke: #a0522d"/>
    </g>
   </g>
   <g id="line2d_23">
    <path d="M 94.325997 231.22862 
L 235.875937 240.165131 
L 377.425876 226.630673 
L 518.975816 250.012107 
L 660.525755 229.844976 
L 802.075694 221.822797 
L 943.625634 222.889775 
" clip-path="url(#p4def36a24c)" style="fill: none; stroke-dasharray: 7.4,3.2; stroke-dashoffset: 0; stroke: #a0522d; stroke-opacity: 0.8; stroke-width: 2"/>
    <defs>
     <path id="m7024041c21" d="M -2.5 2.5 
L 2.5 2.5 
L 2.5 -2.5 
L -2.5 -2.5 
z
" style="stroke: #a0522d; stroke-opacity: 0.8; stroke-linejoin: miter"/>
    </defs>
    <g clip-path="url(#p4def36a24c)">
     <use xlink:href="#m7024041c21" x="94.325997" y="231.22862" style="fill: #a0522d; fill-opacity: 0.8; stroke: #a0522d; stroke-opacity: 0.8; stroke-linejoin: miter"/>
     <use xlink:href="#m7024041c21" x="235.875937" y="240.165131" style="fill: #a0522d; fill-opacity: 0.8; stroke: #a0522d; stroke-opacity: 0.8; stroke-linejoin: miter"/>
     <use xlink:href="#m7024041c21" x="377.425876" y="226.630673" style="fill: #a0522d; fill-opacity: 0.8; stroke: #a0522d; stroke-opacity: 0.8; stroke-linejoin: miter"/>
     <use xlink:href="#m7024041c21" x="518.975816" y="250.012107" style="fill: #a0522d; fill-opacity: 0.8; stroke: #a0522d; stroke-opacity: 0.8; stroke-linejoin: miter"/>
     <use xlink:href="#m7024041c21" x="660.525755" y="229.844976" style="fill: #a0522d; fill-opacity: 0.8; stroke: #a0522d; stroke-opacity: 0.8; stroke-linejoin: miter"/>
     <use xlink:href="#m7024041c21" x="802.075694" y="221.822797" style="fill: #a0522d; fill-opacity: 0.8; stroke: #a0522d; stroke-opacity: 0.8; stroke-linejoin: miter"/>
     <use xlink:href="#m7024041c21" x="943.625634" y="222.889775" style="fill: #a0522d; fill-opacity: 0.8; stroke: #a0522d; stroke-opacity: 0.8; stroke-linejoin: miter"/>
    </g>
   </g>
   <g id="line2d_24">
    <path d="M 94.325997 85.841493 
L 235.875937 90.022198 
L 377.425876 105.684029 
L 518.975816 100.720409 
L 660.525755 93.402401 
L 802.075694 72.996805 
L 943.625634 38.771561 
" clip-path="url(#p4def36a24c)" style="fill: none; stroke: #556b2f; stroke-width: 2; stroke-linecap: round"/>
    <defs>
     <path id="mb1c9006d1e" d="M 0 3 
C 0.795609 3 1.55874 2.683901 2.12132 2.12132 
C 2.683901 1.55874 3 0.795609 3 0 
C 3 -0.795609 2.683901 -1.55874 2.12132 -2.12132 
C 1.55874 -2.683901 0.795609 -3 0 -3 
C -0.795609 -3 -1.55874 -2.683901 -2.12132 -2.12132 
C -2.683901 -1.55874 -3 -0.795609 -3 0 
C -3 0.795609 -2.683901 1.55874 -2.12132 2.12132 
C -1.55874 2.683901 -0.795609 3 0 3 
z
" style="stroke: #556b2f"/>
    </defs>
    <g clip-path="url(#p4def36a24c)">
     <use xlink:href="#mb1c9006d1e" x="94.325997" y="85.841493" style="fill: #556b2f; stroke: #556b2f"/>
     <use xlink:href="#mb1c9006d1e" x="235.875937" y="90.022198" style="fill: #556b2f; stroke: #556b2f"/>
     <use xlink:href="#mb1c9006d1e" x="377.425876" y="105.684029" style="fill: #556b2f; stroke: #556b2f"/>
     <use xlink:href="#mb1c9006d1e" x="518.975816" y="100.720409" style="fill: #556b2f; stroke: #556b2f"/>
     <use xlink:href="#mb1c9006d1e" x="660.525755" y="93.402401" style="fill: #556b2f; stroke: #556b2f"/>
     <use xlink:href="#mb1c9006d1e" x="802.075694" y="72.996805" style="fill: #556b2f; stroke: #556b2f"/>
     <use xlink:href="#mb1c9006d1e" x="943.625634" y="38.771561" style="fill: #556b2f; stroke: #556b2f"/>
    </g>
   </g>
   <g id="line2d_25">
    <path d="M 94.325997 104.388246 
L 235.875937 107.986206 
L 377.425876 124.089176 
L 518.975816 119.220834 
L 660.525755 111.109428 
L 802.075694 93.844335 
L 943.625634 59.799844 
" clip-path="url(#p4def36a24c)" style="fill: none; stroke-dasharray: 7.4,3.2; stroke-dashoffset: 0; stroke: #556b2f; stroke-opacity: 0.8; stroke-width: 2"/>
    <defs>
     <path id="md6627e1e69" d="M -2.5 2.5 
L 2.5 2.5 
L 2.5 -2.5 
L -2.5 -2.5 
z
" style="stroke: #556b2f; stroke-opacity: 0.8; stroke-linejoin: miter"/>
    </defs>
    <g clip-path="url(#p4def36a24c)">
     <use xlink:href="#md6627e1e69" x="94.325997" y="104.388246" style="fill: #556b2f; fill-opacity: 0.8; stroke: #556b2f; stroke-opacity: 0.8; stroke-linejoin: miter"/>
     <use xlink:href="#md6627e1e69" x="235.875937" y="107.986206" style="fill: #556b2f; fill-opacity: 0.8; stroke: #556b2f; stroke-opacity: 0.8; stroke-linejoin: miter"/>
     <use xlink:href="#md6627e1e69" x="377.425876" y="124.089176" style="fill: #556b2f; fill-opacity: 0.8; stroke: #556b2f; stroke-opacity: 0.8; stroke-linejoin: miter"/>
     <use xlink:href="#md6627e1e69" x="518.975816" y="119.220834" style="fill: #556b2f; fill-opacity: 0.8; stroke: #556b2f; stroke-opacity: 0.8; stroke-linejoin: miter"/>
     <use xlink:href="#md6627e1e69" x="660.525755" y="111.109428" style="fill: #556b2f; fill-opacity: 0.8; stroke: #556b2f; stroke-opacity: 0.8; stroke-linejoin: miter"/>
     <use xlink:href="#md6627e1e69" x="802.075694" y="93.844335" style="fill: #556b2f; fill-opacity: 0.8; stroke: #556b2f; stroke-opacity: 0.8; stroke-linejoin: miter"/>
     <use xlink:href="#md6627e1e69" x="943.625634" y="59.799844" style="fill: #556b2f; fill-opacity: 0.8; stroke: #556b2f; stroke-opacity: 0.8; stroke-linejoin: miter"/>
    </g>
   </g>
   <g id="patch_3">
    <path d="M 51.861016 320.466844 
L 51.861016 25.3575 
" style="fill: none; stroke: #cccccc; stroke-linejoin: miter; stroke-linecap: square"/>
   </g>
   <g id="patch_4">
    <path d="M 986.090616 320.466844 
L 986.090616 25.3575 
" style="fill: none; stroke: #cccccc; stroke-linejoin: miter; stroke-linecap: square"/>
   </g>
   <g id="patch_5">
    <path d="M 51.861016 320.466844 
L 986.090616 320.466844 
" style="fill: none; stroke: #cccccc; stroke-linejoin: miter; stroke-linecap: square"/>
   </g>
   <g id="patch_6">
    <path d="M 51.861016 25.3575 
L 986.090616 25.3575 
" style="fill: none; stroke: #cccccc; stroke-linejoin: miter; stroke-linecap: square"/>
   </g>
   <g id="text_14">
    <!-- Nodes and Leaves per Dataset by Method -->
    <g style="fill: #262626" transform="translate(333.878316 19.3575) scale(0.16 -0.16)">
     <defs>
      <path id="DejaVuSerif-Bold-31" d="M 281 0 
L 281 378 
L 878 378 
L 878 4288 
L 281 4288 
L 281 4666 
L 1741 4666 
L 4556 1363 
L 4556 4288 
L 3963 4288 
L 3963 4666 
L 5594 4666 
L 5594 4288 
L 4997 4288 
L 4997 0 
L 4178 0 
L 1319 3372 
L 1319 378 
L 1913 378 
L 1913 0 
L 281 0 
z
" transform="scale(0.015625)"/>
      <path id="DejaVuSerif-Bold-52" d="M 2138 263 
Q 2488 263 2630 563 
Q 2772 863 2772 1663 
Q 2772 2463 2631 2761 
Q 2491 3059 2138 3059 
Q 1784 3059 1640 2757 
Q 1497 2456 1497 1663 
Q 1497 869 1640 566 
Q 1784 263 2138 263 
z
M 2138 -91 
Q 1259 -91 761 376 
Q 263 844 263 1663 
Q 263 2484 761 2948 
Q 1259 3413 2138 3413 
Q 3019 3413 3516 2948 
Q 4013 2484 4013 1663 
Q 4013 844 3514 376 
Q 3016 -91 2138 -91 
z
" transform="scale(0.015625)"/>
      <path id="DejaVuSerif-Bold-47" d="M 2747 1497 
L 2747 1825 
Q 2747 2406 2597 2665 
Q 2447 2925 2119 2925 
Q 1775 2925 1636 2651 
Q 1497 2378 1497 1663 
Q 1497 947 1637 672 
Q 1778 397 2119 397 
Q 2447 397 2597 656 
Q 2747 916 2747 1497 
z
M 3853 378 
L 4325 378 
L 4325 0 
L 2747 0 
L 2747 422 
Q 2606 163 2367 36 
Q 2128 -91 1778 -91 
Q 1072 -91 667 378 
Q 263 847 263 1663 
Q 263 2481 667 2947 
Q 1072 3413 1778 3413 
Q 2128 3413 2367 3286 
Q 2606 3159 2747 2900 
L 2747 4488 
L 2272 4488 
L 2272 4863 
L 3853 4863 
L 3853 378 
z
" transform="scale(0.015625)"/>
      <path id="DejaVuSerif-Bold-48" d="M 2566 1875 
Q 2566 2531 2444 2795 
Q 2322 3059 2028 3059 
Q 1744 3059 1620 2800 
Q 1497 2541 1497 1931 
L 1497 1875 
L 2566 1875 
z
M 3781 1503 
L 1497 1503 
L 1497 1478 
Q 1497 834 1690 548 
Q 1884 263 2316 263 
Q 2675 263 2897 453 
Q 3119 644 3181 1006 
L 3700 1006 
Q 3566 441 3166 175 
Q 2766 -91 2047 -91 
Q 1184 -91 723 364 
Q 263 819 263 1663 
Q 263 2488 734 2950 
Q 1206 3413 2047 3413 
Q 2872 3413 3312 2927 
Q 3753 2441 3781 1503 
z
" transform="scale(0.015625)"/>
      <path id="DejaVuSerif-Bold-56" d="M 300 97 
L 300 1025 
L 653 1025 
Q 697 653 931 458 
Q 1166 263 1569 263 
Q 1906 263 2086 380 
Q 2266 497 2266 716 
Q 2266 916 2152 1025 
Q 2038 1134 1709 1216 
L 1253 1331 
Q 738 1459 506 1698 
Q 275 1938 275 2344 
Q 275 2884 650 3148 
Q 1025 3413 1806 3413 
Q 2100 3413 2433 3364 
Q 2766 3316 3169 3213 
L 3169 2375 
L 2816 2375 
Q 2788 2716 2573 2887 
Q 2359 3059 1959 3059 
Q 1622 3059 1448 2951 
Q 1275 2844 1275 2638 
Q 1275 2469 1375 2372 
Q 1475 2275 1734 2209 
L 2188 2094 
Q 2841 1928 3091 1684 
Q 3341 1441 3341 1006 
Q 3341 444 2939 176 
Q 2538 -91 1691 -91 
Q 1381 -91 1034 -44 
Q 688 3 300 97 
z
" transform="scale(0.015625)"/>
      <path id="DejaVuSerif-Bold-3" transform="scale(0.015625)"/>
      <path id="DejaVuSerif-Bold-44" d="M 3525 2041 
L 3525 378 
L 4000 378 
L 4000 0 
L 2419 0 
L 2419 422 
Q 2200 159 1931 34 
Q 1663 -91 1319 -91 
Q 809 -91 536 182 
Q 263 456 263 966 
Q 263 1525 655 1803 
Q 1047 2081 1838 2081 
L 2419 2081 
L 2419 2278 
Q 2419 2681 2228 2873 
Q 2038 3066 1638 3066 
Q 1306 3066 1126 2930 
Q 947 2794 872 2484 
L 519 2484 
L 519 3200 
Q 816 3306 1134 3359 
Q 1453 3413 1806 3413 
Q 2697 3413 3111 3081 
Q 3525 2750 3525 2041 
z
M 2419 1044 
L 2419 1709 
L 2003 1709 
Q 1694 1709 1528 1540 
Q 1363 1372 1363 1056 
Q 1363 741 1483 584 
Q 1603 428 1850 428 
Q 2106 428 2262 597 
Q 2419 766 2419 1044 
z
" transform="scale(0.015625)"/>
      <path id="DejaVuSerif-Bold-51" d="M 219 0 
L 219 378 
L 691 378 
L 691 2944 
L 219 2944 
L 219 3322 
L 1797 3322 
L 1797 2853 
Q 1997 3150 2253 3281 
Q 2509 3413 2900 3413 
Q 3459 3413 3745 3083 
Q 4031 2753 4031 2113 
L 4031 378 
L 4506 378 
L 4506 0 
L 2522 0 
L 2522 378 
L 2925 378 
L 2925 2144 
Q 2925 2566 2817 2730 
Q 2709 2894 2444 2894 
Q 2109 2894 1953 2648 
Q 1797 2403 1797 1869 
L 1797 378 
L 2203 378 
L 2203 0 
L 219 0 
z
" transform="scale(0.015625)"/>
      <path id="DejaVuSerif-Bold-2f" d="M 300 0 
L 300 378 
L 897 378 
L 897 4288 
L 300 4288 
L 300 4666 
L 2700 4666 
L 2700 4288 
L 2100 4288 
L 2100 428 
L 3938 428 
L 3938 1166 
L 4359 1166 
L 4359 0 
L 300 0 
z
" transform="scale(0.015625)"/>
      <path id="DejaVuSerif-Bold-59" d="M 1428 0 
L 250 2944 
L -116 2944 
L -116 3322 
L 1791 3322 
L 1791 2944 
L 1388 2944 
L 2228 844 
L 3066 2944 
L 2631 2944 
L 2631 3322 
L 3878 3322 
L 3878 2944 
L 3494 2944 
L 2316 0 
L 1428 0 
z
" transform="scale(0.015625)"/>
      <path id="DejaVuSerif-Bold-53" d="M 1728 1825 
L 1728 1497 
Q 1728 916 1876 656 
Q 2025 397 2356 397 
Q 2697 397 2836 672 
Q 2975 947 2975 1663 
Q 2975 2378 2836 2651 
Q 2697 2925 2356 2925 
Q 2025 2925 1876 2665 
Q 1728 2406 1728 1825 
z
M 622 2944 
L 147 2944 
L 147 3322 
L 1728 3322 
L 1728 2900 
Q 1869 3159 2106 3286 
Q 2344 3413 2694 3413 
Q 3403 3413 3811 2945 
Q 4219 2478 4219 1663 
Q 4219 847 3811 378 
Q 3403 -91 2694 -91 
Q 2344 -91 2106 36 
Q 1869 163 1728 422 
L 1728 -953 
L 2241 -953 
L 2241 -1331 
L 147 -1331 
L 147 -953 
L 622 -953 
L 622 2944 
z
" transform="scale(0.015625)"/>
      <path id="DejaVuSerif-Bold-55" d="M 3438 3359 
L 3438 2369 
L 3084 2369 
Q 3066 2634 2941 2764 
Q 2816 2894 2578 2894 
Q 2216 2894 2006 2575 
Q 1797 2256 1797 1691 
L 1797 378 
L 2400 378 
L 2400 0 
L 219 0 
L 219 378 
L 691 378 
L 691 2944 
L 184 2944 
L 184 3322 
L 1797 3322 
L 1797 2731 
Q 1959 3078 2226 3245 
Q 2494 3413 2881 3413 
Q 2978 3413 3117 3398 
Q 3256 3384 3438 3359 
z
" transform="scale(0.015625)"/>
      <path id="DejaVuSerif-Bold-27" d="M 2100 378 
L 2534 378 
Q 3266 378 3605 847 
Q 3944 1316 3944 2338 
Q 3944 3353 3606 3820 
Q 3269 4288 2534 4288 
L 2100 4288 
L 2100 378 
z
M 300 0 
L 300 378 
L 897 378 
L 897 4288 
L 300 4288 
L 300 4666 
L 2694 4666 
Q 3950 4666 4615 4066 
Q 5281 3466 5281 2338 
Q 5281 1203 4614 601 
Q 3947 0 2694 0 
L 300 0 
z
" transform="scale(0.015625)"/>
      <path id="DejaVuSerif-Bold-57" d="M 634 2944 
L 153 2944 
L 153 3322 
L 634 3322 
L 634 4353 
L 1741 4353 
L 1741 3322 
L 2663 3322 
L 2663 2944 
L 1741 2944 
L 1741 909 
Q 1741 475 1809 369 
Q 1878 263 2059 263 
Q 2259 263 2356 397 
Q 2453 531 2459 813 
L 2925 813 
Q 2897 313 2651 111 
Q 2406 -91 1806 -91 
Q 1122 -91 878 123 
Q 634 338 634 909 
L 634 2944 
z
" transform="scale(0.015625)"/>
      <path id="DejaVuSerif-Bold-45" d="M 622 378 
L 622 4488 
L 147 4488 
L 147 4863 
L 1728 4863 
L 1728 2900 
Q 1869 3159 2106 3286 
Q 2344 3413 2694 3413 
Q 3403 3413 3811 2945 
Q 4219 2478 4219 1663 
Q 4219 847 3811 378 
Q 3403 -91 2694 -91 
Q 2344 -91 2106 36 
Q 1869 163 1728 422 
L 1728 0 
L 147 0 
L 147 378 
L 622 378 
z
M 1728 1497 
Q 1728 916 1876 656 
Q 2025 397 2356 397 
Q 2697 397 2836 672 
Q 2975 947 2975 1663 
Q 2975 2378 2836 2651 
Q 2697 2925 2356 2925 
Q 2025 2925 1876 2665 
Q 1728 2406 1728 1825 
L 1728 1497 
z
" transform="scale(0.015625)"/>
      <path id="DejaVuSerif-Bold-5c" d="M 1997 -750 
Q 1847 -1116 1634 -1269 
Q 1422 -1422 1063 -1422 
Q 909 -1422 721 -1387 
Q 534 -1353 313 -1288 
L 313 -594 
L 666 -597 
Q 675 -838 779 -953 
Q 884 -1069 1094 -1069 
Q 1297 -1069 1422 -958 
Q 1547 -847 1672 -538 
L 1722 -422 
L 275 2944 
L -84 2944 
L -84 3322 
L 1831 3322 
L 1831 2944 
L 1434 2944 
L 2278 978 
L 3066 2944 
L 2625 2944 
L 2625 3322 
L 3872 3322 
L 3872 2944 
L 3469 2944 
L 1997 -750 
z
" transform="scale(0.015625)"/>
      <path id="DejaVuSerif-Bold-30" d="M 269 0 
L 269 378 
L 863 378 
L 863 4288 
L 269 4288 
L 269 4666 
L 2194 4666 
L 3525 1672 
L 4863 4666 
L 6784 4666 
L 6784 4288 
L 6188 4288 
L 6188 378 
L 6784 378 
L 6784 0 
L 4384 0 
L 4384 378 
L 4978 378 
L 4978 3938 
L 3531 684 
L 2741 684 
L 1300 3938 
L 1300 378 
L 1894 378 
L 1894 0 
L 269 0 
z
" transform="scale(0.015625)"/>
      <path id="DejaVuSerif-Bold-4b" d="M 219 0 
L 219 378 
L 691 378 
L 691 4488 
L 197 4488 
L 197 4863 
L 1797 4863 
L 1797 2853 
Q 1997 3150 2253 3281 
Q 2509 3413 2900 3413 
Q 3459 3413 3745 3083 
Q 4031 2753 4031 2113 
L 4031 378 
L 4506 378 
L 4506 0 
L 2522 0 
L 2522 378 
L 2925 378 
L 2925 2144 
Q 2925 2566 2817 2730 
Q 2709 2894 2444 2894 
Q 2109 2894 1953 2648 
Q 1797 2403 1797 1869 
L 1797 378 
L 2203 378 
L 2203 0 
L 219 0 
z
" transform="scale(0.015625)"/>
     </defs>
     <use xlink:href="#DejaVuSerif-Bold-31"/>
     <use xlink:href="#DejaVuSerif-Bold-52" transform="translate(91.40625 0)"/>
     <use xlink:href="#DejaVuSerif-Bold-47" transform="translate(158.109375 0)"/>
     <use xlink:href="#DejaVuSerif-Bold-48" transform="translate(228.03125 0)"/>
     <use xlink:href="#DejaVuSerif-Bold-56" transform="translate(291.65625 0)"/>
     <use xlink:href="#DejaVuSerif-Bold-3" transform="translate(347.953125 0)"/>
     <use xlink:href="#DejaVuSerif-Bold-44" transform="translate(382.765625 0)"/>
     <use xlink:href="#DejaVuSerif-Bold-51" transform="translate(447.5625 0)"/>
     <use xlink:href="#DejaVuSerif-Bold-47" transform="translate(520.265625 0)"/>
     <use xlink:href="#DejaVuSerif-Bold-3" transform="translate(590.1875 0)"/>
     <use xlink:href="#DejaVuSerif-Bold-2f" transform="translate(625 0)"/>
     <use xlink:href="#DejaVuSerif-Bold-48" transform="translate(695.3125 0)"/>
     <use xlink:href="#DejaVuSerif-Bold-44" transform="translate(758.9375 0)"/>
     <use xlink:href="#DejaVuSerif-Bold-59" transform="translate(823.734375 0)"/>
     <use xlink:href="#DejaVuSerif-Bold-48" transform="translate(881.84375 0)"/>
     <use xlink:href="#DejaVuSerif-Bold-56" transform="translate(945.46875 0)"/>
     <use xlink:href="#DejaVuSerif-Bold-3" transform="translate(1001.765625 0)"/>
     <use xlink:href="#DejaVuSerif-Bold-53" transform="translate(1036.578125 0)"/>
     <use xlink:href="#DejaVuSerif-Bold-48" transform="translate(1106.5 0)"/>
     <use xlink:href="#DejaVuSerif-Bold-55" transform="translate(1170.125 0)"/>
     <use xlink:href="#DejaVuSerif-Bold-3" transform="translate(1222.8125 0)"/>
     <use xlink:href="#DejaVuSerif-Bold-27" transform="translate(1257.625 0)"/>
     <use xlink:href="#DejaVuSerif-Bold-44" transform="translate(1344.34375 0)"/>
     <use xlink:href="#DejaVuSerif-Bold-57" transform="translate(1409.140625 0)"/>
     <use xlink:href="#DejaVuSerif-Bold-44" transform="translate(1455.328125 0)"/>
     <use xlink:href="#DejaVuSerif-Bold-56" transform="translate(1520.125 0)"/>
     <use xlink:href="#DejaVuSerif-Bold-48" transform="translate(1576.421875 0)"/>
     <use xlink:href="#DejaVuSerif-Bold-57" transform="translate(1640.046875 0)"/>
     <use xlink:href="#DejaVuSerif-Bold-3" transform="translate(1686.234375 0)"/>
     <use xlink:href="#DejaVuSerif-Bold-45" transform="translate(1721.046875 0)"/>
     <use xlink:href="#DejaVuSerif-Bold-5c" transform="translate(1790.96875 0)"/>
     <use xlink:href="#DejaVuSerif-Bold-3" transform="translate(1849.078125 0)"/>
     <use xlink:href="#DejaVuSerif-Bold-30" transform="translate(1883.890625 0)"/>
     <use xlink:href="#DejaVuSerif-Bold-48" transform="translate(1994.578125 0)"/>
     <use xlink:href="#DejaVuSerif-Bold-57" transform="translate(2058.203125 0)"/>
     <use xlink:href="#DejaVuSerif-Bold-4b" transform="translate(2104.390625 0)"/>
     <use xlink:href="#DejaVuSerif-Bold-52" transform="translate(2177.09375 0)"/>
     <use xlink:href="#DejaVuSerif-Bold-47" transform="translate(2243.796875 0)"/>
    </g>
   </g>
   <g id="legend_1">
    <g id="patch_7">
     <path d="M 58.861016 154.363828 
L 312.214141 154.363828 
Q 314.214141 154.363828 314.214141 152.363828 
L 314.214141 32.3575 
Q 314.214141 30.3575 312.214141 30.3575 
L 58.861016 30.3575 
Q 56.861016 30.3575 56.861016 32.3575 
L 56.861016 152.363828 
Q 56.861016 154.363828 58.861016 154.363828 
z
" style="fill: #ffffff; opacity: 0.8; stroke: #cccccc; stroke-width: 0.8; stroke-linejoin: miter"/>
    </g>
    <g id="text_15">
     <!-- Metric / Method -->
     <g style="fill: #262626" transform="translate(140.152266 42.715781) scale(0.11 -0.11)">
      <defs>
       <path id="DejaVuSerif-30" d="M 353 0 
L 353 331 
L 947 331 
L 947 4331 
L 319 4331 
L 319 4666 
L 1678 4666 
L 3316 1344 
L 4953 4666 
L 6228 4666 
L 6228 4331 
L 5606 4331 
L 5606 331 
L 6203 331 
L 6203 0 
L 4378 0 
L 4378 331 
L 4972 331 
L 4972 3938 
L 3372 684 
L 2931 684 
L 1331 3938 
L 1331 331 
L 1925 331 
L 1925 0 
L 353 0 
z
" transform="scale(0.015625)"/>
       <path id="DejaVuSerif-12" d="M 1656 4666 
L 2156 4666 
L 500 -594 
L 0 -594 
L 1656 4666 
z
" transform="scale(0.015625)"/>
      </defs>
      <use xlink:href="#DejaVuSerif-30"/>
      <use xlink:href="#DejaVuSerif-48" transform="translate(102.390625 0)"/>
      <use xlink:href="#DejaVuSerif-57" transform="translate(161.578125 0)"/>
      <use xlink:href="#DejaVuSerif-55" transform="translate(201.765625 0)"/>
      <use xlink:href="#DejaVuSerif-4c" transform="translate(249.5625 0)"/>
      <use xlink:href="#DejaVuSerif-46" transform="translate(281.546875 0)"/>
      <use xlink:href="#DejaVuSerif-3" transform="translate(337.546875 0)"/>
      <use xlink:href="#DejaVuSerif-12" transform="translate(369.328125 0)"/>
      <use xlink:href="#DejaVuSerif-3" transform="translate(403.015625 0)"/>
      <use xlink:href="#DejaVuSerif-30" transform="translate(434.796875 0)"/>
      <use xlink:href="#DejaVuSerif-48" transform="translate(537.1875 0)"/>
      <use xlink:href="#DejaVuSerif-57" transform="translate(596.375 0)"/>
      <use xlink:href="#DejaVuSerif-4b" transform="translate(636.5625 0)"/>
      <use xlink:href="#DejaVuSerif-52" transform="translate(700.96875 0)"/>
      <use xlink:href="#DejaVuSerif-47" transform="translate(761.171875 0)"/>
     </g>
    </g>
    <g id="line2d_26">
     <path d="M 60.861016 54.456797 
L 70.861016 54.456797 
L 80.861016 54.456797 
" style="fill: none; stroke: #2f4f4f; stroke-width: 2; stroke-linecap: round"/>
     <g>
      <use xlink:href="#mf6ee46ae69" x="70.861016" y="54.456797" style="fill: #2f4f4f; stroke: #2f4f4f"/>
     </g>
    </g>
    <g id="text_16">
     <!-- Base - Nodes -->
     <g style="fill: #262626" transform="translate(88.861016 57.956797) scale(0.1 -0.1)">
      <defs>
       <path id="DejaVuSerif-10" d="M 281 1959 
L 1881 1959 
L 1881 1472 
L 281 1472 
L 281 1959 
z
" transform="scale(0.015625)"/>
       <path id="DejaVuSerif-31" d="M 313 0 
L 313 331 
L 941 331 
L 941 4331 
L 313 4331 
L 313 4666 
L 1509 4666 
L 4306 984 
L 4306 4331 
L 3681 4331 
L 3681 4666 
L 5319 4666 
L 5319 4331 
L 4691 4331 
L 4691 -91 
L 4313 -91 
L 1325 3841 
L 1325 331 
L 1953 331 
L 1953 0 
L 313 0 
z
" transform="scale(0.015625)"/>
      </defs>
      <use xlink:href="#DejaVuSerif-25"/>
      <use xlink:href="#DejaVuSerif-44" transform="translate(73.484375 0)"/>
      <use xlink:href="#DejaVuSerif-56" transform="translate(133.109375 0)"/>
      <use xlink:href="#DejaVuSerif-48" transform="translate(184.421875 0)"/>
      <use xlink:href="#DejaVuSerif-3" transform="translate(243.609375 0)"/>
      <use xlink:href="#DejaVuSerif-10" transform="translate(275.390625 0)"/>
      <use xlink:href="#DejaVuSerif-3" transform="translate(309.1875 0)"/>
      <use xlink:href="#DejaVuSerif-31" transform="translate(340.96875 0)"/>
      <use xlink:href="#DejaVuSerif-52" transform="translate(428.46875 0)"/>
      <use xlink:href="#DejaVuSerif-47" transform="translate(488.671875 0)"/>
      <use xlink:href="#DejaVuSerif-48" transform="translate(552.6875 0)"/>
      <use xlink:href="#DejaVuSerif-56" transform="translate(611.875 0)"/>
     </g>
    </g>
    <g id="line2d_27">
     <path d="M 60.861016 69.457578 
L 70.861016 69.457578 
L 80.861016 69.457578 
" style="fill: none; stroke-dasharray: 7.4,3.2; stroke-dashoffset: 0; stroke: #2f4f4f; stroke-opacity: 0.8; stroke-width: 2"/>
     <g>
      <use xlink:href="#m3396e940a4" x="70.861016" y="69.457578" style="fill: #2f4f4f; fill-opacity: 0.8; stroke: #2f4f4f; stroke-opacity: 0.8; stroke-linejoin: miter"/>
     </g>
    </g>
    <g id="text_17">
     <!-- Base - Leaves -->
     <g style="fill: #262626" transform="translate(88.861016 72.957578) scale(0.1 -0.1)">
      <defs>
       <path id="DejaVuSerif-2f" d="M 353 0 
L 353 331 
L 947 331 
L 947 4331 
L 353 4331 
L 353 4666 
L 2175 4666 
L 2175 4331 
L 1581 4331 
L 1581 384 
L 3713 384 
L 3713 1166 
L 4097 1166 
L 4097 0 
L 353 0 
z
" transform="scale(0.015625)"/>
       <path id="DejaVuSerif-59" d="M 1581 0 
L 359 2988 
L -19 2988 
L -19 3322 
L 1509 3322 
L 1509 2988 
L 978 2988 
L 1913 703 
L 2847 2988 
L 2350 2988 
L 2350 3322 
L 3597 3322 
L 3597 2988 
L 3225 2988 
L 2003 0 
L 1581 0 
z
" transform="scale(0.015625)"/>
      </defs>
      <use xlink:href="#DejaVuSerif-25"/>
      <use xlink:href="#DejaVuSerif-44" transform="translate(73.484375 0)"/>
      <use xlink:href="#DejaVuSerif-56" transform="translate(133.109375 0)"/>
      <use xlink:href="#DejaVuSerif-48" transform="translate(184.421875 0)"/>
      <use xlink:href="#DejaVuSerif-3" transform="translate(243.609375 0)"/>
      <use xlink:href="#DejaVuSerif-10" transform="translate(275.390625 0)"/>
      <use xlink:href="#DejaVuSerif-3" transform="translate(309.1875 0)"/>
      <use xlink:href="#DejaVuSerif-2f" transform="translate(340.96875 0)"/>
      <use xlink:href="#DejaVuSerif-48" transform="translate(407.375 0)"/>
      <use xlink:href="#DejaVuSerif-44" transform="translate(466.5625 0)"/>
      <use xlink:href="#DejaVuSerif-59" transform="translate(526.1875 0)"/>
      <use xlink:href="#DejaVuSerif-48" transform="translate(582.6875 0)"/>
      <use xlink:href="#DejaVuSerif-56" transform="translate(641.875 0)"/>
     </g>
    </g>
    <g id="line2d_28">
     <path d="M 60.861016 84.458359 
L 70.861016 84.458359 
L 80.861016 84.458359 
" style="fill: none; stroke: #007377; stroke-width: 2; stroke-linecap: round"/>
     <g>
      <use xlink:href="#md617a3355e" x="70.861016" y="84.458359" style="fill: #007377; stroke: #007377"/>
     </g>
    </g>
    <g id="text_18">
     <!-- CCP - Nodes -->
     <g style="fill: #262626" transform="translate(88.861016 87.958359) scale(0.1 -0.1)">
      <defs>
       <path id="DejaVuSerif-33" d="M 1581 2375 
L 2406 2375 
Q 2872 2375 3115 2626 
Q 3359 2878 3359 3353 
Q 3359 3831 3115 4081 
Q 2872 4331 2406 4331 
L 1581 4331 
L 1581 2375 
z
M 353 0 
L 353 331 
L 947 331 
L 947 4331 
L 353 4331 
L 353 4666 
L 2559 4666 
Q 3259 4666 3668 4311 
Q 4078 3956 4078 3353 
Q 4078 2753 3668 2397 
Q 3259 2041 2559 2041 
L 1581 2041 
L 1581 331 
L 2303 331 
L 2303 0 
L 353 0 
z
" transform="scale(0.015625)"/>
      </defs>
      <use xlink:href="#DejaVuSerif-26"/>
      <use xlink:href="#DejaVuSerif-26" transform="translate(76.515625 0)"/>
      <use xlink:href="#DejaVuSerif-33" transform="translate(153.03125 0)"/>
      <use xlink:href="#DejaVuSerif-3" transform="translate(220.3125 0)"/>
      <use xlink:href="#DejaVuSerif-10" transform="translate(252.09375 0)"/>
      <use xlink:href="#DejaVuSerif-3" transform="translate(285.890625 0)"/>
      <use xlink:href="#DejaVuSerif-31" transform="translate(317.671875 0)"/>
      <use xlink:href="#DejaVuSerif-52" transform="translate(405.171875 0)"/>
      <use xlink:href="#DejaVuSerif-47" transform="translate(465.375 0)"/>
      <use xlink:href="#DejaVuSerif-48" transform="translate(529.390625 0)"/>
      <use xlink:href="#DejaVuSerif-56" transform="translate(588.578125 0)"/>
     </g>
    </g>
    <g id="line2d_29">
     <path d="M 60.861016 99.459141 
L 70.861016 99.459141 
L 80.861016 99.459141 
" style="fill: none; stroke-dasharray: 7.4,3.2; stroke-dashoffset: 0; stroke: #007377; stroke-opacity: 0.8; stroke-width: 2"/>
     <g>
      <use xlink:href="#m37a2dff2d1" x="70.861016" y="99.459141" style="fill: #007377; fill-opacity: 0.8; stroke: #007377; stroke-opacity: 0.8; stroke-linejoin: miter"/>
     </g>
    </g>
    <g id="text_19">
     <!-- CCP - Leaves -->
     <g style="fill: #262626" transform="translate(88.861016 102.959141) scale(0.1 -0.1)">
      <use xlink:href="#DejaVuSerif-26"/>
      <use xlink:href="#DejaVuSerif-26" transform="translate(76.515625 0)"/>
      <use xlink:href="#DejaVuSerif-33" transform="translate(153.03125 0)"/>
      <use xlink:href="#DejaVuSerif-3" transform="translate(220.3125 0)"/>
      <use xlink:href="#DejaVuSerif-10" transform="translate(252.09375 0)"/>
      <use xlink:href="#DejaVuSerif-3" transform="translate(285.890625 0)"/>
      <use xlink:href="#DejaVuSerif-2f" transform="translate(317.671875 0)"/>
      <use xlink:href="#DejaVuSerif-48" transform="translate(384.078125 0)"/>
      <use xlink:href="#DejaVuSerif-44" transform="translate(443.265625 0)"/>
      <use xlink:href="#DejaVuSerif-59" transform="translate(502.890625 0)"/>
      <use xlink:href="#DejaVuSerif-48" transform="translate(559.390625 0)"/>
      <use xlink:href="#DejaVuSerif-56" transform="translate(618.578125 0)"/>
     </g>
    </g>
    <g id="line2d_30">
     <path d="M 60.861016 114.459922 
L 70.861016 114.459922 
L 80.861016 114.459922 
" style="fill: none; stroke: #8b0000; stroke-width: 2; stroke-linecap: round"/>
     <g>
      <use xlink:href="#m50032a07f6" x="70.861016" y="114.459922" style="fill: #8b0000; stroke: #8b0000"/>
     </g>
    </g>
    <g id="text_20">
     <!-- SR-CCP - Nodes -->
     <g style="fill: #262626" transform="translate(88.861016 117.959922) scale(0.1 -0.1)">
      <use xlink:href="#DejaVuSerif-36"/>
      <use xlink:href="#DejaVuSerif-35" transform="translate(68.5 0)"/>
      <use xlink:href="#DejaVuSerif-10" transform="translate(143.796875 0)"/>
      <use xlink:href="#DejaVuSerif-26" transform="translate(177.59375 0)"/>
      <use xlink:href="#DejaVuSerif-26" transform="translate(254.109375 0)"/>
      <use xlink:href="#DejaVuSerif-33" transform="translate(330.625 0)"/>
      <use xlink:href="#DejaVuSerif-3" transform="translate(397.90625 0)"/>
      <use xlink:href="#DejaVuSerif-10" transform="translate(429.6875 0)"/>
      <use xlink:href="#DejaVuSerif-3" transform="translate(463.484375 0)"/>
      <use xlink:href="#DejaVuSerif-31" transform="translate(495.265625 0)"/>
      <use xlink:href="#DejaVuSerif-52" transform="translate(582.765625 0)"/>
      <use xlink:href="#DejaVuSerif-47" transform="translate(642.96875 0)"/>
      <use xlink:href="#DejaVuSerif-48" transform="translate(706.984375 0)"/>
      <use xlink:href="#DejaVuSerif-56" transform="translate(766.171875 0)"/>
     </g>
    </g>
    <g id="line2d_31">
     <path d="M 60.861016 129.460703 
L 70.861016 129.460703 
L 80.861016 129.460703 
" style="fill: none; stroke-dasharray: 7.4,3.2; stroke-dashoffset: 0; stroke: #8b0000; stroke-opacity: 0.8; stroke-width: 2"/>
     <g>
      <use xlink:href="#m7579dcb025" x="70.861016" y="129.460703" style="fill: #8b0000; fill-opacity: 0.8; stroke: #8b0000; stroke-opacity: 0.8; stroke-linejoin: miter"/>
     </g>
    </g>
    <g id="text_21">
     <!-- SR-CCP - Leaves -->
     <g style="fill: #262626" transform="translate(88.861016 132.960703) scale(0.1 -0.1)">
      <use xlink:href="#DejaVuSerif-36"/>
      <use xlink:href="#DejaVuSerif-35" transform="translate(68.5 0)"/>
      <use xlink:href="#DejaVuSerif-10" transform="translate(143.796875 0)"/>
      <use xlink:href="#DejaVuSerif-26" transform="translate(177.59375 0)"/>
      <use xlink:href="#DejaVuSerif-26" transform="translate(254.109375 0)"/>
      <use xlink:href="#DejaVuSerif-33" transform="translate(330.625 0)"/>
      <use xlink:href="#DejaVuSerif-3" transform="translate(397.90625 0)"/>
      <use xlink:href="#DejaVuSerif-10" transform="translate(429.6875 0)"/>
      <use xlink:href="#DejaVuSerif-3" transform="translate(463.484375 0)"/>
      <use xlink:href="#DejaVuSerif-2f" transform="translate(495.265625 0)"/>
      <use xlink:href="#DejaVuSerif-48" transform="translate(561.671875 0)"/>
      <use xlink:href="#DejaVuSerif-44" transform="translate(620.859375 0)"/>
      <use xlink:href="#DejaVuSerif-59" transform="translate(680.484375 0)"/>
      <use xlink:href="#DejaVuSerif-48" transform="translate(736.984375 0)"/>
      <use xlink:href="#DejaVuSerif-56" transform="translate(796.171875 0)"/>
     </g>
    </g>
    <g id="line2d_32">
     <path d="M 60.861016 144.461484 
L 70.861016 144.461484 
L 80.861016 144.461484 
" style="fill: none; stroke: #b8860b; stroke-width: 2; stroke-linecap: round"/>
     <g>
      <use xlink:href="#m09566debb2" x="70.861016" y="144.461484" style="fill: #b8860b; stroke: #b8860b"/>
     </g>
    </g>
    <g id="text_22">
     <!-- REP - Nodes -->
     <g style="fill: #262626" transform="translate(88.861016 147.961484) scale(0.1 -0.1)">
      <defs>
       <path id="DejaVuSerif-28" d="M 353 0 
L 353 331 
L 947 331 
L 947 4331 
L 353 4331 
L 353 4666 
L 4109 4666 
L 4109 3628 
L 3725 3628 
L 3725 4281 
L 1581 4281 
L 1581 2719 
L 3109 2719 
L 3109 3303 
L 3494 3303 
L 3494 1753 
L 3109 1753 
L 3109 2338 
L 1581 2338 
L 1581 384 
L 3775 384 
L 3775 1038 
L 4159 1038 
L 4159 0 
L 353 0 
z
" transform="scale(0.015625)"/>
      </defs>
      <use xlink:href="#DejaVuSerif-35"/>
      <use xlink:href="#DejaVuSerif-28" transform="translate(75.296875 0)"/>
      <use xlink:href="#DejaVuSerif-33" transform="translate(148.296875 0)"/>
      <use xlink:href="#DejaVuSerif-3" transform="translate(215.578125 0)"/>
      <use xlink:href="#DejaVuSerif-10" transform="translate(247.359375 0)"/>
      <use xlink:href="#DejaVuSerif-3" transform="translate(281.15625 0)"/>
      <use xlink:href="#DejaVuSerif-31" transform="translate(312.9375 0)"/>
      <use xlink:href="#DejaVuSerif-52" transform="translate(400.4375 0)"/>
      <use xlink:href="#DejaVuSerif-47" transform="translate(460.640625 0)"/>
      <use xlink:href="#DejaVuSerif-48" transform="translate(524.65625 0)"/>
      <use xlink:href="#DejaVuSerif-56" transform="translate(583.84375 0)"/>
     </g>
    </g>
    <g id="line2d_33">
     <path d="M 193.609453 54.456797 
L 203.609453 54.456797 
L 213.609453 54.456797 
" style="fill: none; stroke-dasharray: 7.4,3.2; stroke-dashoffset: 0; stroke: #b8860b; stroke-opacity: 0.8; stroke-width: 2"/>
     <g>
      <use xlink:href="#m81fb885f0b" x="203.609453" y="54.456797" style="fill: #b8860b; fill-opacity: 0.8; stroke: #b8860b; stroke-opacity: 0.8; stroke-linejoin: miter"/>
     </g>
    </g>
    <g id="text_23">
     <!-- REP - Leaves -->
     <g style="fill: #262626" transform="translate(221.609453 57.956797) scale(0.1 -0.1)">
      <use xlink:href="#DejaVuSerif-35"/>
      <use xlink:href="#DejaVuSerif-28" transform="translate(75.296875 0)"/>
      <use xlink:href="#DejaVuSerif-33" transform="translate(148.296875 0)"/>
      <use xlink:href="#DejaVuSerif-3" transform="translate(215.578125 0)"/>
      <use xlink:href="#DejaVuSerif-10" transform="translate(247.359375 0)"/>
      <use xlink:href="#DejaVuSerif-3" transform="translate(281.15625 0)"/>
      <use xlink:href="#DejaVuSerif-2f" transform="translate(312.9375 0)"/>
      <use xlink:href="#DejaVuSerif-48" transform="translate(379.34375 0)"/>
      <use xlink:href="#DejaVuSerif-44" transform="translate(438.53125 0)"/>
      <use xlink:href="#DejaVuSerif-59" transform="translate(498.15625 0)"/>
      <use xlink:href="#DejaVuSerif-48" transform="translate(554.65625 0)"/>
      <use xlink:href="#DejaVuSerif-56" transform="translate(613.84375 0)"/>
     </g>
    </g>
    <g id="line2d_34">
     <path d="M 193.609453 69.457578 
L 203.609453 69.457578 
L 213.609453 69.457578 
" style="fill: none; stroke: #4b6c84; stroke-width: 2; stroke-linecap: round"/>
     <g>
      <use xlink:href="#m2997d0353a" x="203.609453" y="69.457578" style="fill: #4b6c84; stroke: #4b6c84"/>
     </g>
    </g>
    <g id="text_24">
     <!-- MEP - Nodes -->
     <g style="fill: #262626" transform="translate(221.609453 72.957578) scale(0.1 -0.1)">
      <use xlink:href="#DejaVuSerif-30"/>
      <use xlink:href="#DejaVuSerif-28" transform="translate(102.390625 0)"/>
      <use xlink:href="#DejaVuSerif-33" transform="translate(175.390625 0)"/>
      <use xlink:href="#DejaVuSerif-3" transform="translate(242.671875 0)"/>
      <use xlink:href="#DejaVuSerif-10" transform="translate(274.453125 0)"/>
      <use xlink:href="#DejaVuSerif-3" transform="translate(308.25 0)"/>
      <use xlink:href="#DejaVuSerif-31" transform="translate(340.03125 0)"/>
      <use xlink:href="#DejaVuSerif-52" transform="translate(427.53125 0)"/>
      <use xlink:href="#DejaVuSerif-47" transform="translate(487.734375 0)"/>
      <use xlink:href="#DejaVuSerif-48" transform="translate(551.75 0)"/>
      <use xlink:href="#DejaVuSerif-56" transform="translate(610.9375 0)"/>
     </g>
    </g>
    <g id="line2d_35">
     <path d="M 193.609453 84.458359 
L 203.609453 84.458359 
L 213.609453 84.458359 
" style="fill: none; stroke-dasharray: 7.4,3.2; stroke-dashoffset: 0; stroke: #4b6c84; stroke-opacity: 0.8; stroke-width: 2"/>
     <g>
      <use xlink:href="#mb837454b33" x="203.609453" y="84.458359" style="fill: #4b6c84; fill-opacity: 0.8; stroke: #4b6c84; stroke-opacity: 0.8; stroke-linejoin: miter"/>
     </g>
    </g>
    <g id="text_25">
     <!-- MEP - Leaves -->
     <g style="fill: #262626" transform="translate(221.609453 87.958359) scale(0.1 -0.1)">
      <use xlink:href="#DejaVuSerif-30"/>
      <use xlink:href="#DejaVuSerif-28" transform="translate(102.390625 0)"/>
      <use xlink:href="#DejaVuSerif-33" transform="translate(175.390625 0)"/>
      <use xlink:href="#DejaVuSerif-3" transform="translate(242.671875 0)"/>
      <use xlink:href="#DejaVuSerif-10" transform="translate(274.453125 0)"/>
      <use xlink:href="#DejaVuSerif-3" transform="translate(308.25 0)"/>
      <use xlink:href="#DejaVuSerif-2f" transform="translate(340.03125 0)"/>
      <use xlink:href="#DejaVuSerif-48" transform="translate(406.4375 0)"/>
      <use xlink:href="#DejaVuSerif-44" transform="translate(465.625 0)"/>
      <use xlink:href="#DejaVuSerif-59" transform="translate(525.25 0)"/>
      <use xlink:href="#DejaVuSerif-48" transform="translate(581.75 0)"/>
      <use xlink:href="#DejaVuSerif-56" transform="translate(640.9375 0)"/>
     </g>
    </g>
    <g id="line2d_36">
     <path d="M 193.609453 99.459141 
L 203.609453 99.459141 
L 213.609453 99.459141 
" style="fill: none; stroke: #a0522d; stroke-width: 2; stroke-linecap: round"/>
     <g>
      <use xlink:href="#mbfa9ef389d" x="203.609453" y="99.459141" style="fill: #a0522d; stroke: #a0522d"/>
     </g>
    </g>
    <g id="text_26">
     <!-- DBP - Nodes -->
     <g style="fill: #262626" transform="translate(221.609453 102.959141) scale(0.1 -0.1)">
      <use xlink:href="#DejaVuSerif-27"/>
      <use xlink:href="#DejaVuSerif-25" transform="translate(80.171875 0)"/>
      <use xlink:href="#DejaVuSerif-33" transform="translate(153.65625 0)"/>
      <use xlink:href="#DejaVuSerif-3" transform="translate(220.9375 0)"/>
      <use xlink:href="#DejaVuSerif-10" transform="translate(252.71875 0)"/>
      <use xlink:href="#DejaVuSerif-3" transform="translate(286.515625 0)"/>
      <use xlink:href="#DejaVuSerif-31" transform="translate(318.296875 0)"/>
      <use xlink:href="#DejaVuSerif-52" transform="translate(405.796875 0)"/>
      <use xlink:href="#DejaVuSerif-47" transform="translate(466 0)"/>
      <use xlink:href="#DejaVuSerif-48" transform="translate(530.015625 0)"/>
      <use xlink:href="#DejaVuSerif-56" transform="translate(589.203125 0)"/>
     </g>
    </g>
    <g id="line2d_37">
     <path d="M 193.609453 114.459922 
L 203.609453 114.459922 
L 213.609453 114.459922 
" style="fill: none; stroke-dasharray: 7.4,3.2; stroke-dashoffset: 0; stroke: #a0522d; stroke-opacity: 0.8; stroke-width: 2"/>
     <g>
      <use xlink:href="#m7024041c21" x="203.609453" y="114.459922" style="fill: #a0522d; fill-opacity: 0.8; stroke: #a0522d; stroke-opacity: 0.8; stroke-linejoin: miter"/>
     </g>
    </g>
    <g id="text_27">
     <!-- DBP - Leaves -->
     <g style="fill: #262626" transform="translate(221.609453 117.959922) scale(0.1 -0.1)">
      <use xlink:href="#DejaVuSerif-27"/>
      <use xlink:href="#DejaVuSerif-25" transform="translate(80.171875 0)"/>
      <use xlink:href="#DejaVuSerif-33" transform="translate(153.65625 0)"/>
      <use xlink:href="#DejaVuSerif-3" transform="translate(220.9375 0)"/>
      <use xlink:href="#DejaVuSerif-10" transform="translate(252.71875 0)"/>
      <use xlink:href="#DejaVuSerif-3" transform="translate(286.515625 0)"/>
      <use xlink:href="#DejaVuSerif-2f" transform="translate(318.296875 0)"/>
      <use xlink:href="#DejaVuSerif-48" transform="translate(384.703125 0)"/>
      <use xlink:href="#DejaVuSerif-44" transform="translate(443.890625 0)"/>
      <use xlink:href="#DejaVuSerif-59" transform="translate(503.515625 0)"/>
      <use xlink:href="#DejaVuSerif-48" transform="translate(560.015625 0)"/>
      <use xlink:href="#DejaVuSerif-56" transform="translate(619.203125 0)"/>
     </g>
    </g>
    <g id="line2d_38">
     <path d="M 193.609453 129.460703 
L 203.609453 129.460703 
L 213.609453 129.460703 
" style="fill: none; stroke: #556b2f; stroke-width: 2; stroke-linecap: round"/>
     <g>
      <use xlink:href="#mb1c9006d1e" x="203.609453" y="129.460703" style="fill: #556b2f; stroke: #556b2f"/>
     </g>
    </g>
    <g id="text_28">
     <!-- XGBoost - Nodes -->
     <g style="fill: #262626" transform="translate(221.609453 132.960703) scale(0.1 -0.1)">
      <defs>
       <path id="DejaVuSerif-3b" d="M 2119 1997 
L 978 331 
L 1581 331 
L 1581 0 
L 38 0 
L 38 331 
L 575 331 
L 1919 2291 
L 556 4331 
L 56 4331 
L 56 4666 
L 1906 4666 
L 1906 4331 
L 1356 4331 
L 2356 2828 
L 3384 4331 
L 2784 4331 
L 2784 4666 
L 4313 4666 
L 4313 4331 
L 3788 4331 
L 2553 2534 
L 4025 331 
L 4525 331 
L 4525 0 
L 2675 0 
L 2675 331 
L 3231 331 
L 2119 1997 
z
" transform="scale(0.015625)"/>
       <path id="DejaVuSerif-2a" d="M 4097 3272 
Q 3988 3856 3641 4136 
Q 3294 4416 2675 4416 
Q 1869 4416 1472 3897 
Q 1075 3378 1075 2328 
Q 1075 1300 1484 772 
Q 1894 244 2688 244 
Q 3041 244 3362 331 
Q 3684 419 3975 594 
L 3975 1797 
L 3097 1797 
L 3097 2131 
L 4609 2131 
L 4609 391 
Q 4194 150 3714 29 
Q 3234 -91 2688 -91 
Q 1631 -91 995 570 
Q 359 1231 359 2328 
Q 359 3434 996 4092 
Q 1634 4750 2713 4750 
Q 3113 4750 3539 4658 
Q 3966 4566 4447 4378 
L 4447 3272 
L 4097 3272 
z
" transform="scale(0.015625)"/>
      </defs>
      <use xlink:href="#DejaVuSerif-3b"/>
      <use xlink:href="#DejaVuSerif-2a" transform="translate(71.1875 0)"/>
      <use xlink:href="#DejaVuSerif-25" transform="translate(151.078125 0)"/>
      <use xlink:href="#DejaVuSerif-52" transform="translate(224.5625 0)"/>
      <use xlink:href="#DejaVuSerif-52" transform="translate(284.765625 0)"/>
      <use xlink:href="#DejaVuSerif-56" transform="translate(344.96875 0)"/>
      <use xlink:href="#DejaVuSerif-57" transform="translate(396.28125 0)"/>
      <use xlink:href="#DejaVuSerif-3" transform="translate(436.46875 0)"/>
      <use xlink:href="#DejaVuSerif-10" transform="translate(468.25 0)"/>
      <use xlink:href="#DejaVuSerif-3" transform="translate(502.046875 0)"/>
      <use xlink:href="#DejaVuSerif-31" transform="translate(533.828125 0)"/>
      <use xlink:href="#DejaVuSerif-52" transform="translate(621.328125 0)"/>
      <use xlink:href="#DejaVuSerif-47" transform="translate(681.53125 0)"/>
      <use xlink:href="#DejaVuSerif-48" transform="translate(745.546875 0)"/>
      <use xlink:href="#DejaVuSerif-56" transform="translate(804.734375 0)"/>
     </g>
    </g>
    <g id="line2d_39">
     <path d="M 193.609453 144.461484 
L 203.609453 144.461484 
L 213.609453 144.461484 
" style="fill: none; stroke-dasharray: 7.4,3.2; stroke-dashoffset: 0; stroke: #556b2f; stroke-opacity: 0.8; stroke-width: 2"/>
     <g>
      <use xlink:href="#md6627e1e69" x="203.609453" y="144.461484" style="fill: #556b2f; fill-opacity: 0.8; stroke: #556b2f; stroke-opacity: 0.8; stroke-linejoin: miter"/>
     </g>
    </g>
    <g id="text_29">
     <!-- XGBoost - Leaves -->
     <g style="fill: #262626" transform="translate(221.609453 147.961484) scale(0.1 -0.1)">
      <use xlink:href="#DejaVuSerif-3b"/>
      <use xlink:href="#DejaVuSerif-2a" transform="translate(71.1875 0)"/>
      <use xlink:href="#DejaVuSerif-25" transform="translate(151.078125 0)"/>
      <use xlink:href="#DejaVuSerif-52" transform="translate(224.5625 0)"/>
      <use xlink:href="#DejaVuSerif-52" transform="translate(284.765625 0)"/>
      <use xlink:href="#DejaVuSerif-56" transform="translate(344.96875 0)"/>
      <use xlink:href="#DejaVuSerif-57" transform="translate(396.28125 0)"/>
      <use xlink:href="#DejaVuSerif-3" transform="translate(436.46875 0)"/>
      <use xlink:href="#DejaVuSerif-10" transform="translate(468.25 0)"/>
      <use xlink:href="#DejaVuSerif-3" transform="translate(502.046875 0)"/>
      <use xlink:href="#DejaVuSerif-2f" transform="translate(533.828125 0)"/>
      <use xlink:href="#DejaVuSerif-48" transform="translate(600.234375 0)"/>
      <use xlink:href="#DejaVuSerif-44" transform="translate(659.421875 0)"/>
      <use xlink:href="#DejaVuSerif-59" transform="translate(719.046875 0)"/>
      <use xlink:href="#DejaVuSerif-48" transform="translate(775.546875 0)"/>
      <use xlink:href="#DejaVuSerif-56" transform="translate(834.734375 0)"/>
     </g>
    </g>
   </g>
  </g>
 </g>
 <defs>
  <clipPath id="p4def36a24c">
   <rect x="51.861016" y="25.3575" width="934.2296" height="295.109344"/>
  </clipPath>
 </defs>
</svg>
