<?xml version="1.0" encoding="utf-8" standalone="no"?>
<!DOCTYPE svg PUBLIC "-//W3C//DTD SVG 1.1//EN"
  "http://www.w3.org/Graphics/SVG/1.1/DTD/svg11.dtd">
<svg xmlns:xlink="http://www.w3.org/1999/xlink" width="993.238584pt" height="416.700091pt" viewBox="0 0 993.238584 416.700091" xmlns="http://www.w3.org/2000/svg" version="1.1">
 <metadata>
  <rdf:RDF xmlns:dc="http://purl.org/dc/elements/1.1/" xmlns:cc="http://creativecommons.org/ns#" xmlns:rdf="http://www.w3.org/1999/02/22-rdf-syntax-ns#">
   <cc:Work>
    <dc:type rdf:resource="http://purl.org/dc/dcmitype/StillImage"/>
    <dc:date>2026-07-07T18:03:43.570305</dc:date>
    <dc:format>image/svg+xml</dc:format>
    <dc:creator>
     <cc:Agent>
      <dc:title>Matplotlib v3.11.0, https://matplotlib.org/</dc:title>
     </cc:Agent>
    </dc:creator>
   </cc:Work>
  </rdf:RDF>
 </metadata>
 <defs>
  <style type="text/css">*{stroke-linejoin: round; stroke-linecap: butt}</style>
 </defs>
 <g id="figure_1">
  <g id="patch_1">
   <path d="M 0 416.700091 
L 993.238584 416.700091 
L 993.238584 0 
L 0 0 
z
" style="fill: #ffffff"/>
  </g>
  <g id="axes_1">
   <g id="patch_2">
    <path d="M 70.768984 313.848325 
L 986.038584 313.848325 
L 986.038584 25.3575 
L 70.768984 25.3575 
z
" style="fill: #ffffff"/>
   </g>
   <g id="matplotlib.axis_1">
    <g id="xtick_1">
     <g id="line2d_1">
      <path d="M 112.372148 313.848325 
L 112.372148 25.3575 
" clip-path="url(#pc118a27ed6)" style="fill: none; stroke: #cccccc; stroke-width: 0.8; stroke-linecap: round"/>
     </g>
     <g id="text_1">
      <!-- BanknoteAuth -->
      <g style="fill: #262626" transform="translate(47.930579 390.631506) rotate(-45) scale(0.11 -0.11)">
       <defs>
        <path id="DejaVuSans-Bold-25" d="M 2456 2859 
Q 2741 2859 2887 2984 
Q 3034 3109 3034 3353 
Q 3034 3594 2887 3720 
Q 2741 3847 2456 3847 
L 1791 3847 
L 1791 2859 
L 2456 2859 
z
M 2497 819 
Q 2859 819 3042 972 
Q 3225 1125 3225 1434 
Q 3225 1738 3044 1889 
Q 2863 2041 2497 2041 
L 1791 2041 
L 1791 819 
L 2497 819 
z
M 3616 2497 
Q 4003 2384 4215 2081 
Q 4428 1778 4428 1338 
Q 4428 663 3972 331 
Q 3516 0 2584 0 
L 588 0 
L 588 4666 
L 2394 4666 
Q 3366 4666 3802 4372 
Q 4238 4078 4238 3431 
Q 4238 3091 4078 2852 
Q 3919 2613 3616 2497 
z
" transform="scale(0.015625)"/>
        <path id="DejaVuSans-Bold-44" d="M 2106 1575 
Q 1756 1575 1579 1456 
Q 1403 1338 1403 1106 
Q 1403 894 1545 773 
Q 1688 653 1941 653 
Q 2256 653 2472 879 
Q 2688 1106 2688 1447 
L 2688 1575 
L 2106 1575 
z
M 3816 1997 
L 3816 0 
L 2688 0 
L 2688 519 
Q 2463 200 2181 54 
Q 1900 -91 1497 -91 
Q 953 -91 614 226 
Q 275 544 275 1050 
Q 275 1666 698 1953 
Q 1122 2241 2028 2241 
L 2688 2241 
L 2688 2328 
Q 2688 2594 2478 2717 
Q 2269 2841 1825 2841 
Q 1466 2841 1156 2769 
Q 847 2697 581 2553 
L 581 3406 
Q 941 3494 1303 3539 
Q 1666 3584 2028 3584 
Q 2975 3584 3395 3211 
Q 3816 2838 3816 1997 
z
" transform="scale(0.015625)"/>
        <path id="DejaVuSans-Bold-51" d="M 4056 2131 
L 4056 0 
L 2931 0 
L 2931 347 
L 2931 1631 
Q 2931 2084 2911 2256 
Q 2891 2428 2841 2509 
Q 2775 2619 2662 2680 
Q 2550 2741 2406 2741 
Q 2056 2741 1856 2470 
Q 1656 2200 1656 1722 
L 1656 0 
L 538 0 
L 538 3500 
L 1656 3500 
L 1656 2988 
Q 1909 3294 2193 3439 
Q 2478 3584 2822 3584 
Q 3428 3584 3742 3212 
Q 4056 2841 4056 2131 
z
" transform="scale(0.015625)"/>
        <path id="DejaVuSans-Bold-4e" d="M 538 4863 
L 1656 4863 
L 1656 2216 
L 2944 3500 
L 4244 3500 
L 2534 1894 
L 4378 0 
L 3022 0 
L 1656 1459 
L 1656 0 
L 538 0 
L 538 4863 
z
" transform="scale(0.015625)"/>
        <path id="DejaVuSans-Bold-52" d="M 2203 2784 
Q 1831 2784 1636 2517 
Q 1441 2250 1441 1747 
Q 1441 1244 1636 976 
Q 1831 709 2203 709 
Q 2569 709 2762 976 
Q 2956 1244 2956 1747 
Q 2956 2250 2762 2517 
Q 2569 2784 2203 2784 
z
M 2203 3584 
Q 3106 3584 3614 3096 
Q 4122 2609 4122 1747 
Q 4122 884 3614 396 
Q 3106 -91 2203 -91 
Q 1297 -91 786 396 
Q 275 884 275 1747 
Q 275 2609 786 3096 
Q 1297 3584 2203 3584 
z
" transform="scale(0.015625)"/>
        <path id="DejaVuSans-Bold-57" d="M 1759 4494 
L 1759 3500 
L 2913 3500 
L 2913 2700 
L 1759 2700 
L 1759 1216 
Q 1759 972 1856 886 
Q 1953 800 2241 800 
L 2816 800 
L 2816 0 
L 1856 0 
Q 1194 0 917 276 
Q 641 553 641 1216 
L 641 2700 
L 84 2700 
L 84 3500 
L 641 3500 
L 641 4494 
L 1759 4494 
z
" transform="scale(0.015625)"/>
        <path id="DejaVuSans-Bold-48" d="M 4031 1759 
L 4031 1441 
L 1416 1441 
Q 1456 1047 1700 850 
Q 1944 653 2381 653 
Q 2734 653 3104 758 
Q 3475 863 3866 1075 
L 3866 213 
Q 3469 63 3072 -14 
Q 2675 -91 2278 -91 
Q 1328 -91 801 392 
Q 275 875 275 1747 
Q 275 2603 792 3093 
Q 1309 3584 2216 3584 
Q 3041 3584 3536 3087 
Q 4031 2591 4031 1759 
z
M 2881 2131 
Q 2881 2450 2695 2645 
Q 2509 2841 2209 2841 
Q 1884 2841 1681 2658 
Q 1478 2475 1428 2131 
L 2881 2131 
z
" transform="scale(0.015625)"/>
        <path id="DejaVuSans-Bold-24" d="M 3419 850 
L 1538 850 
L 1241 0 
L 31 0 
L 1759 4666 
L 3194 4666 
L 4922 0 
L 3713 0 
L 3419 850 
z
M 1838 1716 
L 3116 1716 
L 2478 3572 
L 1838 1716 
z
" transform="scale(0.015625)"/>
        <path id="DejaVuSans-Bold-58" d="M 500 1363 
L 500 3500 
L 1625 3500 
L 1625 3150 
Q 1625 2866 1622 2436 
Q 1619 2006 1619 1863 
Q 1619 1441 1641 1255 
Q 1663 1069 1716 984 
Q 1784 875 1895 815 
Q 2006 756 2150 756 
Q 2500 756 2700 1025 
Q 2900 1294 2900 1772 
L 2900 3500 
L 4019 3500 
L 4019 0 
L 2900 0 
L 2900 506 
Q 2647 200 2364 54 
Q 2081 -91 1741 -91 
Q 1134 -91 817 281 
Q 500 653 500 1363 
z
" transform="scale(0.015625)"/>
        <path id="DejaVuSans-Bold-4b" d="M 4056 2131 
L 4056 0 
L 2931 0 
L 2931 347 
L 2931 1625 
Q 2931 2084 2911 2256 
Q 2891 2428 2841 2509 
Q 2775 2619 2662 2680 
Q 2550 2741 2406 2741 
Q 2056 2741 1856 2470 
Q 1656 2200 1656 1722 
L 1656 0 
L 538 0 
L 538 4863 
L 1656 4863 
L 1656 2988 
Q 1909 3294 2193 3439 
Q 2478 3584 2822 3584 
Q 3428 3584 3742 3212 
Q 4056 2841 4056 2131 
z
" transform="scale(0.015625)"/>
       </defs>
       <use xlink:href="#DejaVuSans-Bold-25"/>
       <use xlink:href="#DejaVuSans-Bold-44" transform="translate(76.21875 0)"/>
       <use xlink:href="#DejaVuSans-Bold-51" transform="translate(143.703125 0)"/>
       <use xlink:href="#DejaVuSans-Bold-4e" transform="translate(214.890625 0)"/>
       <use xlink:href="#DejaVuSans-Bold-51" transform="translate(281.390625 0)"/>
       <use xlink:href="#DejaVuSans-Bold-52" transform="translate(352.578125 0)"/>
       <use xlink:href="#DejaVuSans-Bold-57" transform="translate(421.28125 0)"/>
       <use xlink:href="#DejaVuSans-Bold-48" transform="translate(469.078125 0)"/>
       <use xlink:href="#DejaVuSans-Bold-24" transform="translate(536.90625 0)"/>
       <use xlink:href="#DejaVuSans-Bold-58" transform="translate(614.296875 0)"/>
       <use xlink:href="#DejaVuSans-Bold-57" transform="translate(685.484375 0)"/>
       <use xlink:href="#DejaVuSans-Bold-4b" transform="translate(733.28125 0)"/>
      </g>
     </g>
    </g>
    <g id="xtick_2">
     <g id="line2d_2">
      <path d="M 251.04936 313.848325 
L 251.04936 25.3575 
" clip-path="url(#pc118a27ed6)" style="fill: none; stroke: #cccccc; stroke-width: 0.8; stroke-linecap: round"/>
     </g>
     <g id="text_2">
      <!-- BreastCancer -->
      <g style="fill: #262626" transform="translate(190.327946 386.910743) rotate(-45) scale(0.11 -0.11)">
       <defs>
        <path id="DejaVuSans-Bold-55" d="M 3138 2547 
Q 2991 2616 2845 2648 
Q 2700 2681 2553 2681 
Q 2122 2681 1889 2404 
Q 1656 2128 1656 1613 
L 1656 0 
L 538 0 
L 538 3500 
L 1656 3500 
L 1656 2925 
Q 1872 3269 2151 3426 
Q 2431 3584 2822 3584 
Q 2878 3584 2943 3579 
Q 3009 3575 3134 3559 
L 3138 2547 
z
" transform="scale(0.015625)"/>
        <path id="DejaVuSans-Bold-56" d="M 3272 3391 
L 3272 2541 
Q 2913 2691 2578 2766 
Q 2244 2841 1947 2841 
Q 1628 2841 1473 2761 
Q 1319 2681 1319 2516 
Q 1319 2381 1436 2309 
Q 1553 2238 1856 2203 
L 2053 2175 
Q 2913 2066 3209 1816 
Q 3506 1566 3506 1031 
Q 3506 472 3093 190 
Q 2681 -91 1863 -91 
Q 1516 -91 1145 -36 
Q 775 19 384 128 
L 384 978 
Q 719 816 1070 734 
Q 1422 653 1784 653 
Q 2113 653 2278 743 
Q 2444 834 2444 1013 
Q 2444 1163 2330 1236 
Q 2216 1309 1875 1350 
L 1678 1375 
Q 931 1469 631 1722 
Q 331 1975 331 2491 
Q 331 3047 712 3315 
Q 1094 3584 1881 3584 
Q 2191 3584 2531 3537 
Q 2872 3491 3272 3391 
z
" transform="scale(0.015625)"/>
        <path id="DejaVuSans-Bold-26" d="M 4288 256 
Q 3956 84 3597 -3 
Q 3238 -91 2847 -91 
Q 1681 -91 1000 561 
Q 319 1213 319 2328 
Q 319 3447 1000 4098 
Q 1681 4750 2847 4750 
Q 3238 4750 3597 4662 
Q 3956 4575 4288 4403 
L 4288 3438 
Q 3953 3666 3628 3772 
Q 3303 3878 2944 3878 
Q 2300 3878 1931 3465 
Q 1563 3053 1563 2328 
Q 1563 1606 1931 1193 
Q 2300 781 2944 781 
Q 3303 781 3628 887 
Q 3953 994 4288 1222 
L 4288 256 
z
" transform="scale(0.015625)"/>
        <path id="DejaVuSans-Bold-46" d="M 3366 3391 
L 3366 2478 
Q 3138 2634 2908 2709 
Q 2678 2784 2431 2784 
Q 1963 2784 1702 2511 
Q 1441 2238 1441 1747 
Q 1441 1256 1702 982 
Q 1963 709 2431 709 
Q 2694 709 2930 787 
Q 3166 866 3366 1019 
L 3366 103 
Q 3103 6 2833 -42 
Q 2563 -91 2291 -91 
Q 1344 -91 809 395 
Q 275 881 275 1747 
Q 275 2613 809 3098 
Q 1344 3584 2291 3584 
Q 2566 3584 2833 3536 
Q 3100 3488 3366 3391 
z
" transform="scale(0.015625)"/>
       </defs>
       <use xlink:href="#DejaVuSans-Bold-25"/>
       <use xlink:href="#DejaVuSans-Bold-55" transform="translate(76.21875 0)"/>
       <use xlink:href="#DejaVuSans-Bold-48" transform="translate(125.53125 0)"/>
       <use xlink:href="#DejaVuSans-Bold-44" transform="translate(193.359375 0)"/>
       <use xlink:href="#DejaVuSans-Bold-56" transform="translate(260.84375 0)"/>
       <use xlink:href="#DejaVuSans-Bold-57" transform="translate(320.359375 0)"/>
       <use xlink:href="#DejaVuSans-Bold-26" transform="translate(368.15625 0)"/>
       <use xlink:href="#DejaVuSans-Bold-44" transform="translate(441.546875 0)"/>
       <use xlink:href="#DejaVuSans-Bold-51" transform="translate(509.03125 0)"/>
       <use xlink:href="#DejaVuSans-Bold-46" transform="translate(580.21875 0)"/>
       <use xlink:href="#DejaVuSans-Bold-48" transform="translate(639.5 0)"/>
       <use xlink:href="#DejaVuSans-Bold-55" transform="translate(707.328125 0)"/>
      </g>
     </g>
    </g>
    <g id="xtick_3">
     <g id="line2d_3">
      <path d="M 389.726572 313.848325 
L 389.726572 25.3575 
" clip-path="url(#pc118a27ed6)" style="fill: none; stroke: #cccccc; stroke-width: 0.8; stroke-linecap: round"/>
     </g>
     <g id="text_3">
      <!-- HeartDisease -->
      <g style="fill: #262626" transform="translate(329.087802 386.828708) rotate(-45) scale(0.11 -0.11)">
       <defs>
        <path id="DejaVuSans-Bold-2b" d="M 588 4666 
L 1791 4666 
L 1791 2888 
L 3566 2888 
L 3566 4666 
L 4769 4666 
L 4769 0 
L 3566 0 
L 3566 1978 
L 1791 1978 
L 1791 0 
L 588 0 
L 588 4666 
z
" transform="scale(0.015625)"/>
        <path id="DejaVuSans-Bold-27" d="M 1791 3756 
L 1791 909 
L 2222 909 
Q 2959 909 3348 1275 
Q 3738 1641 3738 2338 
Q 3738 3031 3350 3393 
Q 2963 3756 2222 3756 
L 1791 3756 
z
M 588 4666 
L 1856 4666 
Q 2919 4666 3439 4514 
Q 3959 4363 4331 4000 
Q 4659 3684 4818 3271 
Q 4978 2859 4978 2338 
Q 4978 1809 4818 1395 
Q 4659 981 4331 666 
Q 3956 303 3431 151 
Q 2906 0 1856 0 
L 588 0 
L 588 4666 
z
" transform="scale(0.015625)"/>
        <path id="DejaVuSans-Bold-4c" d="M 538 3500 
L 1656 3500 
L 1656 0 
L 538 0 
L 538 3500 
z
M 538 4863 
L 1656 4863 
L 1656 3950 
L 538 3950 
L 538 4863 
z
" transform="scale(0.015625)"/>
       </defs>
       <use xlink:href="#DejaVuSans-Bold-2b"/>
       <use xlink:href="#DejaVuSans-Bold-48" transform="translate(83.6875 0)"/>
       <use xlink:href="#DejaVuSans-Bold-44" transform="translate(151.515625 0)"/>
       <use xlink:href="#DejaVuSans-Bold-55" transform="translate(219 0)"/>
       <use xlink:href="#DejaVuSans-Bold-57" transform="translate(268.3125 0)"/>
       <use xlink:href="#DejaVuSans-Bold-27" transform="translate(316.109375 0)"/>
       <use xlink:href="#DejaVuSans-Bold-4c" transform="translate(399.125 0)"/>
       <use xlink:href="#DejaVuSans-Bold-56" transform="translate(433.40625 0)"/>
       <use xlink:href="#DejaVuSans-Bold-48" transform="translate(492.921875 0)"/>
       <use xlink:href="#DejaVuSans-Bold-44" transform="translate(560.75 0)"/>
       <use xlink:href="#DejaVuSans-Bold-56" transform="translate(628.234375 0)"/>
       <use xlink:href="#DejaVuSans-Bold-48" transform="translate(687.75 0)"/>
      </g>
     </g>
    </g>
    <g id="xtick_4">
     <g id="line2d_4">
      <path d="M 528.403784 313.848325 
L 528.403784 25.3575 
" clip-path="url(#pc118a27ed6)" style="fill: none; stroke: #cccccc; stroke-width: 0.8; stroke-linecap: round"/>
     </g>
     <g id="text_4">
      <!-- Ionosphere -->
      <g style="fill: #262626" transform="translate(477.295708 377.298013) rotate(-45) scale(0.11 -0.11)">
       <defs>
        <path id="DejaVuSans-Bold-2c" d="M 588 4666 
L 1791 4666 
L 1791 0 
L 588 0 
L 588 4666 
z
" transform="scale(0.015625)"/>
        <path id="DejaVuSans-Bold-53" d="M 1656 506 
L 1656 -1331 
L 538 -1331 
L 538 3500 
L 1656 3500 
L 1656 2988 
Q 1888 3294 2169 3439 
Q 2450 3584 2816 3584 
Q 3463 3584 3878 3070 
Q 4294 2556 4294 1747 
Q 4294 938 3878 423 
Q 3463 -91 2816 -91 
Q 2450 -91 2169 54 
Q 1888 200 1656 506 
z
M 2400 2772 
Q 2041 2772 1848 2508 
Q 1656 2244 1656 1747 
Q 1656 1250 1848 986 
Q 2041 722 2400 722 
Q 2759 722 2948 984 
Q 3138 1247 3138 1747 
Q 3138 2247 2948 2509 
Q 2759 2772 2400 2772 
z
" transform="scale(0.015625)"/>
       </defs>
       <use xlink:href="#DejaVuSans-Bold-2c"/>
       <use xlink:href="#DejaVuSans-Bold-52" transform="translate(37.203125 0)"/>
       <use xlink:href="#DejaVuSans-Bold-51" transform="translate(105.90625 0)"/>
       <use xlink:href="#DejaVuSans-Bold-52" transform="translate(177.09375 0)"/>
       <use xlink:href="#DejaVuSans-Bold-56" transform="translate(245.796875 0)"/>
       <use xlink:href="#DejaVuSans-Bold-53" transform="translate(305.3125 0)"/>
       <use xlink:href="#DejaVuSans-Bold-4b" transform="translate(376.890625 0)"/>
       <use xlink:href="#DejaVuSans-Bold-48" transform="translate(448.078125 0)"/>
       <use xlink:href="#DejaVuSans-Bold-55" transform="translate(515.90625 0)"/>
       <use xlink:href="#DejaVuSans-Bold-48" transform="translate(565.21875 0)"/>
      </g>
     </g>
    </g>
    <g id="xtick_5">
     <g id="line2d_5">
      <path d="M 667.080996 313.848325 
L 667.080996 25.3575 
" clip-path="url(#pc118a27ed6)" style="fill: none; stroke: #cccccc; stroke-width: 0.8; stroke-linecap: round"/>
     </g>
     <g id="text_5">
      <!-- KC2 -->
      <g style="fill: #262626" transform="translate(648.413985 344.856341) rotate(-45) scale(0.11 -0.11)">
       <defs>
        <path id="DejaVuSans-Bold-2e" d="M 588 4666 
L 1791 4666 
L 1791 2963 
L 3525 4666 
L 4922 4666 
L 2675 2456 
L 5153 0 
L 3647 0 
L 1791 1838 
L 1791 0 
L 588 0 
L 588 4666 
z
" transform="scale(0.015625)"/>
        <path id="DejaVuSans-Bold-15" d="M 1844 884 
L 3897 884 
L 3897 0 
L 506 0 
L 506 884 
L 2209 2388 
Q 2438 2594 2547 2791 
Q 2656 2988 2656 3200 
Q 2656 3528 2436 3728 
Q 2216 3928 1850 3928 
Q 1569 3928 1234 3808 
Q 900 3688 519 3450 
L 519 4475 
Q 925 4609 1322 4679 
Q 1719 4750 2100 4750 
Q 2938 4750 3402 4381 
Q 3866 4013 3866 3353 
Q 3866 2972 3669 2642 
Q 3472 2313 2841 1759 
L 1844 884 
z
" transform="scale(0.015625)"/>
       </defs>
       <use xlink:href="#DejaVuSans-Bold-2e"/>
       <use xlink:href="#DejaVuSans-Bold-26" transform="translate(73 0)"/>
       <use xlink:href="#DejaVuSans-Bold-15" transform="translate(146.390625 0)"/>
      </g>
     </g>
    </g>
    <g id="xtick_6">
     <g id="line2d_6">
      <path d="M 805.758209 313.848325 
L 805.758209 25.3575 
" clip-path="url(#pc118a27ed6)" style="fill: none; stroke: #cccccc; stroke-width: 0.8; stroke-linecap: round"/>
     </g>
     <g id="text_6">
      <!-- QSARBiodeg -->
      <g style="fill: #262626" transform="translate(749.317222 382.630924) rotate(-45) scale(0.11 -0.11)">
       <defs>
        <path id="DejaVuSans-Bold-34" d="M 2847 -84 
L 2753 -84 
Q 1600 -84 959 553 
Q 319 1191 319 2328 
Q 319 3463 958 4106 
Q 1597 4750 2719 4750 
Q 3853 4750 4486 4112 
Q 5119 3475 5119 2328 
Q 5119 1541 4783 972 
Q 4447 403 3816 116 
L 4756 -934 
L 3609 -934 
L 2847 -84 
z
M 2719 3878 
Q 2169 3878 1866 3472 
Q 1563 3066 1563 2328 
Q 1563 1578 1859 1179 
Q 2156 781 2719 781 
Q 3272 781 3575 1187 
Q 3878 1594 3878 2328 
Q 3878 3066 3575 3472 
Q 3272 3878 2719 3878 
z
" transform="scale(0.015625)"/>
        <path id="DejaVuSans-Bold-36" d="M 3834 4519 
L 3834 3531 
Q 3450 3703 3084 3790 
Q 2719 3878 2394 3878 
Q 1963 3878 1756 3759 
Q 1550 3641 1550 3391 
Q 1550 3203 1689 3098 
Q 1828 2994 2194 2919 
L 2706 2816 
Q 3484 2659 3812 2340 
Q 4141 2022 4141 1434 
Q 4141 663 3683 286 
Q 3225 -91 2284 -91 
Q 1841 -91 1394 -6 
Q 947 78 500 244 
L 500 1259 
Q 947 1022 1364 901 
Q 1781 781 2169 781 
Q 2563 781 2772 912 
Q 2981 1044 2981 1288 
Q 2981 1506 2839 1625 
Q 2697 1744 2272 1838 
L 1806 1941 
Q 1106 2091 782 2419 
Q 459 2747 459 3303 
Q 459 4000 909 4375 
Q 1359 4750 2203 4750 
Q 2588 4750 2994 4692 
Q 3400 4634 3834 4519 
z
" transform="scale(0.015625)"/>
        <path id="DejaVuSans-Bold-35" d="M 2297 2597 
Q 2675 2597 2839 2737 
Q 3003 2878 3003 3200 
Q 3003 3519 2839 3656 
Q 2675 3794 2297 3794 
L 1791 3794 
L 1791 2597 
L 2297 2597 
z
M 1791 1766 
L 1791 0 
L 588 0 
L 588 4666 
L 2425 4666 
Q 3347 4666 3776 4356 
Q 4206 4047 4206 3378 
Q 4206 2916 3982 2619 
Q 3759 2322 3309 2181 
Q 3556 2125 3751 1926 
Q 3947 1728 4147 1325 
L 4800 0 
L 3519 0 
L 2950 1159 
Q 2778 1509 2601 1637 
Q 2425 1766 2131 1766 
L 1791 1766 
z
" transform="scale(0.015625)"/>
        <path id="DejaVuSans-Bold-47" d="M 2919 2988 
L 2919 4863 
L 4044 4863 
L 4044 0 
L 2919 0 
L 2919 506 
Q 2688 197 2409 53 
Q 2131 -91 1766 -91 
Q 1119 -91 703 423 
Q 288 938 288 1747 
Q 288 2556 703 3070 
Q 1119 3584 1766 3584 
Q 2128 3584 2408 3439 
Q 2688 3294 2919 2988 
z
M 2181 722 
Q 2541 722 2730 984 
Q 2919 1247 2919 1747 
Q 2919 2247 2730 2509 
Q 2541 2772 2181 2772 
Q 1825 2772 1636 2509 
Q 1447 2247 1447 1747 
Q 1447 1247 1636 984 
Q 1825 722 2181 722 
z
" transform="scale(0.015625)"/>
        <path id="DejaVuSans-Bold-4a" d="M 2919 594 
Q 2688 288 2409 144 
Q 2131 0 1766 0 
Q 1125 0 706 504 
Q 288 1009 288 1791 
Q 288 2575 706 3076 
Q 1125 3578 1766 3578 
Q 2131 3578 2409 3434 
Q 2688 3291 2919 2981 
L 2919 3500 
L 4044 3500 
L 4044 353 
Q 4044 -491 3511 -936 
Q 2978 -1381 1966 -1381 
Q 1638 -1381 1331 -1331 
Q 1025 -1281 716 -1178 
L 716 -306 
Q 1009 -475 1290 -558 
Q 1572 -641 1856 -641 
Q 2406 -641 2662 -400 
Q 2919 -159 2919 353 
L 2919 594 
z
M 2181 2772 
Q 1834 2772 1640 2515 
Q 1447 2259 1447 1791 
Q 1447 1309 1634 1061 
Q 1822 813 2181 813 
Q 2531 813 2725 1069 
Q 2919 1325 2919 1791 
Q 2919 2259 2725 2515 
Q 2531 2772 2181 2772 
z
" transform="scale(0.015625)"/>
       </defs>
       <use xlink:href="#DejaVuSans-Bold-34"/>
       <use xlink:href="#DejaVuSans-Bold-36" transform="translate(85.015625 0)"/>
       <use xlink:href="#DejaVuSans-Bold-24" transform="translate(157.03125 0)"/>
       <use xlink:href="#DejaVuSans-Bold-35" transform="translate(234.421875 0)"/>
       <use xlink:href="#DejaVuSans-Bold-25" transform="translate(311.421875 0)"/>
       <use xlink:href="#DejaVuSans-Bold-4c" transform="translate(387.640625 0)"/>
       <use xlink:href="#DejaVuSans-Bold-52" transform="translate(421.921875 0)"/>
       <use xlink:href="#DejaVuSans-Bold-47" transform="translate(490.625 0)"/>
       <use xlink:href="#DejaVuSans-Bold-48" transform="translate(562.203125 0)"/>
       <use xlink:href="#DejaVuSans-Bold-4a" transform="translate(630.03125 0)"/>
      </g>
     </g>
    </g>
    <g id="xtick_7">
     <g id="line2d_7">
      <path d="M 944.435421 313.848325 
L 944.435421 25.3575 
" clip-path="url(#pc118a27ed6)" style="fill: none; stroke: #cccccc; stroke-width: 0.8; stroke-linecap: round"/>
     </g>
     <g id="text_7">
      <!-- SpamBase -->
      <g style="fill: #262626" transform="translate(896.961211 373.66354) rotate(-45) scale(0.11 -0.11)">
       <defs>
        <path id="DejaVuSans-Bold-50" d="M 3781 2919 
Q 3994 3244 4286 3414 
Q 4578 3584 4928 3584 
Q 5531 3584 5847 3212 
Q 6163 2841 6163 2131 
L 6163 0 
L 5038 0 
L 5038 1825 
Q 5041 1866 5042 1909 
Q 5044 1953 5044 2034 
Q 5044 2406 4934 2573 
Q 4825 2741 4581 2741 
Q 4263 2741 4089 2478 
Q 3916 2216 3909 1719 
L 3909 0 
L 2784 0 
L 2784 1825 
Q 2784 2406 2684 2573 
Q 2584 2741 2328 2741 
Q 2006 2741 1831 2477 
Q 1656 2213 1656 1722 
L 1656 0 
L 531 0 
L 531 3500 
L 1656 3500 
L 1656 2988 
Q 1863 3284 2130 3434 
Q 2397 3584 2719 3584 
Q 3081 3584 3359 3409 
Q 3638 3234 3781 2919 
z
" transform="scale(0.015625)"/>
       </defs>
       <use xlink:href="#DejaVuSans-Bold-36"/>
       <use xlink:href="#DejaVuSans-Bold-53" transform="translate(72.015625 0)"/>
       <use xlink:href="#DejaVuSans-Bold-44" transform="translate(143.59375 0)"/>
       <use xlink:href="#DejaVuSans-Bold-50" transform="translate(211.078125 0)"/>
       <use xlink:href="#DejaVuSans-Bold-25" transform="translate(315.28125 0)"/>
       <use xlink:href="#DejaVuSans-Bold-44" transform="translate(391.5 0)"/>
       <use xlink:href="#DejaVuSans-Bold-56" transform="translate(458.984375 0)"/>
       <use xlink:href="#DejaVuSans-Bold-48" transform="translate(518.5 0)"/>
      </g>
     </g>
    </g>
    <g id="text_8">
     <!-- Dataset -->
     <g style="fill: #262626" transform="translate(499.743862 406.377044) scale(0.13 -0.13)">
      <use xlink:href="#DejaVuSans-Bold-27"/>
      <use xlink:href="#DejaVuSans-Bold-44" transform="translate(83.015625 0)"/>
      <use xlink:href="#DejaVuSans-Bold-57" transform="translate(150.5 0)"/>
      <use xlink:href="#DejaVuSans-Bold-44" transform="translate(198.296875 0)"/>
      <use xlink:href="#DejaVuSans-Bold-56" transform="translate(265.78125 0)"/>
      <use xlink:href="#DejaVuSans-Bold-48" transform="translate(325.296875 0)"/>
      <use xlink:href="#DejaVuSans-Bold-57" transform="translate(393.125 0)"/>
     </g>
    </g>
   </g>
   <g id="matplotlib.axis_2">
    <g id="ytick_1">
     <g id="line2d_8">
      <path d="M 70.768984 252.34208 
L 986.038584 252.34208 
" clip-path="url(#pc118a27ed6)" style="fill: none; stroke-dasharray: 1.85,0.8; stroke-dashoffset: 0; stroke: #cccccc; stroke-width: 0.5"/>
     </g>
     <g id="text_9">
      <!-- 10 -->
      <g style="fill: #262626" transform="translate(47.161797 256.520791) scale(0.11 -0.11)">
       <defs>
        <path id="DejaVuSans-Bold-14" d="M 750 831 
L 1813 831 
L 1813 3847 
L 722 3622 
L 722 4441 
L 1806 4666 
L 2950 4666 
L 2950 831 
L 4013 831 
L 4013 0 
L 750 0 
L 750 831 
z
" transform="scale(0.015625)"/>
        <path id="DejaVuSans-Bold-13" d="M 2944 2338 
Q 2944 3213 2780 3570 
Q 2616 3928 2228 3928 
Q 1841 3928 1675 3570 
Q 1509 3213 1509 2338 
Q 1509 1453 1675 1090 
Q 1841 728 2228 728 
Q 2613 728 2778 1090 
Q 2944 1453 2944 2338 
z
M 4147 2328 
Q 4147 1169 3647 539 
Q 3147 -91 2228 -91 
Q 1306 -91 806 539 
Q 306 1169 306 2328 
Q 306 3491 806 4120 
Q 1306 4750 2228 4750 
Q 3147 4750 3647 4120 
Q 4147 3491 4147 2328 
z
" transform="scale(0.015625)"/>
       </defs>
       <use xlink:href="#DejaVuSans-Bold-14"/>
       <use xlink:href="#DejaVuSans-Bold-13" transform="translate(69.578125 0)"/>
      </g>
     </g>
    </g>
    <g id="ytick_2">
     <g id="line2d_9">
      <path d="M 70.768984 178.749175 
L 986.038584 178.749175 
" clip-path="url(#pc118a27ed6)" style="fill: none; stroke-dasharray: 1.85,0.8; stroke-dashoffset: 0; stroke: #cccccc; stroke-width: 0.5"/>
     </g>
     <g id="text_10">
      <!-- 100 -->
      <g style="fill: #262626" transform="translate(39.508203 182.927886) scale(0.11 -0.11)">
       <use xlink:href="#DejaVuSans-Bold-14"/>
       <use xlink:href="#DejaVuSans-Bold-13" transform="translate(69.578125 0)"/>
       <use xlink:href="#DejaVuSans-Bold-13" transform="translate(139.15625 0)"/>
      </g>
     </g>
    </g>
    <g id="ytick_3">
     <g id="line2d_10">
      <path d="M 70.768984 105.15627 
L 986.038584 105.15627 
" clip-path="url(#pc118a27ed6)" style="fill: none; stroke-dasharray: 1.85,0.8; stroke-dashoffset: 0; stroke: #cccccc; stroke-width: 0.5"/>
     </g>
     <g id="text_11">
      <!-- 1000 -->
      <g style="fill: #262626" transform="translate(31.854609 109.334981) scale(0.11 -0.11)">
       <use xlink:href="#DejaVuSans-Bold-14"/>
       <use xlink:href="#DejaVuSans-Bold-13" transform="translate(69.578125 0)"/>
       <use xlink:href="#DejaVuSans-Bold-13" transform="translate(139.15625 0)"/>
       <use xlink:href="#DejaVuSans-Bold-13" transform="translate(208.734375 0)"/>
      </g>
     </g>
    </g>
    <g id="ytick_4">
     <g id="line2d_11">
      <path d="M 70.768984 31.563364 
L 986.038584 31.563364 
" clip-path="url(#pc118a27ed6)" style="fill: none; stroke-dasharray: 1.85,0.8; stroke-dashoffset: 0; stroke: #cccccc; stroke-width: 0.5"/>
     </g>
     <g id="text_12">
      <!-- 10000 -->
      <g style="fill: #262626" transform="translate(24.201016 35.742075) scale(0.11 -0.11)">
       <use xlink:href="#DejaVuSans-Bold-14"/>
       <use xlink:href="#DejaVuSans-Bold-13" transform="translate(69.578125 0)"/>
       <use xlink:href="#DejaVuSans-Bold-13" transform="translate(139.15625 0)"/>
       <use xlink:href="#DejaVuSans-Bold-13" transform="translate(208.734375 0)"/>
       <use xlink:href="#DejaVuSans-Bold-13" transform="translate(278.3125 0)"/>
      </g>
     </g>
    </g>
    <g id="ytick_5"/>
    <g id="ytick_6"/>
    <g id="ytick_7"/>
    <g id="ytick_8"/>
    <g id="ytick_9"/>
    <g id="ytick_10"/>
    <g id="ytick_11"/>
    <g id="ytick_12"/>
    <g id="ytick_13"/>
    <g id="ytick_14"/>
    <g id="ytick_15"/>
    <g id="ytick_16"/>
    <g id="ytick_17"/>
    <g id="ytick_18"/>
    <g id="ytick_19"/>
    <g id="ytick_20"/>
    <g id="ytick_21"/>
    <g id="ytick_22"/>
    <g id="ytick_23"/>
    <g id="ytick_24"/>
    <g id="ytick_25"/>
    <g id="ytick_26"/>
    <g id="ytick_27"/>
    <g id="ytick_28"/>
    <g id="ytick_29"/>
    <g id="ytick_30"/>
    <g id="ytick_31"/>
    <g id="ytick_32"/>
    <g id="ytick_33"/>
    <g id="ytick_34"/>
    <g id="ytick_35"/>
    <g id="ytick_36"/>
    <g id="text_13">
     <!-- Nodes -->
     <g style="fill: #262626" transform="translate(17.077969 192.438225) rotate(-90) scale(0.13 -0.13)">
      <defs>
       <path id="DejaVuSans-Bold-31" d="M 588 4666 
L 1931 4666 
L 3628 1466 
L 3628 4666 
L 4769 4666 
L 4769 0 
L 3425 0 
L 1728 3200 
L 1728 0 
L 588 0 
L 588 4666 
z
" transform="scale(0.015625)"/>
      </defs>
      <use xlink:href="#DejaVuSans-Bold-31"/>
      <use xlink:href="#DejaVuSans-Bold-52" transform="translate(83.6875 0)"/>
      <use xlink:href="#DejaVuSans-Bold-47" transform="translate(152.390625 0)"/>
      <use xlink:href="#DejaVuSans-Bold-48" transform="translate(223.96875 0)"/>
      <use xlink:href="#DejaVuSans-Bold-56" transform="translate(291.796875 0)"/>
     </g>
    </g>
   </g>
   <g id="line2d_12">
    <path d="M 112.372148 202.074664 
L 251.04936 216.181345 
L 389.726572 194.969309 
L 528.403784 211.939335 
L 667.080996 179.722681 
L 805.758209 165.493188 
L 944.435421 132.92814 
" clip-path="url(#pc118a27ed6)" style="fill: none; stroke: #2f4f4f; stroke-width: 2; stroke-linecap: round"/>
    <defs>
     <path id="mf2b0532a8e" d="M 0 4 
C 1.060812 4 2.078319 3.578535 2.828427 2.828427 
C 3.578535 2.078319 4 1.060812 4 0 
C 4 -1.060812 3.578535 -2.078319 2.828427 -2.828427 
C 2.078319 -3.578535 1.060812 -4 0 -4 
C -1.060812 -4 -2.078319 -3.578535 -2.828427 -2.828427 
C -3.578535 -2.078319 -4 -1.060812 -4 0 
C -4 1.060812 -3.578535 2.078319 -2.828427 2.828427 
C -2.078319 3.578535 -1.060812 4 0 4 
z
" style="stroke: #2f4f4f"/>
    </defs>
    <g clip-path="url(#pc118a27ed6)">
     <use xlink:href="#mf2b0532a8e" x="112.372148" y="202.074664" style="fill: #2f4f4f; stroke: #2f4f4f"/>
     <use xlink:href="#mf2b0532a8e" x="251.04936" y="216.181345" style="fill: #2f4f4f; stroke: #2f4f4f"/>
     <use xlink:href="#mf2b0532a8e" x="389.726572" y="194.969309" style="fill: #2f4f4f; stroke: #2f4f4f"/>
     <use xlink:href="#mf2b0532a8e" x="528.403784" y="211.939335" style="fill: #2f4f4f; stroke: #2f4f4f"/>
     <use xlink:href="#mf2b0532a8e" x="667.080996" y="179.722681" style="fill: #2f4f4f; stroke: #2f4f4f"/>
     <use xlink:href="#mf2b0532a8e" x="805.758209" y="165.493188" style="fill: #2f4f4f; stroke: #2f4f4f"/>
     <use xlink:href="#mf2b0532a8e" x="944.435421" y="132.92814" style="fill: #2f4f4f; stroke: #2f4f4f"/>
    </g>
   </g>
   <g id="line2d_13">
    <path d="M 112.372148 203.429146 
L 251.04936 231.161915 
L 389.726572 223.57203 
L 528.403784 232.507839 
L 667.080996 258.684769 
L 805.758209 196.491549 
L 944.435421 174.842978 
" clip-path="url(#pc118a27ed6)" style="fill: none; stroke: #007377; stroke-width: 2; stroke-linecap: round"/>
    <defs>
     <path id="mca4c23d989" d="M -4 4 
L 4 4 
L 4 -4 
L -4 -4 
z
" style="stroke: #007377; stroke-linejoin: miter"/>
    </defs>
    <g clip-path="url(#pc118a27ed6)">
     <use xlink:href="#mca4c23d989" x="112.372148" y="203.429146" style="fill: #007377; stroke: #007377; stroke-linejoin: miter"/>
     <use xlink:href="#mca4c23d989" x="251.04936" y="231.161915" style="fill: #007377; stroke: #007377; stroke-linejoin: miter"/>
     <use xlink:href="#mca4c23d989" x="389.726572" y="223.57203" style="fill: #007377; stroke: #007377; stroke-linejoin: miter"/>
     <use xlink:href="#mca4c23d989" x="528.403784" y="232.507839" style="fill: #007377; stroke: #007377; stroke-linejoin: miter"/>
     <use xlink:href="#mca4c23d989" x="667.080996" y="258.684769" style="fill: #007377; stroke: #007377; stroke-linejoin: miter"/>
     <use xlink:href="#mca4c23d989" x="805.758209" y="196.491549" style="fill: #007377; stroke: #007377; stroke-linejoin: miter"/>
     <use xlink:href="#mca4c23d989" x="944.435421" y="174.842978" style="fill: #007377; stroke: #007377; stroke-linejoin: miter"/>
    </g>
   </g>
   <g id="line2d_14">
    <path d="M 112.372148 242.988069 
L 251.04936 265.622366 
L 389.726572 263.741765 
L 528.403784 263.741765 
L 667.080996 283.267026 
L 805.758209 242.988069 
L 944.435421 251.709168 
" clip-path="url(#pc118a27ed6)" style="fill: none; stroke: #8b0000; stroke-width: 2; stroke-linecap: round"/>
    <defs>
     <path id="mebc17c4fa2" d="M -0 5.656854 
L 5.656854 0 
L 0 -5.656854 
L -5.656854 -0 
z
" style="stroke: #8b0000; stroke-linejoin: miter"/>
    </defs>
    <g clip-path="url(#pc118a27ed6)">
     <use xlink:href="#mebc17c4fa2" x="112.372148" y="242.988069" style="fill: #8b0000; stroke: #8b0000; stroke-linejoin: miter"/>
     <use xlink:href="#mebc17c4fa2" x="251.04936" y="265.622366" style="fill: #8b0000; stroke: #8b0000; stroke-linejoin: miter"/>
     <use xlink:href="#mebc17c4fa2" x="389.726572" y="263.741765" style="fill: #8b0000; stroke: #8b0000; stroke-linejoin: miter"/>
     <use xlink:href="#mebc17c4fa2" x="528.403784" y="263.741765" style="fill: #8b0000; stroke: #8b0000; stroke-linejoin: miter"/>
     <use xlink:href="#mebc17c4fa2" x="667.080996" y="283.267026" style="fill: #8b0000; stroke: #8b0000; stroke-linejoin: miter"/>
     <use xlink:href="#mebc17c4fa2" x="805.758209" y="242.988069" style="fill: #8b0000; stroke: #8b0000; stroke-linejoin: miter"/>
     <use xlink:href="#mebc17c4fa2" x="944.435421" y="251.709168" style="fill: #8b0000; stroke: #8b0000; stroke-linejoin: miter"/>
    </g>
   </g>
   <g id="line2d_15">
    <path d="M 112.372148 220.596767 
L 251.04936 255.709507 
L 389.726572 277.160711 
L 528.403784 274.495752 
L 667.080996 300.735105 
L 805.758209 237.722328 
L 944.435421 220.596767 
" clip-path="url(#pc118a27ed6)" style="fill: none; stroke: #b8860b; stroke-width: 2; stroke-linecap: round"/>
    <defs>
     <path id="m2e48d7669e" d="M 0 -4 
L -4 4 
L 4 4 
z
" style="stroke: #b8860b; stroke-linejoin: miter"/>
    </defs>
    <g clip-path="url(#pc118a27ed6)">
     <use xlink:href="#m2e48d7669e" x="112.372148" y="220.596767" style="fill: #b8860b; stroke: #b8860b; stroke-linejoin: miter"/>
     <use xlink:href="#m2e48d7669e" x="251.04936" y="255.709507" style="fill: #b8860b; stroke: #b8860b; stroke-linejoin: miter"/>
     <use xlink:href="#m2e48d7669e" x="389.726572" y="277.160711" style="fill: #b8860b; stroke: #b8860b; stroke-linejoin: miter"/>
     <use xlink:href="#m2e48d7669e" x="528.403784" y="274.495752" style="fill: #b8860b; stroke: #b8860b; stroke-linejoin: miter"/>
     <use xlink:href="#m2e48d7669e" x="667.080996" y="300.735105" style="fill: #b8860b; stroke: #b8860b; stroke-linejoin: miter"/>
     <use xlink:href="#m2e48d7669e" x="805.758209" y="237.722328" style="fill: #b8860b; stroke: #b8860b; stroke-linejoin: miter"/>
     <use xlink:href="#m2e48d7669e" x="944.435421" y="220.596767" style="fill: #b8860b; stroke: #b8860b; stroke-linejoin: miter"/>
    </g>
   </g>
   <g id="line2d_16">
    <path d="M 112.372148 220.596767 
L 251.04936 252.987779 
L 389.726572 269.752101 
L 528.403784 267.620579 
L 667.080996 286.821908 
L 805.758209 229.243679 
L 944.435421 206.32352 
" clip-path="url(#pc118a27ed6)" style="fill: none; stroke: #4b6c84; stroke-width: 2; stroke-linecap: round"/>
    <defs>
     <path id="ma8922a05de" d="M -0 4 
L 4 -4 
L -4 -4 
z
" style="stroke: #4b6c84; stroke-linejoin: miter"/>
    </defs>
    <g clip-path="url(#pc118a27ed6)">
     <use xlink:href="#ma8922a05de" x="112.372148" y="220.596767" style="fill: #4b6c84; stroke: #4b6c84; stroke-linejoin: miter"/>
     <use xlink:href="#ma8922a05de" x="251.04936" y="252.987779" style="fill: #4b6c84; stroke: #4b6c84; stroke-linejoin: miter"/>
     <use xlink:href="#ma8922a05de" x="389.726572" y="269.752101" style="fill: #4b6c84; stroke: #4b6c84; stroke-linejoin: miter"/>
     <use xlink:href="#ma8922a05de" x="528.403784" y="267.620579" style="fill: #4b6c84; stroke: #4b6c84; stroke-linejoin: miter"/>
     <use xlink:href="#ma8922a05de" x="667.080996" y="286.821908" style="fill: #4b6c84; stroke: #4b6c84; stroke-linejoin: miter"/>
     <use xlink:href="#ma8922a05de" x="805.758209" y="229.243679" style="fill: #4b6c84; stroke: #4b6c84; stroke-linejoin: miter"/>
     <use xlink:href="#ma8922a05de" x="944.435421" y="206.32352" style="fill: #4b6c84; stroke: #4b6c84; stroke-linejoin: miter"/>
    </g>
   </g>
   <g id="line2d_17">
    <path d="M 112.372148 212.669904 
L 251.04936 222.04979 
L 389.726572 207.875329 
L 528.403784 232.507839 
L 667.080996 211.225093 
L 805.758209 202.880446 
L 944.435421 203.987431 
" clip-path="url(#pc118a27ed6)" style="fill: none; stroke: #a0522d; stroke-width: 2; stroke-linecap: round"/>
    <defs>
     <path id="m301820a15e" d="M -1.333333 4 
L 1.333333 4 
L 1.333333 1.333333 
L 4 1.333333 
L 4 -1.333333 
L 1.333333 -1.333333 
L 1.333333 -4 
L -1.333333 -4 
L -1.333333 -1.333333 
L -4 -1.333333 
L -4 1.333333 
L -1.333333 1.333333 
z
" style="stroke: #a0522d; stroke-linejoin: miter"/>
    </defs>
    <g clip-path="url(#pc118a27ed6)">
     <use xlink:href="#m301820a15e" x="112.372148" y="212.669904" style="fill: #a0522d; stroke: #a0522d; stroke-linejoin: miter"/>
     <use xlink:href="#m301820a15e" x="251.04936" y="222.04979" style="fill: #a0522d; stroke: #a0522d; stroke-linejoin: miter"/>
     <use xlink:href="#m301820a15e" x="389.726572" y="207.875329" style="fill: #a0522d; stroke: #a0522d; stroke-linejoin: miter"/>
     <use xlink:href="#m301820a15e" x="528.403784" y="232.507839" style="fill: #a0522d; stroke: #a0522d; stroke-linejoin: miter"/>
     <use xlink:href="#m301820a15e" x="667.080996" y="211.225093" style="fill: #a0522d; stroke: #a0522d; stroke-linejoin: miter"/>
     <use xlink:href="#m301820a15e" x="805.758209" y="202.880446" style="fill: #a0522d; stroke: #a0522d; stroke-linejoin: miter"/>
     <use xlink:href="#m301820a15e" x="944.435421" y="203.987431" style="fill: #a0522d; stroke: #a0522d; stroke-linejoin: miter"/>
    </g>
   </g>
   <g id="line2d_18">
    <path d="M 112.372148 86.270744 
L 251.04936 90.516295 
L 389.726572 106.421055 
L 528.403784 101.380445 
L 667.080996 93.948928 
L 805.758209 73.226825 
L 944.435421 38.470719 
" clip-path="url(#pc118a27ed6)" style="fill: none; stroke: #556b2f; stroke-width: 2; stroke-linecap: round"/>
    <defs>
     <path id="mad88ae7561" d="M 0 -4 
L -0.898056 -1.236068 
L -3.804226 -1.236068 
L -1.453085 0.472136 
L -2.351141 3.236068 
L -0 1.527864 
L 2.351141 3.236068 
L 1.453085 0.472136 
L 3.804226 -1.236068 
L 0.898056 -1.236068 
z
" style="stroke: #556b2f; stroke-linejoin: bevel"/>
    </defs>
    <g clip-path="url(#pc118a27ed6)">
     <use xlink:href="#mad88ae7561" x="112.372148" y="86.270744" style="fill: #556b2f; stroke: #556b2f; stroke-linejoin: bevel"/>
     <use xlink:href="#mad88ae7561" x="251.04936" y="90.516295" style="fill: #556b2f; stroke: #556b2f; stroke-linejoin: bevel"/>
     <use xlink:href="#mad88ae7561" x="389.726572" y="106.421055" style="fill: #556b2f; stroke: #556b2f; stroke-linejoin: bevel"/>
     <use xlink:href="#mad88ae7561" x="528.403784" y="101.380445" style="fill: #556b2f; stroke: #556b2f; stroke-linejoin: bevel"/>
     <use xlink:href="#mad88ae7561" x="667.080996" y="93.948928" style="fill: #556b2f; stroke: #556b2f; stroke-linejoin: bevel"/>
     <use xlink:href="#mad88ae7561" x="805.758209" y="73.226825" style="fill: #556b2f; stroke: #556b2f; stroke-linejoin: bevel"/>
     <use xlink:href="#mad88ae7561" x="944.435421" y="38.470719" style="fill: #556b2f; stroke: #556b2f; stroke-linejoin: bevel"/>
    </g>
   </g>
   <g id="patch_3">
    <path d="M 70.768984 313.848325 
L 70.768984 25.3575 
" style="fill: none; stroke: #cccccc; stroke-linejoin: miter; stroke-linecap: square"/>
   </g>
   <g id="patch_4">
    <path d="M 986.038584 313.848325 
L 986.038584 25.3575 
" style="fill: none; stroke: #cccccc; stroke-linejoin: miter; stroke-linecap: square"/>
   </g>
   <g id="patch_5">
    <path d="M 70.768984 313.848325 
L 986.038584 313.848325 
" style="fill: none; stroke: #cccccc; stroke-linejoin: miter; stroke-linecap: square"/>
   </g>
   <g id="patch_6">
    <path d="M 70.768984 25.3575 
L 986.038584 25.3575 
" style="fill: none; stroke: #cccccc; stroke-linejoin: miter; stroke-linecap: square"/>
   </g>
   <g id="text_14">
    <!-- Nodes per Dataset by Method -->
    <g style="fill: #262626" transform="translate(393.717534 19.3575) scale(0.16 -0.16)">
     <defs>
      <path id="DejaVuSans-Bold-3" transform="scale(0.015625)"/>
      <path id="DejaVuSans-Bold-45" d="M 2400 722 
Q 2759 722 2948 984 
Q 3138 1247 3138 1747 
Q 3138 2247 2948 2509 
Q 2759 2772 2400 2772 
Q 2041 2772 1848 2508 
Q 1656 2244 1656 1747 
Q 1656 1250 1848 986 
Q 2041 722 2400 722 
z
M 1656 2988 
Q 1888 3294 2169 3439 
Q 2450 3584 2816 3584 
Q 3463 3584 3878 3070 
Q 4294 2556 4294 1747 
Q 4294 938 3878 423 
Q 3463 -91 2816 -91 
Q 2450 -91 2169 54 
Q 1888 200 1656 506 
L 1656 0 
L 538 0 
L 538 4863 
L 1656 4863 
L 1656 2988 
z
" transform="scale(0.015625)"/>
      <path id="DejaVuSans-Bold-5c" d="M 78 3500 
L 1197 3500 
L 2138 1125 
L 2938 3500 
L 4056 3500 
L 2584 -331 
Q 2363 -916 2067 -1148 
Q 1772 -1381 1288 -1381 
L 641 -1381 
L 641 -647 
L 991 -647 
Q 1275 -647 1404 -556 
Q 1534 -466 1606 -231 
L 1638 -134 
L 78 3500 
z
" transform="scale(0.015625)"/>
      <path id="DejaVuSans-Bold-30" d="M 588 4666 
L 2119 4666 
L 3181 2169 
L 4250 4666 
L 5778 4666 
L 5778 0 
L 4641 0 
L 4641 3413 
L 3566 897 
L 2803 897 
L 1728 3413 
L 1728 0 
L 588 0 
L 588 4666 
z
" transform="scale(0.015625)"/>
     </defs>
     <use xlink:href="#DejaVuSans-Bold-31"/>
     <use xlink:href="#DejaVuSans-Bold-52" transform="translate(83.6875 0)"/>
     <use xlink:href="#DejaVuSans-Bold-47" transform="translate(152.390625 0)"/>
     <use xlink:href="#DejaVuSans-Bold-48" transform="translate(223.96875 0)"/>
     <use xlink:href="#DejaVuSans-Bold-56" transform="translate(291.796875 0)"/>
     <use xlink:href="#DejaVuSans-Bold-3" transform="translate(351.3125 0)"/>
     <use xlink:href="#DejaVuSans-Bold-53" transform="translate(386.125 0)"/>
     <use xlink:href="#DejaVuSans-Bold-48" transform="translate(457.703125 0)"/>
     <use xlink:href="#DejaVuSans-Bold-55" transform="translate(525.53125 0)"/>
     <use xlink:href="#DejaVuSans-Bold-3" transform="translate(574.84375 0)"/>
     <use xlink:href="#DejaVuSans-Bold-27" transform="translate(609.65625 0)"/>
     <use xlink:href="#DejaVuSans-Bold-44" transform="translate(692.671875 0)"/>
     <use xlink:href="#DejaVuSans-Bold-57" transform="translate(760.15625 0)"/>
     <use xlink:href="#DejaVuSans-Bold-44" transform="translate(807.953125 0)"/>
     <use xlink:href="#DejaVuSans-Bold-56" transform="translate(875.4375 0)"/>
     <use xlink:href="#DejaVuSans-Bold-48" transform="translate(934.953125 0)"/>
     <use xlink:href="#DejaVuSans-Bold-57" transform="translate(1002.78125 0)"/>
     <use xlink:href="#DejaVuSans-Bold-3" transform="translate(1050.578125 0)"/>
     <use xlink:href="#DejaVuSans-Bold-45" transform="translate(1085.390625 0)"/>
     <use xlink:href="#DejaVuSans-Bold-5c" transform="translate(1156.96875 0)"/>
     <use xlink:href="#DejaVuSans-Bold-3" transform="translate(1222.15625 0)"/>
     <use xlink:href="#DejaVuSans-Bold-30" transform="translate(1256.96875 0)"/>
     <use xlink:href="#DejaVuSans-Bold-48" transform="translate(1356.484375 0)"/>
     <use xlink:href="#DejaVuSans-Bold-57" transform="translate(1424.3125 0)"/>
     <use xlink:href="#DejaVuSans-Bold-4b" transform="translate(1472.109375 0)"/>
     <use xlink:href="#DejaVuSans-Bold-52" transform="translate(1543.296875 0)"/>
     <use xlink:href="#DejaVuSans-Bold-47" transform="translate(1612 0)"/>
    </g>
   </g>
   <g id="legend_1">
    <g id="patch_7">
     <path d="M 78.468984 167.164453 
L 160.778203 167.164453 
Q 162.978203 167.164453 162.978203 164.964453 
L 162.978203 33.0575 
Q 162.978203 30.8575 160.778203 30.8575 
L 78.468984 30.8575 
Q 76.268984 30.8575 76.268984 33.0575 
L 76.268984 164.964453 
Q 76.268984 167.164453 78.468984 167.164453 
z
" style="fill: #ffffff; opacity: 0.8; stroke: #cccccc; stroke-width: 0.8; stroke-linejoin: miter"/>
    </g>
    <g id="text_15">
     <!-- Method -->
     <g style="fill: #262626" transform="translate(97.119844 44.375625) scale(0.12 -0.12)">
      <defs>
       <path id="DejaVuSans-30" d="M 628 4666 
L 1569 4666 
L 2759 1491 
L 3956 4666 
L 4897 4666 
L 4897 0 
L 4281 0 
L 4281 4097 
L 3078 897 
L 2444 897 
L 1241 4097 
L 1241 0 
L 628 0 
L 628 4666 
z
" transform="scale(0.015625)"/>
       <path id="DejaVuSans-48" d="M 3597 1894 
L 3597 1613 
L 953 1613 
Q 991 1019 1311 708 
Q 1631 397 2203 397 
Q 2534 397 2845 478 
Q 3156 559 3463 722 
L 3463 178 
Q 3153 47 2828 -22 
Q 2503 -91 2169 -91 
Q 1331 -91 842 396 
Q 353 884 353 1716 
Q 353 2575 817 3079 
Q 1281 3584 2069 3584 
Q 2775 3584 3186 3129 
Q 3597 2675 3597 1894 
z
M 3022 2063 
Q 3016 2534 2758 2815 
Q 2500 3097 2075 3097 
Q 1594 3097 1305 2825 
Q 1016 2553 972 2059 
L 3022 2063 
z
" transform="scale(0.015625)"/>
       <path id="DejaVuSans-57" d="M 1172 4494 
L 1172 3500 
L 2356 3500 
L 2356 3053 
L 1172 3053 
L 1172 1153 
Q 1172 725 1289 603 
Q 1406 481 1766 481 
L 2356 481 
L 2356 0 
L 1766 0 
Q 1100 0 847 248 
Q 594 497 594 1153 
L 594 3053 
L 172 3053 
L 172 3500 
L 594 3500 
L 594 4494 
L 1172 4494 
z
" transform="scale(0.015625)"/>
       <path id="DejaVuSans-4b" d="M 3513 2113 
L 3513 0 
L 2938 0 
L 2938 2094 
Q 2938 2591 2744 2837 
Q 2550 3084 2163 3084 
Q 1697 3084 1428 2787 
Q 1159 2491 1159 1978 
L 1159 0 
L 581 0 
L 581 4863 
L 1159 4863 
L 1159 2956 
Q 1366 3272 1645 3428 
Q 1925 3584 2291 3584 
Q 2894 3584 3203 3211 
Q 3513 2838 3513 2113 
z
" transform="scale(0.015625)"/>
       <path id="DejaVuSans-52" d="M 1959 3097 
Q 1497 3097 1228 2736 
Q 959 2375 959 1747 
Q 959 1119 1226 758 
Q 1494 397 1959 397 
Q 2419 397 2687 759 
Q 2956 1122 2956 1747 
Q 2956 2369 2687 2733 
Q 2419 3097 1959 3097 
z
M 1959 3584 
Q 2709 3584 3137 3096 
Q 3566 2609 3566 1747 
Q 3566 888 3137 398 
Q 2709 -91 1959 -91 
Q 1206 -91 779 398 
Q 353 888 353 1747 
Q 353 2609 779 3096 
Q 1206 3584 1959 3584 
z
" transform="scale(0.015625)"/>
       <path id="DejaVuSans-47" d="M 2906 2969 
L 2906 4863 
L 3481 4863 
L 3481 0 
L 2906 0 
L 2906 525 
Q 2725 213 2448 61 
Q 2172 -91 1784 -91 
Q 1150 -91 751 415 
Q 353 922 353 1747 
Q 353 2572 751 3078 
Q 1150 3584 1784 3584 
Q 2172 3584 2448 3432 
Q 2725 3281 2906 2969 
z
M 947 1747 
Q 947 1113 1208 752 
Q 1469 391 1925 391 
Q 2381 391 2643 752 
Q 2906 1113 2906 1747 
Q 2906 2381 2643 2742 
Q 2381 3103 1925 3103 
Q 1469 3103 1208 2742 
Q 947 2381 947 1747 
z
" transform="scale(0.015625)"/>
      </defs>
      <use xlink:href="#DejaVuSans-30"/>
      <use xlink:href="#DejaVuSans-48" transform="translate(86.28125 0)"/>
      <use xlink:href="#DejaVuSans-57" transform="translate(147.8125 0)"/>
      <use xlink:href="#DejaVuSans-4b" transform="translate(187.015625 0)"/>
      <use xlink:href="#DejaVuSans-52" transform="translate(250.390625 0)"/>
      <use xlink:href="#DejaVuSans-47" transform="translate(311.578125 0)"/>
     </g>
    </g>
    <g id="line2d_19">
     <path d="M 80.668984 57.266719 
L 91.668984 57.266719 
L 102.668984 57.266719 
" style="fill: none; stroke: #2f4f4f; stroke-width: 2; stroke-linecap: round"/>
     <g>
      <use xlink:href="#mf2b0532a8e" x="91.668984" y="57.266719" style="fill: #2f4f4f; stroke: #2f4f4f"/>
     </g>
    </g>
    <g id="text_16">
     <!-- Base -->
     <g style="fill: #262626" transform="translate(111.468984 61.116719) scale(0.11 -0.11)">
      <defs>
       <path id="DejaVuSans-25" d="M 1259 2228 
L 1259 519 
L 2272 519 
Q 2781 519 3026 730 
Q 3272 941 3272 1375 
Q 3272 1813 3026 2020 
Q 2781 2228 2272 2228 
L 1259 2228 
z
M 1259 4147 
L 1259 2741 
L 2194 2741 
Q 2656 2741 2882 2914 
Q 3109 3088 3109 3444 
Q 3109 3797 2882 3972 
Q 2656 4147 2194 4147 
L 1259 4147 
z
M 628 4666 
L 2241 4666 
Q 2963 4666 3353 4366 
Q 3744 4066 3744 3513 
Q 3744 3084 3544 2831 
Q 3344 2578 2956 2516 
Q 3422 2416 3680 2098 
Q 3938 1781 3938 1306 
Q 3938 681 3513 340 
Q 3088 0 2303 0 
L 628 0 
L 628 4666 
z
" transform="scale(0.015625)"/>
       <path id="DejaVuSans-44" d="M 2194 1759 
Q 1497 1759 1228 1600 
Q 959 1441 959 1056 
Q 959 750 1161 570 
Q 1363 391 1709 391 
Q 2188 391 2477 730 
Q 2766 1069 2766 1631 
L 2766 1759 
L 2194 1759 
z
M 3341 1997 
L 3341 0 
L 2766 0 
L 2766 531 
Q 2569 213 2275 61 
Q 1981 -91 1556 -91 
Q 1019 -91 701 211 
Q 384 513 384 1019 
Q 384 1609 779 1909 
Q 1175 2209 1959 2209 
L 2766 2209 
L 2766 2266 
Q 2766 2663 2505 2880 
Q 2244 3097 1772 3097 
Q 1472 3097 1187 3025 
Q 903 2953 641 2809 
L 641 3341 
Q 956 3463 1253 3523 
Q 1550 3584 1831 3584 
Q 2591 3584 2966 3190 
Q 3341 2797 3341 1997 
z
" transform="scale(0.015625)"/>
       <path id="DejaVuSans-56" d="M 2834 3397 
L 2834 2853 
Q 2591 2978 2328 3040 
Q 2066 3103 1784 3103 
Q 1356 3103 1142 2972 
Q 928 2841 928 2578 
Q 928 2378 1081 2264 
Q 1234 2150 1697 2047 
L 1894 2003 
Q 2506 1872 2764 1633 
Q 3022 1394 3022 966 
Q 3022 478 2636 193 
Q 2250 -91 1575 -91 
Q 1294 -91 989 -36 
Q 684 19 347 128 
L 347 722 
Q 666 556 975 473 
Q 1284 391 1588 391 
Q 1994 391 2212 530 
Q 2431 669 2431 922 
Q 2431 1156 2273 1281 
Q 2116 1406 1581 1522 
L 1381 1569 
Q 847 1681 609 1914 
Q 372 2147 372 2553 
Q 372 3047 722 3315 
Q 1072 3584 1716 3584 
Q 2034 3584 2315 3537 
Q 2597 3491 2834 3397 
z
" transform="scale(0.015625)"/>
      </defs>
      <use xlink:href="#DejaVuSans-25"/>
      <use xlink:href="#DejaVuSans-44" transform="translate(68.609375 0)"/>
      <use xlink:href="#DejaVuSans-56" transform="translate(129.890625 0)"/>
      <use xlink:href="#DejaVuSans-48" transform="translate(181.984375 0)"/>
     </g>
    </g>
    <g id="line2d_20">
     <path d="M 80.668984 73.767578 
L 91.668984 73.767578 
L 102.668984 73.767578 
" style="fill: none; stroke: #007377; stroke-width: 2; stroke-linecap: round"/>
     <g>
      <use xlink:href="#mca4c23d989" x="91.668984" y="73.767578" style="fill: #007377; stroke: #007377; stroke-linejoin: miter"/>
     </g>
    </g>
    <g id="text_17">
     <!-- CCP -->
     <g style="fill: #262626" transform="translate(111.468984 77.617578) scale(0.11 -0.11)">
      <defs>
       <path id="DejaVuSans-26" d="M 4122 4306 
L 4122 3641 
Q 3803 3938 3442 4084 
Q 3081 4231 2675 4231 
Q 1875 4231 1450 3742 
Q 1025 3253 1025 2328 
Q 1025 1406 1450 917 
Q 1875 428 2675 428 
Q 3081 428 3442 575 
Q 3803 722 4122 1019 
L 4122 359 
Q 3791 134 3420 21 
Q 3050 -91 2638 -91 
Q 1578 -91 968 557 
Q 359 1206 359 2328 
Q 359 3453 968 4101 
Q 1578 4750 2638 4750 
Q 3056 4750 3426 4639 
Q 3797 4528 4122 4306 
z
" transform="scale(0.015625)"/>
       <path id="DejaVuSans-33" d="M 1259 4147 
L 1259 2394 
L 2053 2394 
Q 2494 2394 2734 2622 
Q 2975 2850 2975 3272 
Q 2975 3691 2734 3919 
Q 2494 4147 2053 4147 
L 1259 4147 
z
M 628 4666 
L 2053 4666 
Q 2838 4666 3239 4311 
Q 3641 3956 3641 3272 
Q 3641 2581 3239 2228 
Q 2838 1875 2053 1875 
L 1259 1875 
L 1259 0 
L 628 0 
L 628 4666 
z
" transform="scale(0.015625)"/>
      </defs>
      <use xlink:href="#DejaVuSans-26"/>
      <use xlink:href="#DejaVuSans-26" transform="translate(69.828125 0)"/>
      <use xlink:href="#DejaVuSans-33" transform="translate(139.65625 0)"/>
     </g>
    </g>
    <g id="line2d_21">
     <path d="M 80.668984 90.268437 
L 91.668984 90.268437 
L 102.668984 90.268437 
" style="fill: none; stroke: #8b0000; stroke-width: 2; stroke-linecap: round"/>
     <g>
      <use xlink:href="#mebc17c4fa2" x="91.668984" y="90.268437" style="fill: #8b0000; stroke: #8b0000; stroke-linejoin: miter"/>
     </g>
    </g>
    <g id="text_18">
     <!-- SR-CCP -->
     <g style="fill: #262626" transform="translate(111.468984 94.118437) scale(0.11 -0.11)">
      <defs>
       <path id="DejaVuSans-36" d="M 3425 4513 
L 3425 3897 
Q 3066 4069 2747 4153 
Q 2428 4238 2131 4238 
Q 1616 4238 1336 4038 
Q 1056 3838 1056 3469 
Q 1056 3159 1242 3001 
Q 1428 2844 1947 2747 
L 2328 2669 
Q 3034 2534 3370 2195 
Q 3706 1856 3706 1288 
Q 3706 609 3251 259 
Q 2797 -91 1919 -91 
Q 1588 -91 1214 -16 
Q 841 59 441 206 
L 441 856 
Q 825 641 1194 531 
Q 1563 422 1919 422 
Q 2459 422 2753 634 
Q 3047 847 3047 1241 
Q 3047 1584 2836 1778 
Q 2625 1972 2144 2069 
L 1759 2144 
Q 1053 2284 737 2584 
Q 422 2884 422 3419 
Q 422 4038 858 4394 
Q 1294 4750 2059 4750 
Q 2388 4750 2728 4690 
Q 3069 4631 3425 4513 
z
" transform="scale(0.015625)"/>
       <path id="DejaVuSans-35" d="M 2841 2188 
Q 3044 2119 3236 1894 
Q 3428 1669 3622 1275 
L 4263 0 
L 3584 0 
L 2988 1197 
Q 2756 1666 2539 1819 
Q 2322 1972 1947 1972 
L 1259 1972 
L 1259 0 
L 628 0 
L 628 4666 
L 2053 4666 
Q 2853 4666 3247 4331 
Q 3641 3997 3641 3322 
Q 3641 2881 3436 2590 
Q 3231 2300 2841 2188 
z
M 1259 4147 
L 1259 2491 
L 2053 2491 
Q 2509 2491 2742 2702 
Q 2975 2913 2975 3322 
Q 2975 3731 2742 3939 
Q 2509 4147 2053 4147 
L 1259 4147 
z
" transform="scale(0.015625)"/>
       <path id="DejaVuSans-10" d="M 313 2009 
L 1997 2009 
L 1997 1497 
L 313 1497 
L 313 2009 
z
" transform="scale(0.015625)"/>
      </defs>
      <use xlink:href="#DejaVuSans-36"/>
      <use xlink:href="#DejaVuSans-35" transform="translate(63.484375 0)"/>
      <use xlink:href="#DejaVuSans-10" transform="translate(128.921875 0)"/>
      <use xlink:href="#DejaVuSans-26" transform="translate(165 0)"/>
      <use xlink:href="#DejaVuSans-26" transform="translate(234.828125 0)"/>
      <use xlink:href="#DejaVuSans-33" transform="translate(304.65625 0)"/>
     </g>
    </g>
    <g id="line2d_22">
     <path d="M 80.668984 106.769297 
L 91.668984 106.769297 
L 102.668984 106.769297 
" style="fill: none; stroke: #b8860b; stroke-width: 2; stroke-linecap: round"/>
     <g>
      <use xlink:href="#m2e48d7669e" x="91.668984" y="106.769297" style="fill: #b8860b; stroke: #b8860b; stroke-linejoin: miter"/>
     </g>
    </g>
    <g id="text_19">
     <!-- REP -->
     <g style="fill: #262626" transform="translate(111.468984 110.619297) scale(0.11 -0.11)">
      <defs>
       <path id="DejaVuSans-28" d="M 628 4666 
L 3578 4666 
L 3578 4134 
L 1259 4134 
L 1259 2753 
L 3481 2753 
L 3481 2222 
L 1259 2222 
L 1259 531 
L 3634 531 
L 3634 0 
L 628 0 
L 628 4666 
z
" transform="scale(0.015625)"/>
      </defs>
      <use xlink:href="#DejaVuSans-35"/>
      <use xlink:href="#DejaVuSans-28" transform="translate(69.484375 0)"/>
      <use xlink:href="#DejaVuSans-33" transform="translate(132.671875 0)"/>
     </g>
    </g>
    <g id="line2d_23">
     <path d="M 80.668984 123.270156 
L 91.668984 123.270156 
L 102.668984 123.270156 
" style="fill: none; stroke: #4b6c84; stroke-width: 2; stroke-linecap: round"/>
     <g>
      <use xlink:href="#ma8922a05de" x="91.668984" y="123.270156" style="fill: #4b6c84; stroke: #4b6c84; stroke-linejoin: miter"/>
     </g>
    </g>
    <g id="text_20">
     <!-- MEP -->
     <g style="fill: #262626" transform="translate(111.468984 127.120156) scale(0.11 -0.11)">
      <use xlink:href="#DejaVuSans-30"/>
      <use xlink:href="#DejaVuSans-28" transform="translate(86.28125 0)"/>
      <use xlink:href="#DejaVuSans-33" transform="translate(149.46875 0)"/>
     </g>
    </g>
    <g id="line2d_24">
     <path d="M 80.668984 139.771016 
L 91.668984 139.771016 
L 102.668984 139.771016 
" style="fill: none; stroke: #a0522d; stroke-width: 2; stroke-linecap: round"/>
     <g>
      <use xlink:href="#m301820a15e" x="91.668984" y="139.771016" style="fill: #a0522d; stroke: #a0522d; stroke-linejoin: miter"/>
     </g>
    </g>
    <g id="text_21">
     <!-- DBP -->
     <g style="fill: #262626" transform="translate(111.468984 143.621016) scale(0.11 -0.11)">
      <defs>
       <path id="DejaVuSans-27" d="M 1259 4147 
L 1259 519 
L 2022 519 
Q 2988 519 3436 956 
Q 3884 1394 3884 2338 
Q 3884 3275 3436 3711 
Q 2988 4147 2022 4147 
L 1259 4147 
z
M 628 4666 
L 1925 4666 
Q 3281 4666 3915 4102 
Q 4550 3538 4550 2338 
Q 4550 1131 3912 565 
Q 3275 0 1925 0 
L 628 0 
L 628 4666 
z
" transform="scale(0.015625)"/>
      </defs>
      <use xlink:href="#DejaVuSans-27"/>
      <use xlink:href="#DejaVuSans-25" transform="translate(77 0)"/>
      <use xlink:href="#DejaVuSans-33" transform="translate(145.609375 0)"/>
     </g>
    </g>
    <g id="line2d_25">
     <path d="M 80.668984 156.271875 
L 91.668984 156.271875 
L 102.668984 156.271875 
" style="fill: none; stroke: #556b2f; stroke-width: 2; stroke-linecap: round"/>
     <g>
      <use xlink:href="#mad88ae7561" x="91.668984" y="156.271875" style="fill: #556b2f; stroke: #556b2f; stroke-linejoin: bevel"/>
     </g>
    </g>
    <g id="text_22">
     <!-- XGBoost -->
     <g style="fill: #262626" transform="translate(111.468984 160.121875) scale(0.11 -0.11)">
      <defs>
       <path id="DejaVuSans-3b" d="M 403 4666 
L 1081 4666 
L 2241 2931 
L 3406 4666 
L 4084 4666 
L 2584 2425 
L 4184 0 
L 3506 0 
L 2194 1984 
L 872 0 
L 191 0 
L 1856 2491 
L 403 4666 
z
" transform="scale(0.015625)"/>
       <path id="DejaVuSans-2a" d="M 3809 666 
L 3809 1919 
L 2778 1919 
L 2778 2438 
L 4434 2438 
L 4434 434 
Q 4069 175 3628 42 
Q 3188 -91 2688 -91 
Q 1594 -91 976 548 
Q 359 1188 359 2328 
Q 359 3472 976 4111 
Q 1594 4750 2688 4750 
Q 3144 4750 3555 4637 
Q 3966 4525 4313 4306 
L 4313 3634 
Q 3963 3931 3569 4081 
Q 3175 4231 2741 4231 
Q 1884 4231 1454 3753 
Q 1025 3275 1025 2328 
Q 1025 1384 1454 906 
Q 1884 428 2741 428 
Q 3075 428 3337 486 
Q 3600 544 3809 666 
z
" transform="scale(0.015625)"/>
      </defs>
      <use xlink:href="#DejaVuSans-3b"/>
      <use xlink:href="#DejaVuSans-2a" transform="translate(68.5 0)"/>
      <use xlink:href="#DejaVuSans-25" transform="translate(145.984375 0)"/>
      <use xlink:href="#DejaVuSans-52" transform="translate(214.59375 0)"/>
      <use xlink:href="#DejaVuSans-52" transform="translate(275.78125 0)"/>
      <use xlink:href="#DejaVuSans-56" transform="translate(336.96875 0)"/>
      <use xlink:href="#DejaVuSans-57" transform="translate(389.0625 0)"/>
     </g>
    </g>
   </g>
  </g>
 </g>
 <defs>
  <clipPath id="pc118a27ed6">
   <rect x="70.768984" y="25.3575" width="915.2696" height="288.490825"/>
  </clipPath>
 </defs>
</svg>
